M48
; DRILL file {KiCad (5.1.9-0-10_14)} date Wednesday, March 17, 2021 at 10:28:11 PM
; FORMAT={-:-/ absolute / inch / decimal}
; #@! TF.CreationDate,2021-03-17T22:28:11-07:00
; #@! TF.GenerationSoftware,Kicad,Pcbnew,(5.1.9-0-10_14)
; #@! TF.FileFunction,NonPlated,1,2,NPTH
FMAT,2
INCH
T1C0.0256
T2C0.0591
T3C0.0689
T4C0.1378
T5C0.1570
%
G90
G05
T1
X-1.645Y1.4102
X-1.4175Y1.4102
T3
X-1.3562Y1.1562
X-1.3562Y0.4062
X-0.9562Y1.1562
X-0.9562Y0.4062
X-0.6062Y1.1562
X-0.6062Y0.4062
X-0.2062Y1.1562
X-0.2062Y0.4062
T4
X-1.1562Y0.9688
X-1.1562Y0.2188
X-0.4062Y0.965
X-0.4062Y0.2188
T5
X-1.1562Y1.1562
X-1.1562Y0.4062
X-0.4062Y1.1562
X-0.4062Y0.4062
T2
G00X-2.5017Y0.8068
M15
G01X-2.5017Y0.7557
M16
G05
G00X-2.0608Y0.8068
M15
G01X-2.0608Y0.7557
M16
G05
T0
M30
