G04 #@! TF.GenerationSoftware,KiCad,Pcbnew,(5.1.9-0-10_14)*
G04 #@! TF.CreationDate,2021-03-17T22:28:09-07:00*
G04 #@! TF.ProjectId,Croaky4,43726f61-6b79-4342-9e6b-696361645f70,rev?*
G04 #@! TF.SameCoordinates,Original*
G04 #@! TF.FileFunction,Copper,L2,Bot*
G04 #@! TF.FilePolarity,Positive*
%FSLAX46Y46*%
G04 Gerber Fmt 4.6, Leading zero omitted, Abs format (unit mm)*
G04 Created by KiCad (PCBNEW (5.1.9-0-10_14)) date 2021-03-17 22:28:09*
%MOMM*%
%LPD*%
G01*
G04 APERTURE LIST*
G04 #@! TA.AperFunction,SMDPad,CuDef*
%ADD10R,1.500000X1.000000*%
G04 #@! TD*
G04 #@! TA.AperFunction,SMDPad,CuDef*
%ADD11R,1.501140X0.899160*%
G04 #@! TD*
G04 #@! TA.AperFunction,ComponentPad*
%ADD12C,2.250000*%
G04 #@! TD*
G04 #@! TA.AperFunction,SMDPad,CuDef*
%ADD13R,1.600000X0.550000*%
G04 #@! TD*
G04 #@! TA.AperFunction,SMDPad,CuDef*
%ADD14R,0.550000X1.600000*%
G04 #@! TD*
G04 #@! TA.AperFunction,SMDPad,CuDef*
%ADD15R,0.700000X1.000000*%
G04 #@! TD*
G04 #@! TA.AperFunction,SMDPad,CuDef*
%ADD16R,0.700000X0.600000*%
G04 #@! TD*
G04 #@! TA.AperFunction,SMDPad,CuDef*
%ADD17R,0.600000X1.450000*%
G04 #@! TD*
G04 #@! TA.AperFunction,SMDPad,CuDef*
%ADD18R,0.300000X1.450000*%
G04 #@! TD*
G04 #@! TA.AperFunction,ComponentPad*
%ADD19O,1.000000X2.100000*%
G04 #@! TD*
G04 #@! TA.AperFunction,ComponentPad*
%ADD20O,1.000000X1.600000*%
G04 #@! TD*
G04 #@! TA.AperFunction,ComponentPad*
%ADD21R,2.000000X2.000000*%
G04 #@! TD*
G04 #@! TA.AperFunction,ComponentPad*
%ADD22C,2.000000*%
G04 #@! TD*
G04 #@! TA.AperFunction,WasherPad*
%ADD23R,2.000000X3.200000*%
G04 #@! TD*
G04 #@! TA.AperFunction,ComponentPad*
%ADD24R,1.700000X1.700000*%
G04 #@! TD*
G04 #@! TA.AperFunction,ComponentPad*
%ADD25C,1.700000*%
G04 #@! TD*
G04 #@! TA.AperFunction,SMDPad,CuDef*
%ADD26C,0.100000*%
G04 #@! TD*
G04 #@! TA.AperFunction,SMDPad,CuDef*
%ADD27R,1.800000X1.100000*%
G04 #@! TD*
G04 #@! TA.AperFunction,ViaPad*
%ADD28C,0.800000*%
G04 #@! TD*
G04 #@! TA.AperFunction,Conductor*
%ADD29C,0.381000*%
G04 #@! TD*
G04 #@! TA.AperFunction,Conductor*
%ADD30C,0.254000*%
G04 #@! TD*
G04 #@! TA.AperFunction,Conductor*
%ADD31C,0.200000*%
G04 #@! TD*
G04 #@! TA.AperFunction,Conductor*
%ADD32C,0.100000*%
G04 #@! TD*
G04 APERTURE END LIST*
D10*
G04 #@! TO.P,D2,1*
G04 #@! TO.N,+5V*
X-41343750Y4781750D03*
G04 #@! TO.P,D2,2*
G04 #@! TO.N,Net-(D2-Pad2)*
X-41343750Y7981750D03*
G04 #@! TO.P,D2,4*
G04 #@! TO.N,Net-(D1-Pad2)*
X-36443750Y4781750D03*
G04 #@! TO.P,D2,3*
G04 #@! TO.N,GND*
X-36443750Y7981750D03*
G04 #@! TD*
D11*
G04 #@! TO.P,D6,1*
G04 #@! TO.N,+5V*
X-26869390Y3956050D03*
G04 #@! TO.P,D6,2*
G04 #@! TO.N,Net-(D6-Pad2)*
X-26869390Y7156450D03*
G04 #@! TO.P,D6,3*
G04 #@! TO.N,GND*
X-31868110Y7156450D03*
G04 #@! TO.P,D6,4*
G04 #@! TO.N,Net-(D5-Pad2)*
X-31868110Y3956050D03*
G04 #@! TD*
G04 #@! TO.P,D7,4*
G04 #@! TO.N,Net-(D6-Pad2)*
X-12818110Y3956050D03*
G04 #@! TO.P,D7,3*
G04 #@! TO.N,GND*
X-12818110Y7156450D03*
G04 #@! TO.P,D7,2*
G04 #@! TO.N,Net-(D7-Pad2)*
X-7819390Y7156450D03*
G04 #@! TO.P,D7,1*
G04 #@! TO.N,+5V*
X-7819390Y3956050D03*
G04 #@! TD*
G04 #@! TO.P,D5,4*
G04 #@! TO.N,Net-(D4-Pad2)*
X-31868110Y23006050D03*
G04 #@! TO.P,D5,3*
G04 #@! TO.N,GND*
X-31868110Y26206450D03*
G04 #@! TO.P,D5,2*
G04 #@! TO.N,Net-(D5-Pad2)*
X-26869390Y26206450D03*
G04 #@! TO.P,D5,1*
G04 #@! TO.N,+5V*
X-26869390Y23006050D03*
G04 #@! TD*
G04 #@! TO.P,D4,4*
G04 #@! TO.N,Net-(D3-Pad2)*
X-12818110Y22910800D03*
G04 #@! TO.P,D4,3*
G04 #@! TO.N,GND*
X-12818110Y26111200D03*
G04 #@! TO.P,D4,2*
G04 #@! TO.N,Net-(D4-Pad2)*
X-7819390Y26111200D03*
G04 #@! TO.P,D4,1*
G04 #@! TO.N,+5V*
X-7819390Y22910800D03*
G04 #@! TD*
D12*
G04 #@! TO.P,MX2,2*
G04 #@! TO.N,ROW0*
X-26828750Y15398750D03*
G04 #@! TO.P,MX2,1*
G04 #@! TO.N,COL1*
X-33178750Y12858750D03*
G04 #@! TD*
G04 #@! TO.P,C13,1*
G04 #@! TO.N,GND*
G04 #@! TA.AperFunction,SMDPad,CuDef*
G36*
G01*
X-6444000Y6403000D02*
X-5494000Y6403000D01*
G75*
G02*
X-5244000Y6153000I0J-250000D01*
G01*
X-5244000Y5653000D01*
G75*
G02*
X-5494000Y5403000I-250000J0D01*
G01*
X-6444000Y5403000D01*
G75*
G02*
X-6694000Y5653000I0J250000D01*
G01*
X-6694000Y6153000D01*
G75*
G02*
X-6444000Y6403000I250000J0D01*
G01*
G37*
G04 #@! TD.AperFunction*
G04 #@! TO.P,C13,2*
G04 #@! TO.N,+5V*
G04 #@! TA.AperFunction,SMDPad,CuDef*
G36*
G01*
X-6444000Y4503000D02*
X-5494000Y4503000D01*
G75*
G02*
X-5244000Y4253000I0J-250000D01*
G01*
X-5244000Y3753000D01*
G75*
G02*
X-5494000Y3503000I-250000J0D01*
G01*
X-6444000Y3503000D01*
G75*
G02*
X-6694000Y3753000I0J250000D01*
G01*
X-6694000Y4253000D01*
G75*
G02*
X-6444000Y4503000I250000J0D01*
G01*
G37*
G04 #@! TD.AperFunction*
G04 #@! TD*
G04 #@! TO.P,C12,1*
G04 #@! TO.N,GND*
G04 #@! TA.AperFunction,SMDPad,CuDef*
G36*
G01*
X-25367000Y6403000D02*
X-24417000Y6403000D01*
G75*
G02*
X-24167000Y6153000I0J-250000D01*
G01*
X-24167000Y5653000D01*
G75*
G02*
X-24417000Y5403000I-250000J0D01*
G01*
X-25367000Y5403000D01*
G75*
G02*
X-25617000Y5653000I0J250000D01*
G01*
X-25617000Y6153000D01*
G75*
G02*
X-25367000Y6403000I250000J0D01*
G01*
G37*
G04 #@! TD.AperFunction*
G04 #@! TO.P,C12,2*
G04 #@! TO.N,+5V*
G04 #@! TA.AperFunction,SMDPad,CuDef*
G36*
G01*
X-25367000Y4503000D02*
X-24417000Y4503000D01*
G75*
G02*
X-24167000Y4253000I0J-250000D01*
G01*
X-24167000Y3753000D01*
G75*
G02*
X-24417000Y3503000I-250000J0D01*
G01*
X-25367000Y3503000D01*
G75*
G02*
X-25617000Y3753000I0J250000D01*
G01*
X-25617000Y4253000D01*
G75*
G02*
X-25367000Y4503000I250000J0D01*
G01*
G37*
G04 #@! TD.AperFunction*
G04 #@! TD*
G04 #@! TO.P,C11,2*
G04 #@! TO.N,+5V*
G04 #@! TA.AperFunction,SMDPad,CuDef*
G36*
G01*
X-24544000Y22421000D02*
X-25494000Y22421000D01*
G75*
G02*
X-25744000Y22671000I0J250000D01*
G01*
X-25744000Y23171000D01*
G75*
G02*
X-25494000Y23421000I250000J0D01*
G01*
X-24544000Y23421000D01*
G75*
G02*
X-24294000Y23171000I0J-250000D01*
G01*
X-24294000Y22671000D01*
G75*
G02*
X-24544000Y22421000I-250000J0D01*
G01*
G37*
G04 #@! TD.AperFunction*
G04 #@! TO.P,C11,1*
G04 #@! TO.N,GND*
G04 #@! TA.AperFunction,SMDPad,CuDef*
G36*
G01*
X-24544000Y20521000D02*
X-25494000Y20521000D01*
G75*
G02*
X-25744000Y20771000I0J250000D01*
G01*
X-25744000Y21271000D01*
G75*
G02*
X-25494000Y21521000I250000J0D01*
G01*
X-24544000Y21521000D01*
G75*
G02*
X-24294000Y21271000I0J-250000D01*
G01*
X-24294000Y20771000D01*
G75*
G02*
X-24544000Y20521000I-250000J0D01*
G01*
G37*
G04 #@! TD.AperFunction*
G04 #@! TD*
G04 #@! TO.P,C10,2*
G04 #@! TO.N,+5V*
G04 #@! TA.AperFunction,SMDPad,CuDef*
G36*
G01*
X-5657000Y23335000D02*
X-5657000Y22385000D01*
G75*
G02*
X-5907000Y22135000I-250000J0D01*
G01*
X-6407000Y22135000D01*
G75*
G02*
X-6657000Y22385000I0J250000D01*
G01*
X-6657000Y23335000D01*
G75*
G02*
X-6407000Y23585000I250000J0D01*
G01*
X-5907000Y23585000D01*
G75*
G02*
X-5657000Y23335000I0J-250000D01*
G01*
G37*
G04 #@! TD.AperFunction*
G04 #@! TO.P,C10,1*
G04 #@! TO.N,GND*
G04 #@! TA.AperFunction,SMDPad,CuDef*
G36*
G01*
X-3757000Y23335000D02*
X-3757000Y22385000D01*
G75*
G02*
X-4007000Y22135000I-250000J0D01*
G01*
X-4507000Y22135000D01*
G75*
G02*
X-4757000Y22385000I0J250000D01*
G01*
X-4757000Y23335000D01*
G75*
G02*
X-4507000Y23585000I250000J0D01*
G01*
X-4007000Y23585000D01*
G75*
G02*
X-3757000Y23335000I0J-250000D01*
G01*
G37*
G04 #@! TD.AperFunction*
G04 #@! TD*
D13*
G04 #@! TO.P,U2,32*
G04 #@! TO.N,+5V*
X-40993750Y20726750D03*
G04 #@! TO.P,U2,31*
X-40993750Y21526750D03*
G04 #@! TO.P,U2,30*
G04 #@! TO.N,D-*
X-40993750Y22326750D03*
G04 #@! TO.P,U2,29*
G04 #@! TO.N,D+*
X-40993750Y23126750D03*
G04 #@! TO.P,U2,28*
G04 #@! TO.N,GND*
X-40993750Y23926750D03*
G04 #@! TO.P,U2,27*
G04 #@! TO.N,Net-(C6-Pad1)*
X-40993750Y24726750D03*
G04 #@! TO.P,U2,26*
G04 #@! TO.N,Net-(U2-Pad26)*
X-40993750Y25526750D03*
G04 #@! TO.P,U2,25*
G04 #@! TO.N,Net-(U2-Pad25)*
X-40993750Y26326750D03*
D14*
G04 #@! TO.P,U2,24*
G04 #@! TO.N,RESET*
X-42443750Y27776750D03*
G04 #@! TO.P,U2,23*
G04 #@! TO.N,Net-(U2-Pad23)*
X-43243750Y27776750D03*
G04 #@! TO.P,U2,22*
G04 #@! TO.N,Net-(U2-Pad22)*
X-44043750Y27776750D03*
G04 #@! TO.P,U2,21*
G04 #@! TO.N,Net-(U2-Pad21)*
X-44843750Y27776750D03*
G04 #@! TO.P,U2,20*
G04 #@! TO.N,Net-(U2-Pad20)*
X-45643750Y27776750D03*
G04 #@! TO.P,U2,19*
G04 #@! TO.N,Net-(U2-Pad19)*
X-46443750Y27776750D03*
G04 #@! TO.P,U2,18*
G04 #@! TO.N,Net-(U2-Pad18)*
X-47243750Y27776750D03*
G04 #@! TO.P,U2,17*
G04 #@! TO.N,MISO*
X-48043750Y27776750D03*
D13*
G04 #@! TO.P,U2,16*
G04 #@! TO.N,ENCA*
X-49493750Y26326750D03*
G04 #@! TO.P,U2,15*
G04 #@! TO.N,ENCB*
X-49493750Y25526750D03*
G04 #@! TO.P,U2,14*
G04 #@! TO.N,Net-(U2-Pad14)*
X-49493750Y24726750D03*
G04 #@! TO.P,U2,13*
G04 #@! TO.N,Net-(R6-Pad2)*
X-49493750Y23926750D03*
G04 #@! TO.P,U2,12*
G04 #@! TO.N,RGBLED*
X-49493750Y23126750D03*
G04 #@! TO.P,U2,11*
G04 #@! TO.N,COL4*
X-49493750Y22326750D03*
G04 #@! TO.P,U2,10*
G04 #@! TO.N,ROW0*
X-49493750Y21526750D03*
G04 #@! TO.P,U2,9*
G04 #@! TO.N,COL2*
X-49493750Y20726750D03*
D14*
G04 #@! TO.P,U2,8*
G04 #@! TO.N,COL3*
X-48043750Y19276750D03*
G04 #@! TO.P,U2,7*
G04 #@! TO.N,COL1*
X-47243750Y19276750D03*
G04 #@! TO.P,U2,6*
G04 #@! TO.N,COL0*
X-46443750Y19276750D03*
G04 #@! TO.P,U2,5*
G04 #@! TO.N,Net-(U2-Pad5)*
X-45643750Y19276750D03*
G04 #@! TO.P,U2,4*
G04 #@! TO.N,+5V*
X-44843750Y19276750D03*
G04 #@! TO.P,U2,3*
G04 #@! TO.N,GND*
X-44043750Y19276750D03*
G04 #@! TO.P,U2,2*
G04 #@! TO.N,Net-(C4-Pad1)*
X-43243750Y19276750D03*
G04 #@! TO.P,U2,1*
G04 #@! TO.N,Net-(C3-Pad1)*
X-42443750Y19276750D03*
G04 #@! TD*
D15*
G04 #@! TO.P,U1,1*
G04 #@! TO.N,GND*
X-37608000Y31484000D03*
D16*
G04 #@! TO.P,U1,4*
G04 #@! TO.N,VCC*
X-39608000Y31684000D03*
G04 #@! TO.P,U1,2*
G04 #@! TO.N,Net-(R5-Pad1)*
X-37608000Y29784000D03*
G04 #@! TO.P,U1,3*
G04 #@! TO.N,Net-(R4-Pad2)*
X-39608000Y29784000D03*
G04 #@! TD*
G04 #@! TO.P,C6,2*
G04 #@! TO.N,GND*
G04 #@! TA.AperFunction,SMDPad,CuDef*
G36*
G01*
X-41054000Y31057000D02*
X-42004000Y31057000D01*
G75*
G02*
X-42254000Y31307000I0J250000D01*
G01*
X-42254000Y31807000D01*
G75*
G02*
X-42004000Y32057000I250000J0D01*
G01*
X-41054000Y32057000D01*
G75*
G02*
X-40804000Y31807000I0J-250000D01*
G01*
X-40804000Y31307000D01*
G75*
G02*
X-41054000Y31057000I-250000J0D01*
G01*
G37*
G04 #@! TD.AperFunction*
G04 #@! TO.P,C6,1*
G04 #@! TO.N,Net-(C6-Pad1)*
G04 #@! TA.AperFunction,SMDPad,CuDef*
G36*
G01*
X-41054000Y29157000D02*
X-42004000Y29157000D01*
G75*
G02*
X-42254000Y29407000I0J250000D01*
G01*
X-42254000Y29907000D01*
G75*
G02*
X-42004000Y30157000I250000J0D01*
G01*
X-41054000Y30157000D01*
G75*
G02*
X-40804000Y29907000I0J-250000D01*
G01*
X-40804000Y29407000D01*
G75*
G02*
X-41054000Y29157000I-250000J0D01*
G01*
G37*
G04 #@! TD.AperFunction*
G04 #@! TD*
G04 #@! TO.P,C5,2*
G04 #@! TO.N,GND*
G04 #@! TA.AperFunction,SMDPad,CuDef*
G36*
G01*
X-35053250Y20357250D02*
X-36003250Y20357250D01*
G75*
G02*
X-36253250Y20607250I0J250000D01*
G01*
X-36253250Y21107250D01*
G75*
G02*
X-36003250Y21357250I250000J0D01*
G01*
X-35053250Y21357250D01*
G75*
G02*
X-34803250Y21107250I0J-250000D01*
G01*
X-34803250Y20607250D01*
G75*
G02*
X-35053250Y20357250I-250000J0D01*
G01*
G37*
G04 #@! TD.AperFunction*
G04 #@! TO.P,C5,1*
G04 #@! TO.N,+5V*
G04 #@! TA.AperFunction,SMDPad,CuDef*
G36*
G01*
X-35053250Y18457250D02*
X-36003250Y18457250D01*
G75*
G02*
X-36253250Y18707250I0J250000D01*
G01*
X-36253250Y19207250D01*
G75*
G02*
X-36003250Y19457250I250000J0D01*
G01*
X-35053250Y19457250D01*
G75*
G02*
X-34803250Y19207250I0J-250000D01*
G01*
X-34803250Y18707250D01*
G75*
G02*
X-35053250Y18457250I-250000J0D01*
G01*
G37*
G04 #@! TD.AperFunction*
G04 #@! TD*
G04 #@! TO.P,C1,2*
G04 #@! TO.N,GND*
G04 #@! TA.AperFunction,SMDPad,CuDef*
G36*
G01*
X-37021750Y20357250D02*
X-37971750Y20357250D01*
G75*
G02*
X-38221750Y20607250I0J250000D01*
G01*
X-38221750Y21107250D01*
G75*
G02*
X-37971750Y21357250I250000J0D01*
G01*
X-37021750Y21357250D01*
G75*
G02*
X-36771750Y21107250I0J-250000D01*
G01*
X-36771750Y20607250D01*
G75*
G02*
X-37021750Y20357250I-250000J0D01*
G01*
G37*
G04 #@! TD.AperFunction*
G04 #@! TO.P,C1,1*
G04 #@! TO.N,+5V*
G04 #@! TA.AperFunction,SMDPad,CuDef*
G36*
G01*
X-37021750Y18457250D02*
X-37971750Y18457250D01*
G75*
G02*
X-38221750Y18707250I0J250000D01*
G01*
X-38221750Y19207250D01*
G75*
G02*
X-37971750Y19457250I250000J0D01*
G01*
X-37021750Y19457250D01*
G75*
G02*
X-36771750Y19207250I0J-250000D01*
G01*
X-36771750Y18707250D01*
G75*
G02*
X-37021750Y18457250I-250000J0D01*
G01*
G37*
G04 #@! TD.AperFunction*
G04 #@! TD*
D12*
G04 #@! TO.P,MX4,2*
G04 #@! TO.N,ROW0*
X-7778750Y15398750D03*
G04 #@! TO.P,MX4,1*
G04 #@! TO.N,COL3*
X-14128750Y12858750D03*
G04 #@! TD*
G04 #@! TO.P,MX3,2*
G04 #@! TO.N,ROW0*
X-7778750Y34448750D03*
G04 #@! TO.P,MX3,1*
G04 #@! TO.N,COL2*
X-14128750Y31908750D03*
G04 #@! TD*
G04 #@! TO.P,MX1,2*
G04 #@! TO.N,ROW0*
X-26828750Y34448750D03*
G04 #@! TO.P,MX1,1*
G04 #@! TO.N,COL0*
X-33178750Y31908750D03*
G04 #@! TD*
G04 #@! TO.P,R4,2*
G04 #@! TO.N,Net-(R4-Pad2)*
G04 #@! TA.AperFunction,SMDPad,CuDef*
G36*
G01*
X-38538998Y27832000D02*
X-39439002Y27832000D01*
G75*
G02*
X-39689000Y28081998I0J249998D01*
G01*
X-39689000Y28607002D01*
G75*
G02*
X-39439002Y28857000I249998J0D01*
G01*
X-38538998Y28857000D01*
G75*
G02*
X-38289000Y28607002I0J-249998D01*
G01*
X-38289000Y28081998D01*
G75*
G02*
X-38538998Y27832000I-249998J0D01*
G01*
G37*
G04 #@! TD.AperFunction*
G04 #@! TO.P,R4,1*
G04 #@! TO.N,D-*
G04 #@! TA.AperFunction,SMDPad,CuDef*
G36*
G01*
X-38538998Y26007000D02*
X-39439002Y26007000D01*
G75*
G02*
X-39689000Y26256998I0J249998D01*
G01*
X-39689000Y26782002D01*
G75*
G02*
X-39439002Y27032000I249998J0D01*
G01*
X-38538998Y27032000D01*
G75*
G02*
X-38289000Y26782002I0J-249998D01*
G01*
X-38289000Y26256998D01*
G75*
G02*
X-38538998Y26007000I-249998J0D01*
G01*
G37*
G04 #@! TD.AperFunction*
G04 #@! TD*
D17*
G04 #@! TO.P,USB1,12*
G04 #@! TO.N,GND*
X-35668750Y34373750D03*
G04 #@! TO.P,USB1,1*
X-42118750Y34373750D03*
G04 #@! TO.P,USB1,11*
G04 #@! TO.N,VCC*
X-36443750Y34373750D03*
G04 #@! TO.P,USB1,2*
X-41343750Y34373750D03*
D18*
G04 #@! TO.P,USB1,3*
G04 #@! TO.N,Net-(USB1-Pad3)*
X-40643750Y34373750D03*
G04 #@! TO.P,USB1,10*
G04 #@! TO.N,Net-(R1-Pad1)*
X-37143750Y34373750D03*
G04 #@! TO.P,USB1,4*
G04 #@! TO.N,Net-(R2-Pad1)*
X-40143750Y34373750D03*
G04 #@! TO.P,USB1,9*
G04 #@! TO.N,Net-(USB1-Pad9)*
X-37643750Y34373750D03*
G04 #@! TO.P,USB1,5*
G04 #@! TO.N,Net-(R4-Pad2)*
X-39643750Y34373750D03*
G04 #@! TO.P,USB1,8*
G04 #@! TO.N,Net-(R5-Pad1)*
X-38143750Y34373750D03*
G04 #@! TO.P,USB1,7*
G04 #@! TO.N,Net-(R4-Pad2)*
X-38643750Y34373750D03*
G04 #@! TO.P,USB1,6*
G04 #@! TO.N,Net-(R5-Pad1)*
X-39143750Y34373750D03*
D19*
G04 #@! TO.P,USB1,13*
G04 #@! TO.N,GND*
X-43213750Y35288750D03*
X-34573750Y35288750D03*
D20*
X-43213750Y39468750D03*
X-34573750Y39468750D03*
G04 #@! TD*
G04 #@! TO.P,R5,2*
G04 #@! TO.N,D+*
G04 #@! TA.AperFunction,SMDPad,CuDef*
G36*
G01*
X-37534002Y27032000D02*
X-36633998Y27032000D01*
G75*
G02*
X-36384000Y26782002I0J-249998D01*
G01*
X-36384000Y26256998D01*
G75*
G02*
X-36633998Y26007000I-249998J0D01*
G01*
X-37534002Y26007000D01*
G75*
G02*
X-37784000Y26256998I0J249998D01*
G01*
X-37784000Y26782002D01*
G75*
G02*
X-37534002Y27032000I249998J0D01*
G01*
G37*
G04 #@! TD.AperFunction*
G04 #@! TO.P,R5,1*
G04 #@! TO.N,Net-(R5-Pad1)*
G04 #@! TA.AperFunction,SMDPad,CuDef*
G36*
G01*
X-37534002Y28857000D02*
X-36633998Y28857000D01*
G75*
G02*
X-36384000Y28607002I0J-249998D01*
G01*
X-36384000Y28081998D01*
G75*
G02*
X-36633998Y27832000I-249998J0D01*
G01*
X-37534002Y27832000D01*
G75*
G02*
X-37784000Y28081998I0J249998D01*
G01*
X-37784000Y28607002D01*
G75*
G02*
X-37534002Y28857000I249998J0D01*
G01*
G37*
G04 #@! TD.AperFunction*
G04 #@! TD*
D21*
G04 #@! TO.P,SW2,A*
G04 #@! TO.N,ENCA*
X-55443750Y27343750D03*
D22*
G04 #@! TO.P,SW2,C*
G04 #@! TO.N,GND*
X-57943750Y27343750D03*
G04 #@! TO.P,SW2,B*
G04 #@! TO.N,ENCB*
X-60443750Y27343750D03*
D23*
G04 #@! TO.P,SW2,*
G04 #@! TO.N,*
X-52343750Y19843750D03*
X-63543750Y19843750D03*
D22*
G04 #@! TO.P,SW2,S2*
G04 #@! TO.N,ROW0*
X-55443750Y12843750D03*
G04 #@! TO.P,SW2,S1*
G04 #@! TO.N,COL4*
X-60443750Y12843750D03*
G04 #@! TD*
D24*
G04 #@! TO.P,J1,6*
G04 #@! TO.N,GND*
X-57943750Y35464750D03*
D25*
G04 #@! TO.P,J1,5*
G04 #@! TO.N,RESET*
X-55403750Y35464750D03*
G04 #@! TO.P,J1,4*
G04 #@! TO.N,ENCA*
X-57943750Y32924750D03*
G04 #@! TO.P,J1,3*
G04 #@! TO.N,ENCB*
X-55403750Y32924750D03*
G04 #@! TO.P,J1,2*
G04 #@! TO.N,+5V*
X-57943750Y30384750D03*
G04 #@! TO.P,J1,1*
G04 #@! TO.N,MISO*
X-55403750Y30384750D03*
G04 #@! TD*
G04 #@! TO.P,C9,2*
G04 #@! TO.N,+5V*
G04 #@! TA.AperFunction,SMDPad,CuDef*
G36*
G01*
X-22446000Y18854000D02*
X-21496000Y18854000D01*
G75*
G02*
X-21246000Y18604000I0J-250000D01*
G01*
X-21246000Y18104000D01*
G75*
G02*
X-21496000Y17854000I-250000J0D01*
G01*
X-22446000Y17854000D01*
G75*
G02*
X-22696000Y18104000I0J250000D01*
G01*
X-22696000Y18604000D01*
G75*
G02*
X-22446000Y18854000I250000J0D01*
G01*
G37*
G04 #@! TD.AperFunction*
G04 #@! TO.P,C9,1*
G04 #@! TO.N,GND*
G04 #@! TA.AperFunction,SMDPad,CuDef*
G36*
G01*
X-22446000Y20754000D02*
X-21496000Y20754000D01*
G75*
G02*
X-21246000Y20504000I0J-250000D01*
G01*
X-21246000Y20004000D01*
G75*
G02*
X-21496000Y19754000I-250000J0D01*
G01*
X-22446000Y19754000D01*
G75*
G02*
X-22696000Y20004000I0J250000D01*
G01*
X-22696000Y20504000D01*
G75*
G02*
X-22446000Y20754000I250000J0D01*
G01*
G37*
G04 #@! TD.AperFunction*
G04 #@! TD*
G04 #@! TO.P,C8,2*
G04 #@! TO.N,+5V*
G04 #@! TA.AperFunction,SMDPad,CuDef*
G36*
G01*
X-44006750Y5752250D02*
X-44956750Y5752250D01*
G75*
G02*
X-45206750Y6002250I0J250000D01*
G01*
X-45206750Y6502250D01*
G75*
G02*
X-44956750Y6752250I250000J0D01*
G01*
X-44006750Y6752250D01*
G75*
G02*
X-43756750Y6502250I0J-250000D01*
G01*
X-43756750Y6002250D01*
G75*
G02*
X-44006750Y5752250I-250000J0D01*
G01*
G37*
G04 #@! TD.AperFunction*
G04 #@! TO.P,C8,1*
G04 #@! TO.N,GND*
G04 #@! TA.AperFunction,SMDPad,CuDef*
G36*
G01*
X-44006750Y3852250D02*
X-44956750Y3852250D01*
G75*
G02*
X-45206750Y4102250I0J250000D01*
G01*
X-45206750Y4602250D01*
G75*
G02*
X-44956750Y4852250I250000J0D01*
G01*
X-44006750Y4852250D01*
G75*
G02*
X-43756750Y4602250I0J-250000D01*
G01*
X-43756750Y4102250D01*
G75*
G02*
X-44006750Y3852250I-250000J0D01*
G01*
G37*
G04 #@! TD.AperFunction*
G04 #@! TD*
G04 #@! TO.P,C7,2*
G04 #@! TO.N,+5V*
G04 #@! TA.AperFunction,SMDPad,CuDef*
G36*
G01*
X-71919250Y27367250D02*
X-71919250Y26417250D01*
G75*
G02*
X-72169250Y26167250I-250000J0D01*
G01*
X-72669250Y26167250D01*
G75*
G02*
X-72919250Y26417250I0J250000D01*
G01*
X-72919250Y27367250D01*
G75*
G02*
X-72669250Y27617250I250000J0D01*
G01*
X-72169250Y27617250D01*
G75*
G02*
X-71919250Y27367250I0J-250000D01*
G01*
G37*
G04 #@! TD.AperFunction*
G04 #@! TO.P,C7,1*
G04 #@! TO.N,GND*
G04 #@! TA.AperFunction,SMDPad,CuDef*
G36*
G01*
X-70019250Y27367250D02*
X-70019250Y26417250D01*
G75*
G02*
X-70269250Y26167250I-250000J0D01*
G01*
X-70769250Y26167250D01*
G75*
G02*
X-71019250Y26417250I0J250000D01*
G01*
X-71019250Y27367250D01*
G75*
G02*
X-70769250Y27617250I250000J0D01*
G01*
X-70269250Y27617250D01*
G75*
G02*
X-70019250Y27367250I0J-250000D01*
G01*
G37*
G04 #@! TD.AperFunction*
G04 #@! TD*
G04 #@! TA.AperFunction,SMDPad,CuDef*
D26*
G04 #@! TO.P,Y1,4*
G04 #@! TO.N,GND*
G36*
X-42728289Y16667239D02*
G01*
X-41879761Y15818711D01*
X-42869711Y14828761D01*
X-43718239Y15677289D01*
X-42728289Y16667239D01*
G37*
G04 #@! TD.AperFunction*
G04 #@! TA.AperFunction,SMDPad,CuDef*
G04 #@! TO.P,Y1,3*
G04 #@! TO.N,Net-(C4-Pad1)*
G36*
X-44283924Y15111604D02*
G01*
X-43435396Y14263076D01*
X-44425346Y13273126D01*
X-45273874Y14121654D01*
X-44283924Y15111604D01*
G37*
G04 #@! TD.AperFunction*
G04 #@! TA.AperFunction,SMDPad,CuDef*
G04 #@! TO.P,Y1,2*
G04 #@! TO.N,GND*
G36*
X-43081843Y13909523D02*
G01*
X-42233315Y13060995D01*
X-43223265Y12071045D01*
X-44071793Y12919573D01*
X-43081843Y13909523D01*
G37*
G04 #@! TD.AperFunction*
G04 #@! TA.AperFunction,SMDPad,CuDef*
G04 #@! TO.P,Y1,1*
G04 #@! TO.N,Net-(C3-Pad1)*
G36*
X-41526208Y15465158D02*
G01*
X-40677680Y14616630D01*
X-41667630Y13626680D01*
X-42516158Y14475208D01*
X-41526208Y15465158D01*
G37*
G04 #@! TD.AperFunction*
G04 #@! TD*
D27*
G04 #@! TO.P,SW1,4*
G04 #@! TO.N,N/C*
X-70378250Y34203250D03*
G04 #@! TO.P,SW1,3*
X-64178250Y30503250D03*
G04 #@! TO.P,SW1,2*
G04 #@! TO.N,RESET*
X-70378250Y30503250D03*
G04 #@! TO.P,SW1,1*
G04 #@! TO.N,GND*
X-64178250Y34203250D03*
G04 #@! TD*
G04 #@! TO.P,R6,2*
G04 #@! TO.N,Net-(R6-Pad2)*
G04 #@! TA.AperFunction,SMDPad,CuDef*
G36*
G01*
X-68910250Y23648248D02*
X-68910250Y24548252D01*
G75*
G02*
X-68660252Y24798250I249998J0D01*
G01*
X-68135248Y24798250D01*
G75*
G02*
X-67885250Y24548252I0J-249998D01*
G01*
X-67885250Y23648248D01*
G75*
G02*
X-68135248Y23398250I-249998J0D01*
G01*
X-68660252Y23398250D01*
G75*
G02*
X-68910250Y23648248I0J249998D01*
G01*
G37*
G04 #@! TD.AperFunction*
G04 #@! TO.P,R6,1*
G04 #@! TO.N,GND*
G04 #@! TA.AperFunction,SMDPad,CuDef*
G36*
G01*
X-70735250Y23648248D02*
X-70735250Y24548252D01*
G75*
G02*
X-70485252Y24798250I249998J0D01*
G01*
X-69960248Y24798250D01*
G75*
G02*
X-69710250Y24548252I0J-249998D01*
G01*
X-69710250Y23648248D01*
G75*
G02*
X-69960248Y23398250I-249998J0D01*
G01*
X-70485252Y23398250D01*
G75*
G02*
X-70735250Y23648248I0J249998D01*
G01*
G37*
G04 #@! TD.AperFunction*
G04 #@! TD*
G04 #@! TO.P,R3,2*
G04 #@! TO.N,+5V*
G04 #@! TA.AperFunction,SMDPad,CuDef*
G36*
G01*
X-73475002Y29540250D02*
X-72574998Y29540250D01*
G75*
G02*
X-72325000Y29290252I0J-249998D01*
G01*
X-72325000Y28765248D01*
G75*
G02*
X-72574998Y28515250I-249998J0D01*
G01*
X-73475002Y28515250D01*
G75*
G02*
X-73725000Y28765248I0J249998D01*
G01*
X-73725000Y29290252D01*
G75*
G02*
X-73475002Y29540250I249998J0D01*
G01*
G37*
G04 #@! TD.AperFunction*
G04 #@! TO.P,R3,1*
G04 #@! TO.N,RESET*
G04 #@! TA.AperFunction,SMDPad,CuDef*
G36*
G01*
X-73475002Y31365250D02*
X-72574998Y31365250D01*
G75*
G02*
X-72325000Y31115252I0J-249998D01*
G01*
X-72325000Y30590248D01*
G75*
G02*
X-72574998Y30340250I-249998J0D01*
G01*
X-73475002Y30340250D01*
G75*
G02*
X-73725000Y30590248I0J249998D01*
G01*
X-73725000Y31115252D01*
G75*
G02*
X-73475002Y31365250I249998J0D01*
G01*
G37*
G04 #@! TD.AperFunction*
G04 #@! TD*
G04 #@! TO.P,R2,2*
G04 #@! TO.N,GND*
G04 #@! TA.AperFunction,SMDPad,CuDef*
G36*
G01*
X-47009000Y36772002D02*
X-47009000Y35871998D01*
G75*
G02*
X-47258998Y35622000I-249998J0D01*
G01*
X-47784002Y35622000D01*
G75*
G02*
X-48034000Y35871998I0J249998D01*
G01*
X-48034000Y36772002D01*
G75*
G02*
X-47784002Y37022000I249998J0D01*
G01*
X-47258998Y37022000D01*
G75*
G02*
X-47009000Y36772002I0J-249998D01*
G01*
G37*
G04 #@! TD.AperFunction*
G04 #@! TO.P,R2,1*
G04 #@! TO.N,Net-(R2-Pad1)*
G04 #@! TA.AperFunction,SMDPad,CuDef*
G36*
G01*
X-45184000Y36772002D02*
X-45184000Y35871998D01*
G75*
G02*
X-45433998Y35622000I-249998J0D01*
G01*
X-45959002Y35622000D01*
G75*
G02*
X-46209000Y35871998I0J249998D01*
G01*
X-46209000Y36772002D01*
G75*
G02*
X-45959002Y37022000I249998J0D01*
G01*
X-45433998Y37022000D01*
G75*
G02*
X-45184000Y36772002I0J-249998D01*
G01*
G37*
G04 #@! TD.AperFunction*
G04 #@! TD*
G04 #@! TO.P,R1,2*
G04 #@! TO.N,GND*
G04 #@! TA.AperFunction,SMDPad,CuDef*
G36*
G01*
X-31141248Y35737750D02*
X-32041252Y35737750D01*
G75*
G02*
X-32291250Y35987748I0J249998D01*
G01*
X-32291250Y36512752D01*
G75*
G02*
X-32041252Y36762750I249998J0D01*
G01*
X-31141248Y36762750D01*
G75*
G02*
X-30891250Y36512752I0J-249998D01*
G01*
X-30891250Y35987748D01*
G75*
G02*
X-31141248Y35737750I-249998J0D01*
G01*
G37*
G04 #@! TD.AperFunction*
G04 #@! TO.P,R1,1*
G04 #@! TO.N,Net-(R1-Pad1)*
G04 #@! TA.AperFunction,SMDPad,CuDef*
G36*
G01*
X-31141248Y33912750D02*
X-32041252Y33912750D01*
G75*
G02*
X-32291250Y34162748I0J249998D01*
G01*
X-32291250Y34687752D01*
G75*
G02*
X-32041252Y34937750I249998J0D01*
G01*
X-31141248Y34937750D01*
G75*
G02*
X-30891250Y34687752I0J-249998D01*
G01*
X-30891250Y34162748D01*
G75*
G02*
X-31141248Y33912750I-249998J0D01*
G01*
G37*
G04 #@! TD.AperFunction*
G04 #@! TD*
G04 #@! TO.P,F1,2*
G04 #@! TO.N,VCC*
G04 #@! TA.AperFunction,SMDPad,CuDef*
G36*
G01*
X-45834000Y32903000D02*
X-45834000Y34153000D01*
G75*
G02*
X-45584000Y34403000I250000J0D01*
G01*
X-44834000Y34403000D01*
G75*
G02*
X-44584000Y34153000I0J-250000D01*
G01*
X-44584000Y32903000D01*
G75*
G02*
X-44834000Y32653000I-250000J0D01*
G01*
X-45584000Y32653000D01*
G75*
G02*
X-45834000Y32903000I0J250000D01*
G01*
G37*
G04 #@! TD.AperFunction*
G04 #@! TO.P,F1,1*
G04 #@! TO.N,+5V*
G04 #@! TA.AperFunction,SMDPad,CuDef*
G36*
G01*
X-48634000Y32903000D02*
X-48634000Y34153000D01*
G75*
G02*
X-48384000Y34403000I250000J0D01*
G01*
X-47634000Y34403000D01*
G75*
G02*
X-47384000Y34153000I0J-250000D01*
G01*
X-47384000Y32903000D01*
G75*
G02*
X-47634000Y32653000I-250000J0D01*
G01*
X-48384000Y32653000D01*
G75*
G02*
X-48634000Y32903000I0J250000D01*
G01*
G37*
G04 #@! TD.AperFunction*
G04 #@! TD*
D10*
G04 #@! TO.P,D3,1*
G04 #@! TO.N,+5V*
X-19912500Y18243750D03*
G04 #@! TO.P,D3,2*
G04 #@! TO.N,Net-(D3-Pad2)*
X-19912500Y21443750D03*
G04 #@! TO.P,D3,4*
G04 #@! TO.N,Net-(D2-Pad2)*
X-15012500Y18243750D03*
G04 #@! TO.P,D3,3*
G04 #@! TO.N,GND*
X-15012500Y21443750D03*
G04 #@! TD*
G04 #@! TO.P,D1,1*
G04 #@! TO.N,+5V*
X-73601750Y18243750D03*
G04 #@! TO.P,D1,2*
G04 #@! TO.N,Net-(D1-Pad2)*
X-73601750Y21443750D03*
G04 #@! TO.P,D1,4*
G04 #@! TO.N,RGBLED*
X-68701750Y18243750D03*
G04 #@! TO.P,D1,3*
G04 #@! TO.N,GND*
X-68701750Y21443750D03*
G04 #@! TD*
G04 #@! TO.P,C4,2*
G04 #@! TO.N,GND*
G04 #@! TA.AperFunction,SMDPad,CuDef*
G36*
G01*
X-45610678Y11156927D02*
X-44938927Y11828678D01*
G75*
G02*
X-44585373Y11828678I176777J-176777D01*
G01*
X-44231820Y11475125D01*
G75*
G02*
X-44231820Y11121571I-176777J-176777D01*
G01*
X-44903571Y10449820D01*
G75*
G02*
X-45257125Y10449820I-176777J176777D01*
G01*
X-45610678Y10803373D01*
G75*
G02*
X-45610678Y11156927I176777J176777D01*
G01*
G37*
G04 #@! TD.AperFunction*
G04 #@! TO.P,C4,1*
G04 #@! TO.N,Net-(C4-Pad1)*
G04 #@! TA.AperFunction,SMDPad,CuDef*
G36*
G01*
X-46954180Y12500429D02*
X-46282429Y13172180D01*
G75*
G02*
X-45928875Y13172180I176777J-176777D01*
G01*
X-45575322Y12818627D01*
G75*
G02*
X-45575322Y12465073I-176777J-176777D01*
G01*
X-46247073Y11793322D01*
G75*
G02*
X-46600627Y11793322I-176777J176777D01*
G01*
X-46954180Y12146875D01*
G75*
G02*
X-46954180Y12500429I176777J176777D01*
G01*
G37*
G04 #@! TD.AperFunction*
G04 #@! TD*
G04 #@! TO.P,C3,2*
G04 #@! TO.N,GND*
G04 #@! TA.AperFunction,SMDPad,CuDef*
G36*
G01*
X-41511322Y12373429D02*
X-40839571Y11701678D01*
G75*
G02*
X-40839571Y11348124I-176777J-176777D01*
G01*
X-41193124Y10994571D01*
G75*
G02*
X-41546678Y10994571I-176777J176777D01*
G01*
X-42218429Y11666322D01*
G75*
G02*
X-42218429Y12019876I176777J176777D01*
G01*
X-41864876Y12373429D01*
G75*
G02*
X-41511322Y12373429I176777J-176777D01*
G01*
G37*
G04 #@! TD.AperFunction*
G04 #@! TO.P,C3,1*
G04 #@! TO.N,Net-(C3-Pad1)*
G04 #@! TA.AperFunction,SMDPad,CuDef*
G36*
G01*
X-40167820Y13716931D02*
X-39496069Y13045180D01*
G75*
G02*
X-39496069Y12691626I-176777J-176777D01*
G01*
X-39849622Y12338073D01*
G75*
G02*
X-40203176Y12338073I-176777J176777D01*
G01*
X-40874927Y13009824D01*
G75*
G02*
X-40874927Y13363378I176777J176777D01*
G01*
X-40521374Y13716931D01*
G75*
G02*
X-40167820Y13716931I176777J-176777D01*
G01*
G37*
G04 #@! TD.AperFunction*
G04 #@! TD*
G04 #@! TO.P,C2,2*
G04 #@! TO.N,GND*
G04 #@! TA.AperFunction,SMDPad,CuDef*
G36*
G01*
X-49528750Y14313750D02*
X-48578750Y14313750D01*
G75*
G02*
X-48328750Y14063750I0J-250000D01*
G01*
X-48328750Y13563750D01*
G75*
G02*
X-48578750Y13313750I-250000J0D01*
G01*
X-49528750Y13313750D01*
G75*
G02*
X-49778750Y13563750I0J250000D01*
G01*
X-49778750Y14063750D01*
G75*
G02*
X-49528750Y14313750I250000J0D01*
G01*
G37*
G04 #@! TD.AperFunction*
G04 #@! TO.P,C2,1*
G04 #@! TO.N,+5V*
G04 #@! TA.AperFunction,SMDPad,CuDef*
G36*
G01*
X-49528750Y16213750D02*
X-48578750Y16213750D01*
G75*
G02*
X-48328750Y15963750I0J-250000D01*
G01*
X-48328750Y15463750D01*
G75*
G02*
X-48578750Y15213750I-250000J0D01*
G01*
X-49528750Y15213750D01*
G75*
G02*
X-49778750Y15463750I0J250000D01*
G01*
X-49778750Y15963750D01*
G75*
G02*
X-49528750Y16213750I250000J0D01*
G01*
G37*
G04 #@! TD.AperFunction*
G04 #@! TD*
D28*
G04 #@! TO.N,GND*
X-64166750Y36681250D03*
X-68357750Y28733750D03*
X-34067750Y18954750D03*
X-45878750Y4730750D03*
X-52705000Y36681250D03*
X-48514000Y36322000D03*
X-34829750Y33940750D03*
X-34843011Y31455026D03*
X-39497000Y24003000D03*
X-37465000Y21844000D03*
X-47498000Y10795000D03*
X-43815000Y23495000D03*
X-21971000Y21717000D03*
X-14986000Y20066000D03*
X-25019000Y19812000D03*
X-32004000Y24765000D03*
X-6251500Y20066000D03*
X-12192000Y12700000D03*
X-5715000Y13081000D03*
X-38100000Y5080000D03*
X-33020000Y5842000D03*
X-3006250Y20097750D03*
G04 #@! TO.N,+5V*
X-32607250Y20923250D03*
X-54514750Y22129750D03*
X-71659750Y22129750D03*
X-39624000Y20193000D03*
X-45593000Y17876748D03*
X-54483000Y18161000D03*
X-48006000Y32131000D03*
X-21971000Y17145000D03*
X-30988000Y17145000D03*
X-26162000Y17780000D03*
X-5461000Y17145000D03*
X-21336000Y4353000D03*
X-23495000Y4318000D03*
X-42894250Y3475916D03*
X-35179009Y3973458D03*
G04 #@! TO.N,RGBLED*
X-51466750Y23145750D03*
X-66770250Y23145750D03*
G04 #@! TO.N,Net-(D2-Pad2)*
X-3048000Y18288000D03*
X-13589000Y18288000D03*
X-35433000Y3006250D03*
X-39370000Y3460260D03*
G04 #@! TO.N,VCC*
X-35782250Y32861250D03*
X-41306251Y33336748D03*
X-40255683Y32254683D03*
X-43675468Y31762532D03*
G04 #@! TO.N,COL0*
X-47746036Y8540038D03*
X-35306000Y9017000D03*
G04 #@! TO.N,COL1*
X-47783750Y7540747D03*
X-34335168Y8777232D03*
G04 #@! TO.N,COL2*
X-47783750Y5540741D03*
X-18319750Y7270849D03*
G04 #@! TO.N,COL3*
X-14128750Y8032750D03*
X-47783750Y6540744D03*
G04 #@! TO.N,Net-(R2-Pad1)*
X-43180000Y33528000D03*
X-44653468Y35531500D03*
G04 #@! TO.N,D-*
X-35814000Y23859000D03*
X-37721215Y23519303D03*
G04 #@! TO.N,D+*
X-35814000Y24909000D03*
X-38463679Y24261767D03*
G04 #@! TO.N,Net-(R6-Pad2)*
X-52173858Y23872750D03*
X-66960750Y24225250D03*
G04 #@! TO.N,ENCA*
X-51460490Y30569011D03*
X-50260250Y27336750D03*
G04 #@! TO.N,ENCB*
X-51466750Y25495250D03*
X-53752750Y32924750D03*
X-51914500Y32893000D03*
G04 #@! TO.N,COL4*
X-53721000Y14351000D03*
G04 #@! TO.N,Net-(C6-Pad1)*
X-39652644Y24992509D03*
X-41529000Y28448000D03*
G04 #@! TO.N,ROW0*
X-47783750Y4540738D03*
X-52736750Y12858750D03*
X-23114000Y15494000D03*
X-22733000Y6797750D03*
X-23114000Y34290000D03*
G04 #@! TO.N,RESET*
X-53498750Y35401250D03*
X-68738750Y34067750D03*
X-48387000Y35179000D03*
G04 #@! TO.N,MISO*
X-50796989Y28194000D03*
G04 #@! TO.N,Net-(D3-Pad2)*
X-19812000Y22507500D03*
X-12827000Y21717000D03*
G04 #@! TO.N,Net-(D4-Pad2)*
X-31750000Y27781250D03*
X-7937500Y26987500D03*
G04 #@! TO.N,Net-(D5-Pad2)*
X-24003000Y12700000D03*
X-30290746Y12743260D03*
G04 #@! TO.N,Net-(D6-Pad2)*
X-13335000Y5080000D03*
X-26035000Y5080000D03*
G04 #@! TD*
D29*
G04 #@! TO.N,GND*
X-35488750Y34373750D02*
X-34573750Y35288750D01*
X-35668750Y34373750D02*
X-35488750Y34373750D01*
X-42298750Y34373750D02*
X-43213750Y35288750D01*
X-42118750Y34373750D02*
X-42298750Y34373750D01*
X-33612250Y36250250D02*
X-34573750Y35288750D01*
X-31591250Y36250250D02*
X-33612250Y36250250D01*
X-43585750Y34916750D02*
X-43213750Y35288750D01*
X-70519250Y24394750D02*
X-70222750Y24098250D01*
X-70519250Y26892250D02*
X-70519250Y24394750D01*
X-70222750Y22964750D02*
X-68701750Y21443750D01*
X-70222750Y24098250D02*
X-70222750Y22964750D01*
X-70519250Y26892250D02*
X-70519250Y27862250D01*
X-31591250Y36250250D02*
X-30771240Y36250250D01*
X-30771240Y36250250D02*
X-30130750Y36890740D01*
X-30130750Y36890740D02*
X-4766791Y36890740D01*
X-4766791Y36770791D02*
X-2796760Y34800760D01*
X-4766791Y36890740D02*
X-4766791Y36770791D01*
X-64178250Y36669750D02*
X-64166750Y36681250D01*
X-64178250Y34203250D02*
X-64178250Y36669750D01*
X-69647750Y28733750D02*
X-69701250Y28680250D01*
X-68357750Y28733750D02*
X-69647750Y28733750D01*
X-69701250Y28680250D02*
X-64178250Y34203250D01*
X-70519250Y27862250D02*
X-69701250Y28680250D01*
X-45500250Y4352250D02*
X-45878750Y4730750D01*
X-44481750Y4352250D02*
X-45500250Y4352250D01*
X-47521500Y36322000D02*
X-48514000Y36322000D01*
X-43213750Y39463250D02*
X-43213750Y35288750D01*
X-43213750Y39468750D02*
X-43213750Y39463250D01*
X-34573750Y39468750D02*
X-34573750Y35288750D01*
X-42906668Y13236170D02*
X-43152554Y12990284D01*
D30*
X-42906668Y15640332D02*
X-42906668Y13236170D01*
D29*
X-42799000Y15748000D02*
X-42906668Y15640332D01*
X-44043750Y16546111D02*
X-46776111Y13813750D01*
X-46776111Y13813750D02*
X-49053750Y13813750D01*
X-44043750Y19276750D02*
X-44043750Y16546111D01*
X-41529000Y11684000D02*
X-40146000Y11684000D01*
X-68701750Y20562750D02*
X-72627500Y16637000D01*
X-68701750Y21443750D02*
X-68701750Y20562750D01*
X-74295000Y16637000D02*
X-74536730Y16395270D01*
X-72627500Y16637000D02*
X-74295000Y16637000D01*
X-74536730Y4980467D02*
X-72807033Y3250770D01*
X-74536730Y16395270D02*
X-74536730Y4980467D01*
X-72807033Y3250770D02*
X-44450000Y3250770D01*
X-44450000Y4320500D02*
X-44481750Y4352250D01*
X-44450000Y3250770D02*
X-44450000Y4320500D01*
X-37496750Y20857250D02*
X-35528250Y20857250D01*
X-35288249Y34754251D02*
X-35668750Y34373750D01*
X-35660309Y36534251D02*
X-35288249Y36162191D01*
X-42127191Y36534251D02*
X-35660309Y36534251D01*
X-42499251Y36162191D02*
X-42127191Y36534251D01*
X-35288249Y36162191D02*
X-35288249Y34754251D01*
X-42499251Y34969751D02*
X-42499251Y36162191D01*
X-42118750Y34589250D02*
X-42499251Y34969751D01*
X-42118750Y34373750D02*
X-42118750Y34589250D01*
X-34067750Y19396750D02*
X-34067750Y18954750D01*
X-35528250Y20857250D02*
X-34067750Y19396750D01*
X-43970501Y34531999D02*
X-43213750Y35288750D01*
X-43970501Y33175501D02*
X-43970501Y34531999D01*
X-42352000Y31557000D02*
X-43970501Y33175501D01*
X-41529000Y31557000D02*
X-42352000Y31557000D01*
X-35235750Y33940750D02*
X-35668750Y34373750D01*
X-34829750Y33940750D02*
X-35235750Y33940750D01*
X-34871985Y31484000D02*
X-34843011Y31455026D01*
X-37608000Y31484000D02*
X-34871985Y31484000D01*
X-39573250Y23926750D02*
X-39497000Y24003000D01*
X-40993750Y23926750D02*
X-39573250Y23926750D01*
X-37465000Y20889000D02*
X-37496750Y20857250D01*
X-37465000Y21844000D02*
X-37465000Y20889000D01*
X-44043750Y22057750D02*
X-44043750Y19276750D01*
X-40993750Y23926750D02*
X-42174750Y23926750D01*
X-47498000Y12258000D02*
X-49053750Y13813750D01*
X-47498000Y10795000D02*
X-47498000Y12258000D01*
X-43147250Y22954250D02*
X-43274250Y22954250D01*
X-42174750Y23926750D02*
X-43147250Y22954250D01*
X-43274250Y22954250D02*
X-43815000Y23495000D01*
X-43147250Y22954250D02*
X-44043750Y22057750D01*
X-21971000Y20254000D02*
X-21971000Y21717000D01*
X-15113000Y21544250D02*
X-15012500Y21443750D01*
X-14986000Y21417250D02*
X-15012500Y21443750D01*
X-14986000Y20066000D02*
X-14986000Y21417250D01*
X-2921000Y22860000D02*
X-2796760Y22735760D01*
X-4257000Y22860000D02*
X-2921000Y22860000D01*
X-2796760Y22735760D02*
X-2796760Y21431250D01*
X-2796760Y34800760D02*
X-2796760Y22735760D01*
X-15012500Y23916810D02*
X-12818110Y26111200D01*
X-15012500Y21443750D02*
X-15012500Y23916810D01*
X-36443750Y7352221D02*
X-36443750Y7981750D01*
X-25019000Y21021000D02*
X-25019000Y19812000D01*
X-31868110Y26206450D02*
X-31868110Y24900890D01*
X-31868110Y24900890D02*
X-32004000Y24765000D01*
X-25554251Y14430307D02*
X-25019000Y14965558D01*
X-25019000Y14965558D02*
X-25019000Y19812000D01*
X-24892000Y5903000D02*
X-25554251Y6565251D01*
X-6504251Y10926191D02*
X-6251500Y11178942D01*
X-6504251Y6438251D02*
X-6504251Y10926191D01*
X-5969000Y5903000D02*
X-6504251Y6438251D01*
X-12818110Y11926448D02*
X-12192000Y12552558D01*
X-12192000Y12552558D02*
X-12192000Y12700000D01*
X-12818110Y7156450D02*
X-12818110Y11926448D01*
X-6223000Y13081000D02*
X-6251500Y13109500D01*
X-5715000Y13081000D02*
X-6223000Y13081000D01*
X-6251500Y13109500D02*
X-6251500Y20066000D01*
X-6251500Y11178942D02*
X-6251500Y13109500D01*
X-27934153Y7934349D02*
X-25554251Y10314251D01*
X-30936492Y7156450D02*
X-30158593Y7934349D01*
X-31868110Y7156450D02*
X-30936492Y7156450D01*
X-25554251Y10314251D02*
X-25554251Y14430307D01*
X-30158593Y7934349D02*
X-27934153Y7934349D01*
X-25554251Y6565251D02*
X-25554251Y10314251D01*
X-36443750Y6736250D02*
X-38100000Y5080000D01*
X-36443750Y7981750D02*
X-36443750Y6736250D01*
X-33020000Y6004560D02*
X-31868110Y7156450D01*
X-33020000Y5842000D02*
X-33020000Y6004560D01*
X-3006250Y20097750D02*
X-2796760Y20307240D01*
X-2796760Y20307240D02*
X-2796760Y21431250D01*
G04 #@! TO.N,+5V*
X-72419250Y19426250D02*
X-73601750Y18243750D01*
X-41460750Y4664750D02*
X-41343750Y4781750D01*
X-57943750Y30384750D02*
X-57218308Y30384750D01*
X-72416750Y22129750D02*
X-72419250Y22127250D01*
X-71659750Y22129750D02*
X-72416750Y22129750D01*
X-72419250Y22127250D02*
X-72419250Y19426250D01*
X-72419250Y26892250D02*
X-72419250Y22127250D01*
X-47176750Y15713750D02*
X-49053750Y15713750D01*
X-73025000Y27498000D02*
X-72419250Y26892250D01*
X-73025000Y29027750D02*
X-73025000Y27498000D01*
X-32607250Y20923250D02*
X-31663249Y19979249D01*
X-40993750Y20726750D02*
X-40993750Y21526750D01*
X-39776750Y20345750D02*
X-39624000Y20193000D01*
X-44843750Y18046750D02*
X-44843750Y19276750D01*
X-47176750Y15713750D02*
X-45986750Y16903750D01*
X-45288250Y17602250D02*
X-45318502Y17602250D01*
X-45318502Y17602250D02*
X-45593000Y17876748D01*
X-45986750Y16903750D02*
X-45288250Y17602250D01*
X-45288250Y17602250D02*
X-44843750Y18046750D01*
X-54483000Y22098000D02*
X-54514750Y22129750D01*
X-54483000Y18161000D02*
X-54483000Y22098000D01*
X-37496750Y18957250D02*
X-35528250Y18957250D01*
X-37632250Y18821750D02*
X-37496750Y18957250D01*
X-40157750Y20726750D02*
X-39624000Y20193000D01*
X-40993750Y20726750D02*
X-40157750Y20726750D01*
X-56703249Y29144249D02*
X-57943750Y30384750D01*
X-54053249Y23156936D02*
X-54053249Y28656151D01*
X-54541347Y29144249D02*
X-56703249Y29144249D01*
X-54514750Y22695435D02*
X-54053249Y23156936D01*
X-54053249Y28656151D02*
X-54541347Y29144249D01*
X-54514750Y22129750D02*
X-54514750Y22695435D01*
X-38388250Y18957250D02*
X-39624000Y20193000D01*
X-37496750Y18957250D02*
X-38388250Y18957250D01*
X-48009000Y32134000D02*
X-48006000Y32131000D01*
X-48009000Y33528000D02*
X-48009000Y32134000D01*
X-20022750Y18354000D02*
X-19912500Y18243750D01*
X-21971000Y18354000D02*
X-20022750Y18354000D01*
X-21971000Y18354000D02*
X-21971000Y17145000D01*
X-6273800Y22910800D02*
X-7819390Y22910800D01*
X-6223000Y22860000D02*
X-6273800Y22910800D01*
X-25104050Y23006050D02*
X-25019000Y22921000D01*
X-26869390Y23006050D02*
X-25104050Y23006050D01*
X-25019000Y22921000D02*
X-26134510Y21805490D01*
X-26134510Y17807490D02*
X-26162000Y17780000D01*
X-26134510Y21805490D02*
X-26134510Y17807490D01*
X-31663249Y19979249D02*
X-31663249Y17185249D01*
X-31623000Y17145000D02*
X-30988000Y17145000D01*
X-31663249Y17185249D02*
X-31623000Y17145000D01*
X-24826000Y3937000D02*
X-24892000Y4003000D01*
X-26822440Y4003000D02*
X-26869390Y3956050D01*
X-24892000Y4003000D02*
X-26822440Y4003000D01*
X-7772440Y4003000D02*
X-7819390Y3956050D01*
X-5969000Y4003000D02*
X-7772440Y4003000D01*
X-5461000Y22164000D02*
X-6157000Y22860000D01*
X-5461000Y17145000D02*
X-5461000Y22164000D01*
X-3973249Y5998751D02*
X-5969000Y4003000D01*
X-3973249Y16292249D02*
X-3973249Y5998751D01*
X-4826000Y17145000D02*
X-3973249Y16292249D01*
X-5461000Y17145000D02*
X-4826000Y17145000D01*
X-21336000Y16510000D02*
X-21336000Y4445000D01*
X-21971000Y17145000D02*
X-21336000Y16510000D01*
X-21336000Y4445000D02*
X-21336000Y4353000D01*
X-24577000Y4318000D02*
X-24892000Y4003000D01*
X-23495000Y4318000D02*
X-24577000Y4318000D01*
X-42894250Y4664750D02*
X-41460750Y4664750D01*
X-42894250Y4664750D02*
X-44481750Y6252250D01*
X-42894250Y3475916D02*
X-42894250Y4664750D01*
X-31387999Y16745001D02*
X-30988000Y17145000D01*
X-31387999Y12377875D02*
X-31387999Y16745001D01*
X-35303249Y6241931D02*
X-32661240Y8883940D01*
X-32661240Y11104634D02*
X-31387999Y12377875D01*
X-35303249Y4097698D02*
X-35303249Y6241931D01*
X-32661240Y8883940D02*
X-32661240Y11104634D01*
X-35179009Y3973458D02*
X-35303249Y4097698D01*
D30*
G04 #@! TO.N,Net-(C3-Pad1)*
X-41596919Y14438923D02*
X-40185498Y13027502D01*
X-41596919Y14545919D02*
X-41596919Y14438923D01*
X-42443750Y16845164D02*
X-42443750Y19276750D01*
X-41101944Y15503358D02*
X-42443750Y16845164D01*
X-41101944Y15040894D02*
X-41101944Y15503358D01*
X-41596919Y14545919D02*
X-41101944Y15040894D01*
G04 #@! TO.N,Net-(C4-Pad1)*
X-44555137Y14192365D02*
X-44354635Y14192365D01*
X-46264751Y12482751D02*
X-44555137Y14192365D01*
X-43243750Y16614242D02*
X-43243750Y19276750D01*
X-44354635Y15503357D02*
X-43243750Y16614242D01*
X-44354635Y14192365D02*
X-44354635Y15503357D01*
G04 #@! TO.N,Net-(D1-Pad2)*
X-74605750Y21443750D02*
X-75054240Y20995260D01*
X-73601750Y21443750D02*
X-74605750Y21443750D01*
X-75054240Y4766109D02*
X-73021391Y2733260D01*
X-75054240Y20995260D02*
X-75054240Y4766109D01*
X-73021391Y2733260D02*
X-36449000Y2733260D01*
X-36449000Y4776500D02*
X-36443750Y4781750D01*
X-36449000Y2733260D02*
X-36449000Y4776500D01*
G04 #@! TO.N,RGBLED*
X-51447750Y23126750D02*
X-51466750Y23145750D01*
X-66770250Y20175250D02*
X-68701750Y18243750D01*
X-66770250Y23145750D02*
X-66770250Y20175250D01*
X-49512750Y23145750D02*
X-49493750Y23126750D01*
X-51466750Y23145750D02*
X-49512750Y23145750D01*
G04 #@! TO.N,Net-(D2-Pad2)*
X-2735068Y13203432D02*
X-2733260Y13205240D01*
X-4678664Y2735066D02*
X-2735068Y4678662D01*
X-2735068Y4678662D02*
X-2735068Y13203432D01*
X-4766099Y2733260D02*
X-4678664Y2735066D01*
X-2735068Y13266932D02*
X-2733260Y13268740D01*
X-2735068Y13203432D02*
X-2735068Y13266932D01*
X-2733260Y13268740D02*
X-2733260Y17719260D01*
X-32191740Y2733260D02*
X-4766099Y2733260D01*
X-32556658Y2733260D02*
X-32191740Y2733260D01*
X-2733260Y17973260D02*
X-3048000Y18288000D01*
X-2733260Y17719260D02*
X-2733260Y17973260D01*
X-14968250Y18288000D02*
X-15012500Y18243750D01*
X-13589000Y18288000D02*
X-14968250Y18288000D01*
X-41343750Y7981750D02*
X-41343750Y7227750D01*
X-41343750Y7227750D02*
X-39724751Y5608751D01*
X-35160010Y2733260D02*
X-35118260Y2733260D01*
X-35433000Y3006250D02*
X-35160010Y2733260D01*
X-35118260Y2733260D02*
X-32191740Y2733260D01*
X-35366749Y2733260D02*
X-35118260Y2733260D01*
X-39724751Y3815011D02*
X-39370000Y3460260D01*
X-39724751Y5608751D02*
X-39724751Y3815011D01*
D29*
G04 #@! TO.N,VCC*
X-35782250Y32861250D02*
X-36417250Y32861250D01*
X-36443750Y34094250D02*
X-36417250Y34067750D01*
X-36443750Y34373750D02*
X-36443750Y34094250D01*
X-36417250Y32861250D02*
X-36417250Y34067750D01*
X-41343750Y33374247D02*
X-41306251Y33336748D01*
X-41343750Y34373750D02*
X-41343750Y33374247D01*
X-39608000Y31684000D02*
X-39685000Y31684000D01*
X-39685000Y31684000D02*
X-40255683Y32254683D01*
X-45209000Y33528000D02*
X-45144672Y33528000D01*
X-43675468Y32058796D02*
X-43675468Y31762532D01*
X-45144672Y33528000D02*
X-43675468Y32058796D01*
D30*
G04 #@! TO.N,COL0*
X-32289750Y31019750D02*
X-33178750Y31908750D01*
X-49767758Y16540760D02*
X-50105760Y16202758D01*
X-47898740Y16540760D02*
X-49767758Y16540760D01*
X-46443750Y17995750D02*
X-47898740Y16540760D01*
X-46443750Y19276750D02*
X-46443750Y17995750D01*
X-50105760Y10899762D02*
X-47746036Y8540038D01*
X-50105760Y16202758D02*
X-50105760Y10899762D01*
X-35650751Y9361751D02*
X-35306000Y9017000D01*
X-35650751Y12535711D02*
X-35650751Y9361751D01*
X-33875711Y14310751D02*
X-35650751Y12535711D01*
X-33568249Y14310751D02*
X-33875711Y14310751D01*
X-33340749Y14538251D02*
X-33568249Y14310751D01*
X-33340749Y19751749D02*
X-33340749Y14538251D01*
X-33528000Y19939000D02*
X-33340749Y19751749D01*
X-33528000Y28510538D02*
X-33528000Y19939000D01*
X-33178750Y28859788D02*
X-33528000Y28510538D01*
X-33178750Y31908750D02*
X-33178750Y28859788D01*
G04 #@! TO.N,COL1*
X-33172202Y12852202D02*
X-33178750Y12858750D01*
X-47996219Y7328278D02*
X-47783750Y7540747D01*
X-47859709Y7540747D02*
X-47783750Y7540747D01*
X-50559770Y10240808D02*
X-47859709Y7540747D01*
X-49955815Y16994770D02*
X-50559770Y16390815D01*
X-47243750Y19276750D02*
X-47243750Y18064816D01*
X-50559770Y16390815D02*
X-50559770Y10240808D01*
X-48313796Y16994770D02*
X-49955815Y16994770D01*
X-47243750Y18064816D02*
X-48313796Y16994770D01*
X-33178750Y9874250D02*
X-33178750Y12858750D01*
X-33875769Y9177231D02*
X-33178750Y9874250D01*
X-33935169Y9177231D02*
X-33875769Y9177231D01*
X-34335168Y8777232D02*
X-33935169Y9177231D01*
G04 #@! TO.N,COL2*
X-47859709Y5540741D02*
X-47783750Y5540741D01*
X-48032837Y5540741D02*
X-47783750Y5540741D01*
X-18319750Y7270849D02*
X-18319750Y29876750D01*
X-16287750Y31908750D02*
X-14128750Y31908750D01*
X-18319750Y29876750D02*
X-16287750Y31908750D01*
X-51467790Y8659096D02*
X-48349435Y5540741D01*
X-48349435Y5540741D02*
X-47783750Y5540741D01*
X-51467790Y16766929D02*
X-50331929Y17902790D01*
X-51467790Y8659096D02*
X-51467790Y16766929D01*
X-50331929Y17902790D02*
X-49530000Y17902790D01*
X-49530000Y20690500D02*
X-49493750Y20726750D01*
X-49530000Y17902790D02*
X-49530000Y20690500D01*
G04 #@! TO.N,COL3*
X-14128750Y8032750D02*
X-14128750Y12858750D01*
X-47859709Y6540744D02*
X-47783750Y6540744D01*
X-48349435Y6540744D02*
X-47783750Y6540744D01*
X-51013780Y9205089D02*
X-48349435Y6540744D01*
X-48043750Y19276750D02*
X-48043750Y17906882D01*
X-48043750Y17906882D02*
X-48501852Y17448780D01*
X-51013780Y16578872D02*
X-51013780Y9205089D01*
X-50143872Y17448780D02*
X-51013780Y16578872D01*
X-48501852Y17448780D02*
X-50143872Y17448780D01*
G04 #@! TO.N,Net-(R1-Pad1)*
X-32811212Y34425250D02*
X-31591250Y34425250D01*
X-36422118Y32134249D02*
X-35102213Y32134249D01*
X-35102213Y32134249D02*
X-32811212Y34425250D01*
X-37143750Y32855881D02*
X-36422118Y32134249D01*
X-37143750Y34373750D02*
X-37143750Y32855881D01*
G04 #@! TO.N,Net-(R2-Pad1)*
X-41655212Y32609747D02*
X-42033252Y32987787D01*
X-40928753Y32609747D02*
X-41655212Y32609747D01*
X-40143750Y33394750D02*
X-40928753Y32609747D01*
X-40143750Y34373750D02*
X-40143750Y33394750D01*
X-42639787Y32987787D02*
X-43180000Y33528000D01*
X-42033252Y32987787D02*
X-42639787Y32987787D01*
X-44906000Y35531500D02*
X-45696500Y36322000D01*
X-44653468Y35531500D02*
X-44906000Y35531500D01*
G04 #@! TO.N,Net-(R4-Pad2)*
X-39370000Y28349018D02*
X-39370000Y28344500D01*
X-39608000Y28963500D02*
X-38989000Y28344500D01*
X-39608000Y29784000D02*
X-39608000Y28963500D01*
X-39643750Y35337352D02*
X-39643750Y34373750D01*
X-38643750Y35352750D02*
X-38716751Y35425751D01*
X-39555351Y35425751D02*
X-39643750Y35337352D01*
X-38643750Y34373750D02*
X-38643750Y35352750D01*
X-38716751Y35425751D02*
X-39555351Y35425751D01*
X-39643750Y33252683D02*
X-38930999Y32539932D01*
X-38930999Y30461001D02*
X-39608000Y29784000D01*
X-38930999Y32539932D02*
X-38930999Y30461001D01*
X-39643750Y34373750D02*
X-39643750Y33252683D01*
D31*
G04 #@! TO.N,D-*
X-36628500Y24159000D02*
X-36114000Y24159000D01*
X-36114000Y24159000D02*
X-35814000Y23859000D01*
X-38989000Y26519500D02*
X-36628500Y24159000D01*
X-39163033Y22501750D02*
X-39618749Y22501750D01*
X-39793749Y22326750D02*
X-40993750Y22326750D01*
X-37721215Y23519303D02*
X-38145480Y23519303D01*
X-38145480Y23519303D02*
X-39163033Y22501750D01*
X-39618749Y22501750D02*
X-39793749Y22326750D01*
G04 #@! TO.N,D+*
X-36114000Y24609000D02*
X-35814000Y24909000D01*
X-37084000Y26519500D02*
X-37084000Y25250897D01*
X-36442103Y24609000D02*
X-36114000Y24609000D01*
X-37084000Y25250897D02*
X-36442103Y24609000D01*
X-39618749Y22951750D02*
X-39793749Y23126750D01*
X-38463679Y23837502D02*
X-39349431Y22951750D01*
X-39793749Y23126750D02*
X-40993750Y23126750D01*
X-39349431Y22951750D02*
X-39618749Y22951750D01*
X-38463679Y24261767D02*
X-38463679Y23837502D01*
D30*
G04 #@! TO.N,Net-(R5-Pad1)*
X-38655749Y33321749D02*
X-38232149Y33321749D01*
X-39070749Y33321749D02*
X-38655749Y33321749D01*
X-38143750Y33410148D02*
X-38143750Y34373750D01*
X-39143750Y34373750D02*
X-39143750Y33394750D01*
X-38232149Y33321749D02*
X-38143750Y33410148D01*
X-39143750Y33394750D02*
X-39070749Y33321749D01*
X-38285001Y32951001D02*
X-38655749Y33321749D01*
X-38285001Y30461001D02*
X-38285001Y32951001D01*
X-37608000Y29784000D02*
X-38285001Y30461001D01*
X-37608000Y28868500D02*
X-37084000Y28344500D01*
X-37608000Y29784000D02*
X-37608000Y28868500D01*
G04 #@! TO.N,Net-(R6-Pad2)*
X-52119858Y23926750D02*
X-52173858Y23872750D01*
X-68334250Y24161750D02*
X-68397750Y24098250D01*
X-68270750Y24225250D02*
X-68397750Y24098250D01*
X-66960750Y24225250D02*
X-68270750Y24225250D01*
X-49547750Y23872750D02*
X-49493750Y23926750D01*
X-52173858Y23872750D02*
X-49547750Y23872750D01*
G04 #@! TO.N,ENCA*
X-50415751Y27492251D02*
X-50260250Y27336750D01*
X-51523989Y30505512D02*
X-51460490Y30569011D01*
X-51523989Y27432000D02*
X-51523989Y30505512D01*
X-51428739Y27336750D02*
X-51523989Y27432000D01*
X-50260250Y27336750D02*
X-51428739Y27336750D01*
X-50260250Y27093250D02*
X-49493750Y26326750D01*
X-50260250Y27336750D02*
X-50260250Y27093250D01*
G04 #@! TO.N,ENCB*
X-55403750Y32924750D02*
X-53752750Y32924750D01*
X-51466750Y25495250D02*
X-51977999Y26006499D01*
X-52070000Y30099000D02*
X-52137038Y30099000D01*
X-51977999Y30006999D02*
X-52070000Y30099000D01*
X-51977999Y26006499D02*
X-51977999Y30006999D01*
X-52137038Y30099000D02*
X-52187490Y30149452D01*
X-52187490Y32620010D02*
X-51914500Y32893000D01*
X-52187490Y30149452D02*
X-52187490Y32620010D01*
X-49525250Y25495250D02*
X-49493750Y25526750D01*
X-51466750Y25495250D02*
X-49525250Y25495250D01*
G04 #@! TO.N,COL4*
X-53721000Y21655102D02*
X-53721000Y14351000D01*
X-53049352Y22326750D02*
X-53721000Y21655102D01*
X-49493750Y22326750D02*
X-53049352Y22326750D01*
G04 #@! TO.N,Net-(C6-Pad1)*
X-39918403Y24726750D02*
X-39652644Y24992509D01*
X-40993750Y24726750D02*
X-39918403Y24726750D01*
X-41529000Y28448000D02*
X-41529000Y29657000D01*
G04 #@! TO.N,ROW0*
X-26955750Y15271750D02*
X-26828750Y15398750D01*
X-7747506Y15367506D02*
X-7778750Y15398750D01*
X-47859709Y4540738D02*
X-47783750Y4540738D01*
X-47991498Y4540738D02*
X-47783750Y4540738D01*
X-51921800Y8471040D02*
X-47991498Y4540738D01*
X-51974750Y12858750D02*
X-51921800Y12911700D01*
X-52736750Y12858750D02*
X-51974750Y12858750D01*
X-51921800Y12911700D02*
X-51921800Y8471040D01*
X-23086749Y28791789D02*
X-23086749Y30706749D01*
X-50620751Y21263351D02*
X-50620751Y18256035D01*
X-50357352Y21526750D02*
X-50620751Y21263351D01*
X-49493750Y21526750D02*
X-50357352Y21526750D01*
X-51921800Y16954986D02*
X-51921800Y12911700D01*
X-50620751Y18256035D02*
X-51921800Y16954986D01*
X-23086749Y15457751D02*
X-23086749Y28791789D01*
X-23086749Y15466749D02*
X-23114000Y15494000D01*
X-23086749Y15457751D02*
X-23086749Y15466749D01*
X-22733000Y15113000D02*
X-22733000Y6797750D01*
X-23114000Y15494000D02*
X-22733000Y15113000D01*
X-23086749Y34262749D02*
X-23114000Y34290000D01*
X-23086749Y30706749D02*
X-23086749Y34262749D01*
G04 #@! TO.N,RESET*
X-55340250Y35401250D02*
X-55403750Y35464750D01*
X-53498750Y35401250D02*
X-55340250Y35401250D01*
X-68738750Y32142750D02*
X-68738750Y34067750D01*
X-70378250Y30503250D02*
X-68738750Y32142750D01*
X-70727750Y30852750D02*
X-70378250Y30503250D01*
X-73025000Y30852750D02*
X-73016750Y30852750D01*
X-73025000Y30852750D02*
X-72017250Y30852750D01*
X-71667750Y30503250D02*
X-70378250Y30503250D01*
X-72017250Y30852750D02*
X-71667750Y30503250D01*
X-42443750Y28830750D02*
X-42672000Y29059000D01*
X-42443750Y27776750D02*
X-42443750Y28830750D01*
X-42672000Y29059000D02*
X-42672000Y29683102D01*
X-42672000Y29683102D02*
X-42672000Y30988000D01*
X-44594206Y30988000D02*
X-47056990Y33450784D01*
X-47056990Y33450784D02*
X-47056990Y34392008D01*
X-47843982Y35179000D02*
X-48387000Y35179000D01*
X-47056990Y34392008D02*
X-47843982Y35179000D01*
X-42672000Y30988000D02*
X-44594206Y30988000D01*
G04 #@! TO.N,MISO*
X-55403750Y30384750D02*
X-55276750Y30384750D01*
X-50638239Y28352750D02*
X-50796989Y28194000D01*
X-48742250Y27776750D02*
X-49318250Y28352750D01*
X-49318250Y28352750D02*
X-50638239Y28352750D01*
X-48043750Y27776750D02*
X-48742250Y27776750D01*
G04 #@! TO.N,Net-(D3-Pad2)*
X-19912500Y22407000D02*
X-19812000Y22507500D01*
X-19912500Y21443750D02*
X-19912500Y22407000D01*
X-12827000Y22901910D02*
X-12818110Y22910800D01*
X-12827000Y21717000D02*
X-12827000Y22901910D01*
G04 #@! TO.N,Net-(D4-Pad2)*
X-32945681Y27252319D02*
X-32945681Y24083621D01*
X-32945681Y24083621D02*
X-31868110Y23006050D01*
X-7819390Y26869390D02*
X-7937500Y26987500D01*
X-7819390Y26111200D02*
X-7819390Y26869390D01*
X-31750000Y27781250D02*
X-32416750Y27781250D01*
X-32416750Y27781250D02*
X-32945681Y27252319D01*
G04 #@! TO.N,Net-(D5-Pad2)*
X-23966990Y12736010D02*
X-24003000Y12700000D01*
X-23966990Y24308620D02*
X-23966990Y12736010D01*
X-25864820Y26206450D02*
X-23966990Y24308620D01*
X-26869390Y26206450D02*
X-25864820Y26206450D01*
X-32234479Y4322419D02*
X-31868110Y3956050D01*
X-34452008Y4322419D02*
X-32234479Y4322419D01*
X-32004000Y8809312D02*
X-34785739Y6027573D01*
X-34785739Y4656150D02*
X-34452008Y4322419D01*
X-32004000Y11030006D02*
X-32004000Y8809312D01*
X-34785739Y6027573D02*
X-34785739Y4656150D01*
X-30290746Y12743260D02*
X-32004000Y11030006D01*
G04 #@! TO.N,Net-(D6-Pad2)*
X-13335000Y4472940D02*
X-12818110Y3956050D01*
X-13335000Y5080000D02*
X-13335000Y4472940D01*
X-26035000Y6322060D02*
X-26869390Y7156450D01*
X-26035000Y5080000D02*
X-26035000Y6322060D01*
G04 #@! TD*
G04 #@! TO.N,GND*
X-34289999Y19976433D02*
X-34293686Y19939000D01*
X-34278973Y19789622D01*
X-34235401Y19645985D01*
X-34164645Y19513608D01*
X-34103067Y19438576D01*
X-34102749Y19438188D01*
X-34102748Y15208250D01*
X-35718750Y15208250D01*
X-35743526Y15205810D01*
X-35767351Y15198583D01*
X-35789307Y15186847D01*
X-35808553Y15171053D01*
X-35824347Y15151807D01*
X-35836083Y15129851D01*
X-35843310Y15106026D01*
X-35845750Y15081250D01*
X-35845750Y13418342D01*
X-36163097Y13100995D01*
X-36192173Y13077133D01*
X-36244520Y13013347D01*
X-36287396Y12961103D01*
X-36300539Y12936513D01*
X-36358153Y12828725D01*
X-36401725Y12685088D01*
X-36409139Y12609810D01*
X-36416437Y12535711D01*
X-36412751Y12498288D01*
X-36412750Y9399184D01*
X-36416437Y9361751D01*
X-36401724Y9212373D01*
X-36358152Y9068736D01*
X-36341000Y9036646D01*
X-36341000Y8915061D01*
X-36336015Y8890000D01*
X-36570750Y8890000D01*
X-36570750Y8958000D01*
X-36729500Y9116750D01*
X-37193750Y9119822D01*
X-37318232Y9107562D01*
X-37437930Y9071252D01*
X-37548244Y9012287D01*
X-37644935Y8932935D01*
X-37680171Y8890000D01*
X-40107329Y8890000D01*
X-40142565Y8932935D01*
X-40239256Y9012287D01*
X-40349570Y9071252D01*
X-40469268Y9107562D01*
X-40593750Y9119822D01*
X-42093750Y9119822D01*
X-42218232Y9107562D01*
X-42337930Y9071252D01*
X-42448244Y9012287D01*
X-42544935Y8932935D01*
X-42580171Y8890000D01*
X-46770719Y8890000D01*
X-46828831Y9030294D01*
X-46942099Y9199812D01*
X-47086262Y9343975D01*
X-47255780Y9457243D01*
X-47444138Y9535264D01*
X-47644097Y9575038D01*
X-47703406Y9575038D01*
X-48328402Y10200034D01*
X-45680858Y10200034D01*
X-45680858Y9975528D01*
X-45531533Y9821858D01*
X-45434842Y9742505D01*
X-45324528Y9683541D01*
X-45204829Y9647232D01*
X-45080348Y9634971D01*
X-44955867Y9647232D01*
X-44836168Y9683541D01*
X-44725854Y9742505D01*
X-44629163Y9821858D01*
X-44320739Y10134627D01*
X-44320739Y10359133D01*
X-44921249Y10959644D01*
X-45680858Y10200034D01*
X-48328402Y10200034D01*
X-49343760Y11215392D01*
X-49343760Y12678720D01*
X-49339500Y12678750D01*
X-49180750Y12837500D01*
X-49180750Y13686750D01*
X-48926750Y13686750D01*
X-48926750Y12837500D01*
X-48768000Y12678750D01*
X-48328750Y12675678D01*
X-48204268Y12687938D01*
X-48084570Y12724248D01*
X-47974256Y12783213D01*
X-47877565Y12862565D01*
X-47798213Y12959256D01*
X-47739248Y13069570D01*
X-47702938Y13189268D01*
X-47690678Y13313750D01*
X-47693750Y13528000D01*
X-47852500Y13686750D01*
X-48926750Y13686750D01*
X-49180750Y13686750D01*
X-49200750Y13686750D01*
X-49200750Y13940750D01*
X-49180750Y13940750D01*
X-49180750Y13960750D01*
X-48926750Y13960750D01*
X-48926750Y13940750D01*
X-47852500Y13940750D01*
X-47693750Y14099500D01*
X-47690678Y14313750D01*
X-47702938Y14438232D01*
X-47739248Y14557930D01*
X-47798213Y14668244D01*
X-47877565Y14764935D01*
X-47957344Y14830408D01*
X-47950788Y14835788D01*
X-47907734Y14888250D01*
X-47217300Y14888250D01*
X-47176750Y14884256D01*
X-47136200Y14888250D01*
X-47136197Y14888250D01*
X-47014924Y14900194D01*
X-46859316Y14947397D01*
X-46715908Y15024051D01*
X-46590209Y15127209D01*
X-46564352Y15158716D01*
X-45374359Y16348708D01*
X-45374355Y16348713D01*
X-44733209Y16989858D01*
X-44701709Y17015709D01*
X-44675852Y17047216D01*
X-44288715Y17434353D01*
X-44257209Y17460209D01*
X-44154051Y17585908D01*
X-44077397Y17729316D01*
X-44043291Y17841750D01*
X-44005749Y17841750D01*
X-44005750Y16929872D01*
X-44866986Y16068636D01*
X-44896056Y16044779D01*
X-44919912Y16015710D01*
X-44919914Y16015708D01*
X-44991280Y15928749D01*
X-45062036Y15796372D01*
X-45105608Y15652735D01*
X-45120321Y15503357D01*
X-45116634Y15465924D01*
X-45116634Y15181264D01*
X-45725059Y14572839D01*
X-45804411Y14476148D01*
X-45863376Y14365834D01*
X-45899686Y14246136D01*
X-45911946Y14121654D01*
X-45899686Y13997172D01*
X-45882992Y13942140D01*
X-45956361Y13868771D01*
X-46105652Y13883475D01*
X-46278906Y13866411D01*
X-46445502Y13815875D01*
X-46599038Y13733808D01*
X-46733614Y13623365D01*
X-47405365Y12951614D01*
X-47515808Y12817038D01*
X-47597875Y12663502D01*
X-47648411Y12496906D01*
X-47665475Y12323652D01*
X-47648411Y12150398D01*
X-47597875Y11983802D01*
X-47515808Y11830266D01*
X-47405365Y11695690D01*
X-47051812Y11342137D01*
X-46917236Y11231694D01*
X-46763700Y11149627D01*
X-46597104Y11099091D01*
X-46423850Y11082027D01*
X-46415411Y11082858D01*
X-46425527Y10980150D01*
X-46413266Y10855669D01*
X-46376957Y10735970D01*
X-46317993Y10625656D01*
X-46238640Y10528965D01*
X-46084970Y10379640D01*
X-45860464Y10379640D01*
X-45100854Y11139249D01*
X-45114997Y11153392D01*
X-44935392Y11332997D01*
X-44921249Y11318854D01*
X-44161640Y12078464D01*
X-44161640Y12248352D01*
X-44074091Y12248352D01*
X-43332159Y12990284D01*
X-43346302Y13004427D01*
X-43166697Y13184032D01*
X-43152554Y13169889D01*
X-43138412Y13184032D01*
X-42958807Y13004427D01*
X-42972949Y12990284D01*
X-42958807Y12976142D01*
X-43138412Y12796537D01*
X-43152554Y12810679D01*
X-43894486Y12068747D01*
X-43894486Y11898858D01*
X-43982034Y11898858D01*
X-44741644Y11139249D01*
X-44141133Y10538739D01*
X-43916627Y10538739D01*
X-43603858Y10847163D01*
X-43557308Y10903884D01*
X-42129510Y10903884D01*
X-42129510Y10679378D01*
X-41821086Y10366609D01*
X-41724395Y10287256D01*
X-41614081Y10228292D01*
X-41494382Y10191983D01*
X-41369901Y10179722D01*
X-41245420Y10191983D01*
X-41125721Y10228292D01*
X-41015407Y10287256D01*
X-40918716Y10366609D01*
X-40769391Y10520279D01*
X-40769391Y10744785D01*
X-41529000Y11504395D01*
X-42129510Y10903884D01*
X-43557308Y10903884D01*
X-43524505Y10943854D01*
X-43465541Y11054168D01*
X-43429232Y11173867D01*
X-43416971Y11298348D01*
X-43429232Y11422829D01*
X-43444975Y11474727D01*
X-43347746Y11445234D01*
X-43223265Y11432973D01*
X-43098783Y11445234D01*
X-42979085Y11481543D01*
X-42934661Y11505288D01*
X-42925744Y11488605D01*
X-42846391Y11391914D01*
X-42533622Y11083490D01*
X-42309116Y11083490D01*
X-41708605Y11684000D01*
X-41722748Y11698142D01*
X-41543142Y11877748D01*
X-41529000Y11863605D01*
X-41514858Y11877748D01*
X-41335253Y11698143D01*
X-41349395Y11684000D01*
X-40589785Y10924391D01*
X-40365279Y10924391D01*
X-40211609Y11073716D01*
X-40132256Y11170407D01*
X-40073292Y11280721D01*
X-40036983Y11400420D01*
X-40024722Y11524901D01*
X-40034838Y11627609D01*
X-40026399Y11626778D01*
X-39853145Y11643842D01*
X-39686549Y11694378D01*
X-39533013Y11776445D01*
X-39398437Y11886888D01*
X-39044884Y12240441D01*
X-38934441Y12375017D01*
X-38852374Y12528553D01*
X-38801838Y12695149D01*
X-38784774Y12868403D01*
X-38801838Y13041657D01*
X-38852374Y13208253D01*
X-38934441Y13361789D01*
X-39044884Y13496365D01*
X-39716635Y14168116D01*
X-39851211Y14278559D01*
X-40004747Y14360626D01*
X-40084432Y14384798D01*
X-40051868Y14492148D01*
X-40039608Y14616630D01*
X-40051868Y14741112D01*
X-40088178Y14860810D01*
X-40147143Y14971124D01*
X-40226495Y15067815D01*
X-40339944Y15181264D01*
X-40339944Y15465936D01*
X-40336258Y15503359D01*
X-40341128Y15552808D01*
X-40350970Y15652736D01*
X-40394542Y15796373D01*
X-40465299Y15928750D01*
X-40560522Y16044780D01*
X-40589592Y16068637D01*
X-41681750Y17160794D01*
X-41681750Y18069206D01*
X-41638213Y18122256D01*
X-41579248Y18232570D01*
X-41542938Y18352268D01*
X-41530678Y18476750D01*
X-41530678Y19813678D01*
X-40587156Y19813678D01*
X-40541205Y19702744D01*
X-40427937Y19533226D01*
X-40283774Y19389063D01*
X-40114256Y19275795D01*
X-39925898Y19197774D01*
X-39764004Y19165572D01*
X-39000644Y18402211D01*
X-38974791Y18370709D01*
X-38849092Y18267551D01*
X-38705684Y18190897D01*
X-38686541Y18185090D01*
X-38599712Y18079288D01*
X-38465136Y17968845D01*
X-38311600Y17886778D01*
X-38145004Y17836242D01*
X-37971750Y17819178D01*
X-37021750Y17819178D01*
X-36848496Y17836242D01*
X-36681900Y17886778D01*
X-36528364Y17968845D01*
X-36512500Y17981864D01*
X-36496636Y17968845D01*
X-36343100Y17886778D01*
X-36176504Y17836242D01*
X-36003250Y17819178D01*
X-35053250Y17819178D01*
X-34879996Y17836242D01*
X-34713400Y17886778D01*
X-34559864Y17968845D01*
X-34425288Y18079288D01*
X-34314845Y18213864D01*
X-34232778Y18367400D01*
X-34182242Y18533996D01*
X-34165178Y18707250D01*
X-34165178Y19207250D01*
X-34182242Y19380504D01*
X-34232778Y19547100D01*
X-34314845Y19700636D01*
X-34425288Y19835212D01*
X-34431844Y19840592D01*
X-34352065Y19906065D01*
X-34289999Y19981693D01*
X-34289999Y19976433D01*
G04 #@! TA.AperFunction,Conductor*
D32*
G36*
X-34289999Y19976433D02*
G01*
X-34293686Y19939000D01*
X-34278973Y19789622D01*
X-34235401Y19645985D01*
X-34164645Y19513608D01*
X-34103067Y19438576D01*
X-34102749Y19438188D01*
X-34102748Y15208250D01*
X-35718750Y15208250D01*
X-35743526Y15205810D01*
X-35767351Y15198583D01*
X-35789307Y15186847D01*
X-35808553Y15171053D01*
X-35824347Y15151807D01*
X-35836083Y15129851D01*
X-35843310Y15106026D01*
X-35845750Y15081250D01*
X-35845750Y13418342D01*
X-36163097Y13100995D01*
X-36192173Y13077133D01*
X-36244520Y13013347D01*
X-36287396Y12961103D01*
X-36300539Y12936513D01*
X-36358153Y12828725D01*
X-36401725Y12685088D01*
X-36409139Y12609810D01*
X-36416437Y12535711D01*
X-36412751Y12498288D01*
X-36412750Y9399184D01*
X-36416437Y9361751D01*
X-36401724Y9212373D01*
X-36358152Y9068736D01*
X-36341000Y9036646D01*
X-36341000Y8915061D01*
X-36336015Y8890000D01*
X-36570750Y8890000D01*
X-36570750Y8958000D01*
X-36729500Y9116750D01*
X-37193750Y9119822D01*
X-37318232Y9107562D01*
X-37437930Y9071252D01*
X-37548244Y9012287D01*
X-37644935Y8932935D01*
X-37680171Y8890000D01*
X-40107329Y8890000D01*
X-40142565Y8932935D01*
X-40239256Y9012287D01*
X-40349570Y9071252D01*
X-40469268Y9107562D01*
X-40593750Y9119822D01*
X-42093750Y9119822D01*
X-42218232Y9107562D01*
X-42337930Y9071252D01*
X-42448244Y9012287D01*
X-42544935Y8932935D01*
X-42580171Y8890000D01*
X-46770719Y8890000D01*
X-46828831Y9030294D01*
X-46942099Y9199812D01*
X-47086262Y9343975D01*
X-47255780Y9457243D01*
X-47444138Y9535264D01*
X-47644097Y9575038D01*
X-47703406Y9575038D01*
X-48328402Y10200034D01*
X-45680858Y10200034D01*
X-45680858Y9975528D01*
X-45531533Y9821858D01*
X-45434842Y9742505D01*
X-45324528Y9683541D01*
X-45204829Y9647232D01*
X-45080348Y9634971D01*
X-44955867Y9647232D01*
X-44836168Y9683541D01*
X-44725854Y9742505D01*
X-44629163Y9821858D01*
X-44320739Y10134627D01*
X-44320739Y10359133D01*
X-44921249Y10959644D01*
X-45680858Y10200034D01*
X-48328402Y10200034D01*
X-49343760Y11215392D01*
X-49343760Y12678720D01*
X-49339500Y12678750D01*
X-49180750Y12837500D01*
X-49180750Y13686750D01*
X-48926750Y13686750D01*
X-48926750Y12837500D01*
X-48768000Y12678750D01*
X-48328750Y12675678D01*
X-48204268Y12687938D01*
X-48084570Y12724248D01*
X-47974256Y12783213D01*
X-47877565Y12862565D01*
X-47798213Y12959256D01*
X-47739248Y13069570D01*
X-47702938Y13189268D01*
X-47690678Y13313750D01*
X-47693750Y13528000D01*
X-47852500Y13686750D01*
X-48926750Y13686750D01*
X-49180750Y13686750D01*
X-49200750Y13686750D01*
X-49200750Y13940750D01*
X-49180750Y13940750D01*
X-49180750Y13960750D01*
X-48926750Y13960750D01*
X-48926750Y13940750D01*
X-47852500Y13940750D01*
X-47693750Y14099500D01*
X-47690678Y14313750D01*
X-47702938Y14438232D01*
X-47739248Y14557930D01*
X-47798213Y14668244D01*
X-47877565Y14764935D01*
X-47957344Y14830408D01*
X-47950788Y14835788D01*
X-47907734Y14888250D01*
X-47217300Y14888250D01*
X-47176750Y14884256D01*
X-47136200Y14888250D01*
X-47136197Y14888250D01*
X-47014924Y14900194D01*
X-46859316Y14947397D01*
X-46715908Y15024051D01*
X-46590209Y15127209D01*
X-46564352Y15158716D01*
X-45374359Y16348708D01*
X-45374355Y16348713D01*
X-44733209Y16989858D01*
X-44701709Y17015709D01*
X-44675852Y17047216D01*
X-44288715Y17434353D01*
X-44257209Y17460209D01*
X-44154051Y17585908D01*
X-44077397Y17729316D01*
X-44043291Y17841750D01*
X-44005749Y17841750D01*
X-44005750Y16929872D01*
X-44866986Y16068636D01*
X-44896056Y16044779D01*
X-44919912Y16015710D01*
X-44919914Y16015708D01*
X-44991280Y15928749D01*
X-45062036Y15796372D01*
X-45105608Y15652735D01*
X-45120321Y15503357D01*
X-45116634Y15465924D01*
X-45116634Y15181264D01*
X-45725059Y14572839D01*
X-45804411Y14476148D01*
X-45863376Y14365834D01*
X-45899686Y14246136D01*
X-45911946Y14121654D01*
X-45899686Y13997172D01*
X-45882992Y13942140D01*
X-45956361Y13868771D01*
X-46105652Y13883475D01*
X-46278906Y13866411D01*
X-46445502Y13815875D01*
X-46599038Y13733808D01*
X-46733614Y13623365D01*
X-47405365Y12951614D01*
X-47515808Y12817038D01*
X-47597875Y12663502D01*
X-47648411Y12496906D01*
X-47665475Y12323652D01*
X-47648411Y12150398D01*
X-47597875Y11983802D01*
X-47515808Y11830266D01*
X-47405365Y11695690D01*
X-47051812Y11342137D01*
X-46917236Y11231694D01*
X-46763700Y11149627D01*
X-46597104Y11099091D01*
X-46423850Y11082027D01*
X-46415411Y11082858D01*
X-46425527Y10980150D01*
X-46413266Y10855669D01*
X-46376957Y10735970D01*
X-46317993Y10625656D01*
X-46238640Y10528965D01*
X-46084970Y10379640D01*
X-45860464Y10379640D01*
X-45100854Y11139249D01*
X-45114997Y11153392D01*
X-44935392Y11332997D01*
X-44921249Y11318854D01*
X-44161640Y12078464D01*
X-44161640Y12248352D01*
X-44074091Y12248352D01*
X-43332159Y12990284D01*
X-43346302Y13004427D01*
X-43166697Y13184032D01*
X-43152554Y13169889D01*
X-43138412Y13184032D01*
X-42958807Y13004427D01*
X-42972949Y12990284D01*
X-42958807Y12976142D01*
X-43138412Y12796537D01*
X-43152554Y12810679D01*
X-43894486Y12068747D01*
X-43894486Y11898858D01*
X-43982034Y11898858D01*
X-44741644Y11139249D01*
X-44141133Y10538739D01*
X-43916627Y10538739D01*
X-43603858Y10847163D01*
X-43557308Y10903884D01*
X-42129510Y10903884D01*
X-42129510Y10679378D01*
X-41821086Y10366609D01*
X-41724395Y10287256D01*
X-41614081Y10228292D01*
X-41494382Y10191983D01*
X-41369901Y10179722D01*
X-41245420Y10191983D01*
X-41125721Y10228292D01*
X-41015407Y10287256D01*
X-40918716Y10366609D01*
X-40769391Y10520279D01*
X-40769391Y10744785D01*
X-41529000Y11504395D01*
X-42129510Y10903884D01*
X-43557308Y10903884D01*
X-43524505Y10943854D01*
X-43465541Y11054168D01*
X-43429232Y11173867D01*
X-43416971Y11298348D01*
X-43429232Y11422829D01*
X-43444975Y11474727D01*
X-43347746Y11445234D01*
X-43223265Y11432973D01*
X-43098783Y11445234D01*
X-42979085Y11481543D01*
X-42934661Y11505288D01*
X-42925744Y11488605D01*
X-42846391Y11391914D01*
X-42533622Y11083490D01*
X-42309116Y11083490D01*
X-41708605Y11684000D01*
X-41722748Y11698142D01*
X-41543142Y11877748D01*
X-41529000Y11863605D01*
X-41514858Y11877748D01*
X-41335253Y11698143D01*
X-41349395Y11684000D01*
X-40589785Y10924391D01*
X-40365279Y10924391D01*
X-40211609Y11073716D01*
X-40132256Y11170407D01*
X-40073292Y11280721D01*
X-40036983Y11400420D01*
X-40024722Y11524901D01*
X-40034838Y11627609D01*
X-40026399Y11626778D01*
X-39853145Y11643842D01*
X-39686549Y11694378D01*
X-39533013Y11776445D01*
X-39398437Y11886888D01*
X-39044884Y12240441D01*
X-38934441Y12375017D01*
X-38852374Y12528553D01*
X-38801838Y12695149D01*
X-38784774Y12868403D01*
X-38801838Y13041657D01*
X-38852374Y13208253D01*
X-38934441Y13361789D01*
X-39044884Y13496365D01*
X-39716635Y14168116D01*
X-39851211Y14278559D01*
X-40004747Y14360626D01*
X-40084432Y14384798D01*
X-40051868Y14492148D01*
X-40039608Y14616630D01*
X-40051868Y14741112D01*
X-40088178Y14860810D01*
X-40147143Y14971124D01*
X-40226495Y15067815D01*
X-40339944Y15181264D01*
X-40339944Y15465936D01*
X-40336258Y15503359D01*
X-40341128Y15552808D01*
X-40350970Y15652736D01*
X-40394542Y15796373D01*
X-40465299Y15928750D01*
X-40560522Y16044780D01*
X-40589592Y16068637D01*
X-41681750Y17160794D01*
X-41681750Y18069206D01*
X-41638213Y18122256D01*
X-41579248Y18232570D01*
X-41542938Y18352268D01*
X-41530678Y18476750D01*
X-41530678Y19813678D01*
X-40587156Y19813678D01*
X-40541205Y19702744D01*
X-40427937Y19533226D01*
X-40283774Y19389063D01*
X-40114256Y19275795D01*
X-39925898Y19197774D01*
X-39764004Y19165572D01*
X-39000644Y18402211D01*
X-38974791Y18370709D01*
X-38849092Y18267551D01*
X-38705684Y18190897D01*
X-38686541Y18185090D01*
X-38599712Y18079288D01*
X-38465136Y17968845D01*
X-38311600Y17886778D01*
X-38145004Y17836242D01*
X-37971750Y17819178D01*
X-37021750Y17819178D01*
X-36848496Y17836242D01*
X-36681900Y17886778D01*
X-36528364Y17968845D01*
X-36512500Y17981864D01*
X-36496636Y17968845D01*
X-36343100Y17886778D01*
X-36176504Y17836242D01*
X-36003250Y17819178D01*
X-35053250Y17819178D01*
X-34879996Y17836242D01*
X-34713400Y17886778D01*
X-34559864Y17968845D01*
X-34425288Y18079288D01*
X-34314845Y18213864D01*
X-34232778Y18367400D01*
X-34182242Y18533996D01*
X-34165178Y18707250D01*
X-34165178Y19207250D01*
X-34182242Y19380504D01*
X-34232778Y19547100D01*
X-34314845Y19700636D01*
X-34425288Y19835212D01*
X-34431844Y19840592D01*
X-34352065Y19906065D01*
X-34289999Y19981693D01*
X-34289999Y19976433D01*
G37*
G04 #@! TD.AperFunction*
D30*
X-42605253Y15762143D02*
X-42619395Y15748000D01*
X-42605253Y15733858D01*
X-42784858Y15554253D01*
X-42799000Y15568395D01*
X-42813143Y15554253D01*
X-42992748Y15733858D01*
X-42978605Y15748000D01*
X-42992748Y15762143D01*
X-42813143Y15941748D01*
X-42799000Y15927605D01*
X-42784858Y15941748D01*
X-42605253Y15762143D01*
G04 #@! TA.AperFunction,Conductor*
D32*
G36*
X-42605253Y15762143D02*
G01*
X-42619395Y15748000D01*
X-42605253Y15733858D01*
X-42784858Y15554253D01*
X-42799000Y15568395D01*
X-42813143Y15554253D01*
X-42992748Y15733858D01*
X-42978605Y15748000D01*
X-42992748Y15762143D01*
X-42813143Y15941748D01*
X-42799000Y15927605D01*
X-42784858Y15941748D01*
X-42605253Y15762143D01*
G37*
G04 #@! TD.AperFunction*
D30*
X-42843232Y26350938D02*
X-42718750Y26338678D01*
X-42431822Y26338678D01*
X-42431822Y26051750D01*
X-42419562Y25927268D01*
X-42419405Y25926750D01*
X-42419562Y25926232D01*
X-42431822Y25801750D01*
X-42431822Y25251750D01*
X-42419562Y25127268D01*
X-42419405Y25126750D01*
X-42419562Y25126232D01*
X-42431822Y25001750D01*
X-42431822Y24451750D01*
X-42419562Y24327268D01*
X-42419217Y24326130D01*
X-42428750Y24212500D01*
X-42336667Y24120417D01*
X-42324287Y24097256D01*
X-42244935Y24000565D01*
X-42154991Y23926750D01*
X-42244935Y23852935D01*
X-42324287Y23756244D01*
X-42336667Y23733083D01*
X-42428750Y23641000D01*
X-42419217Y23527370D01*
X-42419562Y23526232D01*
X-42431822Y23401750D01*
X-42431822Y22851750D01*
X-42419562Y22727268D01*
X-42419405Y22726750D01*
X-42419562Y22726232D01*
X-42431822Y22601750D01*
X-42431822Y22051750D01*
X-42419562Y21927268D01*
X-42419405Y21926750D01*
X-42419562Y21926232D01*
X-42431822Y21801750D01*
X-42431822Y21251750D01*
X-42419562Y21127268D01*
X-42419405Y21126750D01*
X-42419562Y21126232D01*
X-42431822Y21001750D01*
X-42431822Y20714822D01*
X-42718750Y20714822D01*
X-42843232Y20702562D01*
X-42843750Y20702405D01*
X-42844268Y20702562D01*
X-42968750Y20714822D01*
X-43518750Y20714822D01*
X-43643232Y20702562D01*
X-43644370Y20702217D01*
X-43758000Y20711750D01*
X-43850083Y20619667D01*
X-43873244Y20607287D01*
X-43969935Y20527935D01*
X-44043750Y20437991D01*
X-44117565Y20527935D01*
X-44214256Y20607287D01*
X-44237417Y20619667D01*
X-44329500Y20711750D01*
X-44443130Y20702217D01*
X-44444268Y20702562D01*
X-44568750Y20714822D01*
X-45118750Y20714822D01*
X-45243232Y20702562D01*
X-45243750Y20702405D01*
X-45244268Y20702562D01*
X-45368750Y20714822D01*
X-45918750Y20714822D01*
X-46043232Y20702562D01*
X-46043750Y20702405D01*
X-46044268Y20702562D01*
X-46168750Y20714822D01*
X-46718750Y20714822D01*
X-46843232Y20702562D01*
X-46843750Y20702405D01*
X-46844268Y20702562D01*
X-46968750Y20714822D01*
X-47518750Y20714822D01*
X-47643232Y20702562D01*
X-47643750Y20702405D01*
X-47644268Y20702562D01*
X-47768750Y20714822D01*
X-48055678Y20714822D01*
X-48055678Y21001750D01*
X-48067938Y21126232D01*
X-48068095Y21126750D01*
X-48067938Y21127268D01*
X-48055678Y21251750D01*
X-48055678Y21801750D01*
X-48067938Y21926232D01*
X-48068095Y21926750D01*
X-48067938Y21927268D01*
X-48055678Y22051750D01*
X-48055678Y22601750D01*
X-48067938Y22726232D01*
X-48068095Y22726750D01*
X-48067938Y22727268D01*
X-48055678Y22851750D01*
X-48055678Y23401750D01*
X-48067938Y23526232D01*
X-48068095Y23526750D01*
X-48067938Y23527268D01*
X-48055678Y23651750D01*
X-48055678Y24201750D01*
X-48067938Y24326232D01*
X-48068095Y24326750D01*
X-48067938Y24327268D01*
X-48055678Y24451750D01*
X-48055678Y25001750D01*
X-48067938Y25126232D01*
X-48068095Y25126750D01*
X-48067938Y25127268D01*
X-48055678Y25251750D01*
X-48055678Y25801750D01*
X-48067938Y25926232D01*
X-48068095Y25926750D01*
X-48067938Y25927268D01*
X-48055678Y26051750D01*
X-48055678Y26338678D01*
X-47768750Y26338678D01*
X-47644268Y26350938D01*
X-47643750Y26351095D01*
X-47643232Y26350938D01*
X-47518750Y26338678D01*
X-46968750Y26338678D01*
X-46844268Y26350938D01*
X-46843750Y26351095D01*
X-46843232Y26350938D01*
X-46718750Y26338678D01*
X-46168750Y26338678D01*
X-46044268Y26350938D01*
X-46043750Y26351095D01*
X-46043232Y26350938D01*
X-45918750Y26338678D01*
X-45368750Y26338678D01*
X-45244268Y26350938D01*
X-45243750Y26351095D01*
X-45243232Y26350938D01*
X-45118750Y26338678D01*
X-44568750Y26338678D01*
X-44444268Y26350938D01*
X-44443750Y26351095D01*
X-44443232Y26350938D01*
X-44318750Y26338678D01*
X-43768750Y26338678D01*
X-43644268Y26350938D01*
X-43643750Y26351095D01*
X-43643232Y26350938D01*
X-43518750Y26338678D01*
X-42968750Y26338678D01*
X-42844268Y26350938D01*
X-42843750Y26351095D01*
X-42843232Y26350938D01*
G04 #@! TA.AperFunction,Conductor*
D32*
G36*
X-42843232Y26350938D02*
G01*
X-42718750Y26338678D01*
X-42431822Y26338678D01*
X-42431822Y26051750D01*
X-42419562Y25927268D01*
X-42419405Y25926750D01*
X-42419562Y25926232D01*
X-42431822Y25801750D01*
X-42431822Y25251750D01*
X-42419562Y25127268D01*
X-42419405Y25126750D01*
X-42419562Y25126232D01*
X-42431822Y25001750D01*
X-42431822Y24451750D01*
X-42419562Y24327268D01*
X-42419217Y24326130D01*
X-42428750Y24212500D01*
X-42336667Y24120417D01*
X-42324287Y24097256D01*
X-42244935Y24000565D01*
X-42154991Y23926750D01*
X-42244935Y23852935D01*
X-42324287Y23756244D01*
X-42336667Y23733083D01*
X-42428750Y23641000D01*
X-42419217Y23527370D01*
X-42419562Y23526232D01*
X-42431822Y23401750D01*
X-42431822Y22851750D01*
X-42419562Y22727268D01*
X-42419405Y22726750D01*
X-42419562Y22726232D01*
X-42431822Y22601750D01*
X-42431822Y22051750D01*
X-42419562Y21927268D01*
X-42419405Y21926750D01*
X-42419562Y21926232D01*
X-42431822Y21801750D01*
X-42431822Y21251750D01*
X-42419562Y21127268D01*
X-42419405Y21126750D01*
X-42419562Y21126232D01*
X-42431822Y21001750D01*
X-42431822Y20714822D01*
X-42718750Y20714822D01*
X-42843232Y20702562D01*
X-42843750Y20702405D01*
X-42844268Y20702562D01*
X-42968750Y20714822D01*
X-43518750Y20714822D01*
X-43643232Y20702562D01*
X-43644370Y20702217D01*
X-43758000Y20711750D01*
X-43850083Y20619667D01*
X-43873244Y20607287D01*
X-43969935Y20527935D01*
X-44043750Y20437991D01*
X-44117565Y20527935D01*
X-44214256Y20607287D01*
X-44237417Y20619667D01*
X-44329500Y20711750D01*
X-44443130Y20702217D01*
X-44444268Y20702562D01*
X-44568750Y20714822D01*
X-45118750Y20714822D01*
X-45243232Y20702562D01*
X-45243750Y20702405D01*
X-45244268Y20702562D01*
X-45368750Y20714822D01*
X-45918750Y20714822D01*
X-46043232Y20702562D01*
X-46043750Y20702405D01*
X-46044268Y20702562D01*
X-46168750Y20714822D01*
X-46718750Y20714822D01*
X-46843232Y20702562D01*
X-46843750Y20702405D01*
X-46844268Y20702562D01*
X-46968750Y20714822D01*
X-47518750Y20714822D01*
X-47643232Y20702562D01*
X-47643750Y20702405D01*
X-47644268Y20702562D01*
X-47768750Y20714822D01*
X-48055678Y20714822D01*
X-48055678Y21001750D01*
X-48067938Y21126232D01*
X-48068095Y21126750D01*
X-48067938Y21127268D01*
X-48055678Y21251750D01*
X-48055678Y21801750D01*
X-48067938Y21926232D01*
X-48068095Y21926750D01*
X-48067938Y21927268D01*
X-48055678Y22051750D01*
X-48055678Y22601750D01*
X-48067938Y22726232D01*
X-48068095Y22726750D01*
X-48067938Y22727268D01*
X-48055678Y22851750D01*
X-48055678Y23401750D01*
X-48067938Y23526232D01*
X-48068095Y23526750D01*
X-48067938Y23527268D01*
X-48055678Y23651750D01*
X-48055678Y24201750D01*
X-48067938Y24326232D01*
X-48068095Y24326750D01*
X-48067938Y24327268D01*
X-48055678Y24451750D01*
X-48055678Y25001750D01*
X-48067938Y25126232D01*
X-48068095Y25126750D01*
X-48067938Y25127268D01*
X-48055678Y25251750D01*
X-48055678Y25801750D01*
X-48067938Y25926232D01*
X-48068095Y25926750D01*
X-48067938Y25927268D01*
X-48055678Y26051750D01*
X-48055678Y26338678D01*
X-47768750Y26338678D01*
X-47644268Y26350938D01*
X-47643750Y26351095D01*
X-47643232Y26350938D01*
X-47518750Y26338678D01*
X-46968750Y26338678D01*
X-46844268Y26350938D01*
X-46843750Y26351095D01*
X-46843232Y26350938D01*
X-46718750Y26338678D01*
X-46168750Y26338678D01*
X-46044268Y26350938D01*
X-46043750Y26351095D01*
X-46043232Y26350938D01*
X-45918750Y26338678D01*
X-45368750Y26338678D01*
X-45244268Y26350938D01*
X-45243750Y26351095D01*
X-45243232Y26350938D01*
X-45118750Y26338678D01*
X-44568750Y26338678D01*
X-44444268Y26350938D01*
X-44443750Y26351095D01*
X-44443232Y26350938D01*
X-44318750Y26338678D01*
X-43768750Y26338678D01*
X-43644268Y26350938D01*
X-43643750Y26351095D01*
X-43643232Y26350938D01*
X-43518750Y26338678D01*
X-42968750Y26338678D01*
X-42844268Y26350938D01*
X-42843750Y26351095D01*
X-42843232Y26350938D01*
G37*
G04 #@! TD.AperFunction*
D30*
X-35621643Y28406181D02*
X-35411319Y28195857D01*
X-35164003Y28030606D01*
X-34889201Y27916779D01*
X-34597472Y27858750D01*
X-34300028Y27858750D01*
X-34290000Y27860745D01*
X-34289999Y21732807D01*
X-34352065Y21808435D01*
X-34448756Y21887787D01*
X-34559070Y21946752D01*
X-34678768Y21983062D01*
X-34803250Y21995322D01*
X-35242500Y21992250D01*
X-35401250Y21833500D01*
X-35401250Y20984250D01*
X-35381250Y20984250D01*
X-35381250Y20730250D01*
X-35401250Y20730250D01*
X-35401250Y20710250D01*
X-35655250Y20710250D01*
X-35655250Y20730250D01*
X-37369750Y20730250D01*
X-37369750Y20710250D01*
X-37623750Y20710250D01*
X-37623750Y20730250D01*
X-37643750Y20730250D01*
X-37643750Y20984250D01*
X-37623750Y20984250D01*
X-37623750Y21833500D01*
X-37369750Y21833500D01*
X-37369750Y20984250D01*
X-35655250Y20984250D01*
X-35655250Y21833500D01*
X-35814000Y21992250D01*
X-36253250Y21995322D01*
X-36377732Y21983062D01*
X-36497430Y21946752D01*
X-36512500Y21938697D01*
X-36527570Y21946752D01*
X-36647268Y21983062D01*
X-36771750Y21995322D01*
X-37211000Y21992250D01*
X-37369750Y21833500D01*
X-37623750Y21833500D01*
X-37782500Y21992250D01*
X-38221750Y21995322D01*
X-38346232Y21983062D01*
X-38465930Y21946752D01*
X-38576244Y21887787D01*
X-38672935Y21808435D01*
X-38752287Y21711744D01*
X-38811252Y21601430D01*
X-38847562Y21481732D01*
X-38859822Y21357250D01*
X-38856750Y21143000D01*
X-38698002Y20984252D01*
X-38856750Y20984252D01*
X-38856750Y20889461D01*
X-38964226Y20996937D01*
X-39133744Y21110205D01*
X-39322102Y21188226D01*
X-39483997Y21220429D01*
X-39545352Y21281784D01*
X-39555678Y21294366D01*
X-39555678Y21630895D01*
X-39511116Y21644413D01*
X-39383429Y21712663D01*
X-39317524Y21766750D01*
X-39199138Y21766750D01*
X-39163033Y21763194D01*
X-39126928Y21766750D01*
X-39018948Y21777385D01*
X-38880400Y21819413D01*
X-38752713Y21887663D01*
X-38640795Y21979512D01*
X-38617775Y22007562D01*
X-38078371Y22546966D01*
X-38023113Y22524077D01*
X-37823154Y22484303D01*
X-37619276Y22484303D01*
X-37419317Y22524077D01*
X-37230959Y22602098D01*
X-37061441Y22715366D01*
X-36917278Y22859529D01*
X-36804010Y23029047D01*
X-36725989Y23217405D01*
X-36703988Y23328011D01*
X-36617937Y23199226D01*
X-36473774Y23055063D01*
X-36304256Y22941795D01*
X-36115898Y22863774D01*
X-35915939Y22824000D01*
X-35712061Y22824000D01*
X-35512102Y22863774D01*
X-35323744Y22941795D01*
X-35154226Y23055063D01*
X-35010063Y23199226D01*
X-34896795Y23368744D01*
X-34818774Y23557102D01*
X-34779000Y23757061D01*
X-34779000Y23960939D01*
X-34818774Y24160898D01*
X-34896795Y24349256D01*
X-34920010Y24384000D01*
X-34896795Y24418744D01*
X-34818774Y24607102D01*
X-34779000Y24807061D01*
X-34779000Y25010939D01*
X-34818774Y25210898D01*
X-34896795Y25399256D01*
X-35010063Y25568774D01*
X-35154226Y25712937D01*
X-35323744Y25826205D01*
X-35512102Y25904226D01*
X-35712061Y25944000D01*
X-35805383Y25944000D01*
X-35762992Y26083744D01*
X-35745928Y26256998D01*
X-35745928Y26782002D01*
X-35762992Y26955256D01*
X-35813528Y27121852D01*
X-35895595Y27275387D01*
X-36006038Y27409962D01*
X-36032891Y27432000D01*
X-36006038Y27454038D01*
X-35895595Y27588613D01*
X-35813528Y27742148D01*
X-35762992Y27908744D01*
X-35745928Y28081998D01*
X-35745928Y28592187D01*
X-35621643Y28406181D01*
G04 #@! TA.AperFunction,Conductor*
D32*
G36*
X-35621643Y28406181D02*
G01*
X-35411319Y28195857D01*
X-35164003Y28030606D01*
X-34889201Y27916779D01*
X-34597472Y27858750D01*
X-34300028Y27858750D01*
X-34290000Y27860745D01*
X-34289999Y21732807D01*
X-34352065Y21808435D01*
X-34448756Y21887787D01*
X-34559070Y21946752D01*
X-34678768Y21983062D01*
X-34803250Y21995322D01*
X-35242500Y21992250D01*
X-35401250Y21833500D01*
X-35401250Y20984250D01*
X-35381250Y20984250D01*
X-35381250Y20730250D01*
X-35401250Y20730250D01*
X-35401250Y20710250D01*
X-35655250Y20710250D01*
X-35655250Y20730250D01*
X-37369750Y20730250D01*
X-37369750Y20710250D01*
X-37623750Y20710250D01*
X-37623750Y20730250D01*
X-37643750Y20730250D01*
X-37643750Y20984250D01*
X-37623750Y20984250D01*
X-37623750Y21833500D01*
X-37369750Y21833500D01*
X-37369750Y20984250D01*
X-35655250Y20984250D01*
X-35655250Y21833500D01*
X-35814000Y21992250D01*
X-36253250Y21995322D01*
X-36377732Y21983062D01*
X-36497430Y21946752D01*
X-36512500Y21938697D01*
X-36527570Y21946752D01*
X-36647268Y21983062D01*
X-36771750Y21995322D01*
X-37211000Y21992250D01*
X-37369750Y21833500D01*
X-37623750Y21833500D01*
X-37782500Y21992250D01*
X-38221750Y21995322D01*
X-38346232Y21983062D01*
X-38465930Y21946752D01*
X-38576244Y21887787D01*
X-38672935Y21808435D01*
X-38752287Y21711744D01*
X-38811252Y21601430D01*
X-38847562Y21481732D01*
X-38859822Y21357250D01*
X-38856750Y21143000D01*
X-38698002Y20984252D01*
X-38856750Y20984252D01*
X-38856750Y20889461D01*
X-38964226Y20996937D01*
X-39133744Y21110205D01*
X-39322102Y21188226D01*
X-39483997Y21220429D01*
X-39545352Y21281784D01*
X-39555678Y21294366D01*
X-39555678Y21630895D01*
X-39511116Y21644413D01*
X-39383429Y21712663D01*
X-39317524Y21766750D01*
X-39199138Y21766750D01*
X-39163033Y21763194D01*
X-39126928Y21766750D01*
X-39018948Y21777385D01*
X-38880400Y21819413D01*
X-38752713Y21887663D01*
X-38640795Y21979512D01*
X-38617775Y22007562D01*
X-38078371Y22546966D01*
X-38023113Y22524077D01*
X-37823154Y22484303D01*
X-37619276Y22484303D01*
X-37419317Y22524077D01*
X-37230959Y22602098D01*
X-37061441Y22715366D01*
X-36917278Y22859529D01*
X-36804010Y23029047D01*
X-36725989Y23217405D01*
X-36703988Y23328011D01*
X-36617937Y23199226D01*
X-36473774Y23055063D01*
X-36304256Y22941795D01*
X-36115898Y22863774D01*
X-35915939Y22824000D01*
X-35712061Y22824000D01*
X-35512102Y22863774D01*
X-35323744Y22941795D01*
X-35154226Y23055063D01*
X-35010063Y23199226D01*
X-34896795Y23368744D01*
X-34818774Y23557102D01*
X-34779000Y23757061D01*
X-34779000Y23960939D01*
X-34818774Y24160898D01*
X-34896795Y24349256D01*
X-34920010Y24384000D01*
X-34896795Y24418744D01*
X-34818774Y24607102D01*
X-34779000Y24807061D01*
X-34779000Y25010939D01*
X-34818774Y25210898D01*
X-34896795Y25399256D01*
X-35010063Y25568774D01*
X-35154226Y25712937D01*
X-35323744Y25826205D01*
X-35512102Y25904226D01*
X-35712061Y25944000D01*
X-35805383Y25944000D01*
X-35762992Y26083744D01*
X-35745928Y26256998D01*
X-35745928Y26782002D01*
X-35762992Y26955256D01*
X-35813528Y27121852D01*
X-35895595Y27275387D01*
X-36006038Y27409962D01*
X-36032891Y27432000D01*
X-36006038Y27454038D01*
X-35895595Y27588613D01*
X-35813528Y27742148D01*
X-35762992Y27908744D01*
X-35745928Y28081998D01*
X-35745928Y28592187D01*
X-35621643Y28406181D01*
G37*
G04 #@! TD.AperFunction*
D30*
X-39458905Y23959869D02*
X-39436016Y23904611D01*
X-39526787Y23813841D01*
X-39649664Y23851115D01*
X-39752715Y23861264D01*
X-39832509Y23926750D01*
X-39787138Y23963985D01*
X-39754583Y23957509D01*
X-39550705Y23957509D01*
X-39461947Y23975164D01*
X-39458905Y23959869D01*
G04 #@! TA.AperFunction,Conductor*
D32*
G36*
X-39458905Y23959869D02*
G01*
X-39436016Y23904611D01*
X-39526787Y23813841D01*
X-39649664Y23851115D01*
X-39752715Y23861264D01*
X-39832509Y23926750D01*
X-39787138Y23963985D01*
X-39754583Y23957509D01*
X-39550705Y23957509D01*
X-39461947Y23975164D01*
X-39458905Y23959869D01*
G37*
G04 #@! TD.AperFunction*
D30*
X-34871114Y31395377D02*
X-34738442Y31075077D01*
X-34606112Y30877031D01*
X-34889201Y30820721D01*
X-35164003Y30706894D01*
X-35411319Y30541643D01*
X-35621643Y30331319D01*
X-35786894Y30084003D01*
X-35900721Y29809201D01*
X-35958750Y29517472D01*
X-35958750Y29220028D01*
X-35947543Y29163685D01*
X-36006038Y29234962D01*
X-36140613Y29345405D01*
X-36294148Y29427472D01*
X-36460744Y29478008D01*
X-36619928Y29493686D01*
X-36619928Y30084000D01*
X-36632188Y30208482D01*
X-36668498Y30328180D01*
X-36727463Y30438494D01*
X-36805842Y30534000D01*
X-36727463Y30629506D01*
X-36668498Y30739820D01*
X-36632188Y30859518D01*
X-36619928Y30984000D01*
X-36623000Y31198250D01*
X-36781748Y31356998D01*
X-36623000Y31356998D01*
X-36623000Y31398899D01*
X-36571496Y31383275D01*
X-36459544Y31372249D01*
X-36459541Y31372249D01*
X-36422118Y31368563D01*
X-36384695Y31372249D01*
X-35139636Y31372249D01*
X-35102213Y31368563D01*
X-35064790Y31372249D01*
X-35064787Y31372249D01*
X-34952835Y31383275D01*
X-34873494Y31407343D01*
X-34871114Y31395377D01*
G04 #@! TA.AperFunction,Conductor*
D32*
G36*
X-34871114Y31395377D02*
G01*
X-34738442Y31075077D01*
X-34606112Y30877031D01*
X-34889201Y30820721D01*
X-35164003Y30706894D01*
X-35411319Y30541643D01*
X-35621643Y30331319D01*
X-35786894Y30084003D01*
X-35900721Y29809201D01*
X-35958750Y29517472D01*
X-35958750Y29220028D01*
X-35947543Y29163685D01*
X-36006038Y29234962D01*
X-36140613Y29345405D01*
X-36294148Y29427472D01*
X-36460744Y29478008D01*
X-36619928Y29493686D01*
X-36619928Y30084000D01*
X-36632188Y30208482D01*
X-36668498Y30328180D01*
X-36727463Y30438494D01*
X-36805842Y30534000D01*
X-36727463Y30629506D01*
X-36668498Y30739820D01*
X-36632188Y30859518D01*
X-36619928Y30984000D01*
X-36623000Y31198250D01*
X-36781748Y31356998D01*
X-36623000Y31356998D01*
X-36623000Y31398899D01*
X-36571496Y31383275D01*
X-36459544Y31372249D01*
X-36459541Y31372249D01*
X-36422118Y31368563D01*
X-36384695Y31372249D01*
X-35139636Y31372249D01*
X-35102213Y31368563D01*
X-35064790Y31372249D01*
X-35064787Y31372249D01*
X-34952835Y31383275D01*
X-34873494Y31407343D01*
X-34871114Y31395377D01*
G37*
G04 #@! TD.AperFunction*
D30*
X-37481000Y31611000D02*
X-37461000Y31611000D01*
X-37461000Y31357000D01*
X-37481000Y31357000D01*
X-37481000Y31337000D01*
X-37523001Y31337000D01*
X-37523001Y31631000D01*
X-37481000Y31631000D01*
X-37481000Y31611000D01*
G04 #@! TA.AperFunction,Conductor*
D32*
G36*
X-37481000Y31611000D02*
G01*
X-37461000Y31611000D01*
X-37461000Y31357000D01*
X-37481000Y31357000D01*
X-37481000Y31337000D01*
X-37523001Y31337000D01*
X-37523001Y31631000D01*
X-37481000Y31631000D01*
X-37481000Y31611000D01*
G37*
G04 #@! TD.AperFunction*
D30*
X-41402000Y31684000D02*
X-41382000Y31684000D01*
X-41382000Y31430000D01*
X-41402000Y31430000D01*
X-41402000Y31410000D01*
X-41656000Y31410000D01*
X-41656000Y31430000D01*
X-41676000Y31430000D01*
X-41676000Y31684000D01*
X-41656000Y31684000D01*
X-41656000Y31704000D01*
X-41402000Y31704000D01*
X-41402000Y31684000D01*
G04 #@! TA.AperFunction,Conductor*
D32*
G36*
X-41402000Y31684000D02*
G01*
X-41382000Y31684000D01*
X-41382000Y31430000D01*
X-41402000Y31430000D01*
X-41402000Y31410000D01*
X-41656000Y31410000D01*
X-41656000Y31430000D01*
X-41676000Y31430000D01*
X-41676000Y31684000D01*
X-41656000Y31684000D01*
X-41656000Y31704000D01*
X-41402000Y31704000D01*
X-41402000Y31684000D01*
G37*
G04 #@! TD.AperFunction*
D30*
X-35708750Y39595750D02*
X-34700750Y39595750D01*
X-34700750Y39615750D01*
X-34446750Y39615750D01*
X-34446750Y39595750D01*
X-34426750Y39595750D01*
X-34426750Y39341750D01*
X-34446750Y39341750D01*
X-34446750Y38200796D01*
X-34271876Y38074631D01*
X-34256301Y38080205D01*
X-34255810Y38075224D01*
X-34248583Y38051399D01*
X-34236847Y38029443D01*
X-34221053Y38010197D01*
X-33949838Y37738982D01*
X-33905962Y37597242D01*
X-33882787Y37542110D01*
X-33860374Y37486636D01*
X-33856048Y37478499D01*
X-33782368Y37342230D01*
X-33748933Y37292662D01*
X-33716162Y37242581D01*
X-33710337Y37235440D01*
X-33611591Y37116077D01*
X-33569157Y37073938D01*
X-33527294Y37031189D01*
X-33520193Y37025315D01*
X-33400145Y36927406D01*
X-33350318Y36894301D01*
X-33300962Y36860506D01*
X-33292856Y36856123D01*
X-33156075Y36783396D01*
X-33100773Y36760602D01*
X-33045790Y36737036D01*
X-33036987Y36734311D01*
X-32928493Y36701554D01*
X-32926250Y36536000D01*
X-32767500Y36377250D01*
X-31718250Y36377250D01*
X-31718250Y36397250D01*
X-31464250Y36397250D01*
X-31464250Y36377250D01*
X-31444250Y36377250D01*
X-31444250Y36123250D01*
X-31464250Y36123250D01*
X-31464250Y36103250D01*
X-31718250Y36103250D01*
X-31718250Y36123250D01*
X-32767500Y36123250D01*
X-32926250Y35964500D01*
X-32929322Y35737750D01*
X-32917062Y35613268D01*
X-32880752Y35493570D01*
X-32821787Y35383256D01*
X-32742435Y35286565D01*
X-32712974Y35262387D01*
X-32774575Y35187327D01*
X-32811212Y35190936D01*
X-32848635Y35187250D01*
X-32848638Y35187250D01*
X-32960590Y35176224D01*
X-33104227Y35132652D01*
X-33119059Y35124724D01*
X-33236605Y35061895D01*
X-33275929Y35029622D01*
X-33352634Y34966672D01*
X-33376496Y34937596D01*
X-33438750Y34875342D01*
X-33438750Y35161750D01*
X-34446750Y35161750D01*
X-34446750Y35141750D01*
X-34700750Y35141750D01*
X-34700750Y35161750D01*
X-34720750Y35161750D01*
X-34720750Y35415750D01*
X-34700750Y35415750D01*
X-34700750Y36806704D01*
X-34446750Y36806704D01*
X-34446750Y35415750D01*
X-33438750Y35415750D01*
X-33438750Y35965750D01*
X-33485335Y36184737D01*
X-33573747Y36390428D01*
X-33700589Y36574919D01*
X-33860986Y36731119D01*
X-34048774Y36853026D01*
X-34271876Y36932869D01*
X-34446750Y36806704D01*
X-34700750Y36806704D01*
X-34875624Y36932869D01*
X-35098726Y36853026D01*
X-35286514Y36731119D01*
X-35430866Y36590544D01*
X-35549019Y36669491D01*
X-35723728Y36741858D01*
X-35909198Y36778750D01*
X-36098302Y36778750D01*
X-36283772Y36741858D01*
X-36458481Y36669491D01*
X-36615714Y36564431D01*
X-36749431Y36430714D01*
X-36854491Y36273481D01*
X-36926858Y36098772D01*
X-36963750Y35913302D01*
X-36963750Y35733867D01*
X-36993750Y35736822D01*
X-37293750Y35736822D01*
X-37393750Y35726973D01*
X-37493750Y35736822D01*
X-37793750Y35736822D01*
X-37893750Y35726973D01*
X-37984534Y35735914D01*
X-38007105Y35778142D01*
X-38102328Y35894172D01*
X-38131404Y35918034D01*
X-38151467Y35938097D01*
X-38175329Y35967173D01*
X-38291359Y36062396D01*
X-38423736Y36133153D01*
X-38567373Y36176725D01*
X-38679325Y36187751D01*
X-38679328Y36187751D01*
X-38716751Y36191437D01*
X-38754174Y36187751D01*
X-39517929Y36187751D01*
X-39555352Y36191437D01*
X-39592775Y36187751D01*
X-39592777Y36187751D01*
X-39704729Y36176725D01*
X-39848366Y36133153D01*
X-39980743Y36062396D01*
X-40096773Y35967173D01*
X-40120635Y35938097D01*
X-40156096Y35902636D01*
X-40185172Y35878774D01*
X-40236980Y35815645D01*
X-40280395Y35762744D01*
X-40293754Y35737750D01*
X-40294278Y35736770D01*
X-40393750Y35726973D01*
X-40493750Y35736822D01*
X-40793750Y35736822D01*
X-40823750Y35733867D01*
X-40823750Y35913302D01*
X-40860642Y36098772D01*
X-40933009Y36273481D01*
X-41038069Y36430714D01*
X-41171786Y36564431D01*
X-41329019Y36669491D01*
X-41503728Y36741858D01*
X-41689198Y36778750D01*
X-41878302Y36778750D01*
X-42063772Y36741858D01*
X-42238481Y36669491D01*
X-42356634Y36590544D01*
X-42500986Y36731119D01*
X-42688774Y36853026D01*
X-42911876Y36932869D01*
X-43086750Y36806704D01*
X-43086750Y35415750D01*
X-43066750Y35415750D01*
X-43066750Y35161750D01*
X-43086750Y35161750D01*
X-43086750Y35141750D01*
X-43340750Y35141750D01*
X-43340750Y35161750D01*
X-43360750Y35161750D01*
X-43360750Y35415750D01*
X-43340750Y35415750D01*
X-43340750Y36806704D01*
X-43515624Y36932869D01*
X-43738726Y36853026D01*
X-43926514Y36731119D01*
X-44086911Y36574919D01*
X-44171364Y36452082D01*
X-44351570Y36526726D01*
X-44545928Y36565386D01*
X-44545928Y36772002D01*
X-44551255Y36826088D01*
X-44485980Y36861382D01*
X-44436412Y36894817D01*
X-44386331Y36927588D01*
X-44379190Y36933413D01*
X-44259827Y37032159D01*
X-44217688Y37074593D01*
X-44174939Y37116456D01*
X-44169065Y37123557D01*
X-44071156Y37243605D01*
X-44038051Y37293432D01*
X-44004256Y37342788D01*
X-43999873Y37350894D01*
X-43927146Y37487675D01*
X-43904352Y37542977D01*
X-43880786Y37597960D01*
X-43878061Y37606763D01*
X-43838349Y37738295D01*
X-43566447Y38010197D01*
X-43550653Y38029443D01*
X-43538917Y38051399D01*
X-43531690Y38075224D01*
X-43531199Y38080205D01*
X-43515624Y38074631D01*
X-43340750Y38200796D01*
X-43340750Y39341750D01*
X-43086750Y39341750D01*
X-43086750Y38200796D01*
X-42911876Y38074631D01*
X-42688774Y38154474D01*
X-42500986Y38276381D01*
X-42340589Y38432581D01*
X-42213747Y38617072D01*
X-42125335Y38822763D01*
X-42078750Y39041750D01*
X-42078750Y39341750D01*
X-35708750Y39341750D01*
X-35708750Y39041750D01*
X-35662165Y38822763D01*
X-35573753Y38617072D01*
X-35446911Y38432581D01*
X-35286514Y38276381D01*
X-35098726Y38154474D01*
X-34875624Y38074631D01*
X-34700750Y38200796D01*
X-34700750Y39341750D01*
X-35708750Y39341750D01*
X-42078750Y39341750D01*
X-43086750Y39341750D01*
X-43340750Y39341750D01*
X-43360750Y39341750D01*
X-43360750Y39595750D01*
X-43340750Y39595750D01*
X-43340750Y39615750D01*
X-43086750Y39615750D01*
X-43086750Y39595750D01*
X-42078750Y39595750D01*
X-42078750Y39821250D01*
X-35708750Y39821250D01*
X-35708750Y39595750D01*
G04 #@! TA.AperFunction,Conductor*
D32*
G36*
X-35708750Y39595750D02*
G01*
X-34700750Y39595750D01*
X-34700750Y39615750D01*
X-34446750Y39615750D01*
X-34446750Y39595750D01*
X-34426750Y39595750D01*
X-34426750Y39341750D01*
X-34446750Y39341750D01*
X-34446750Y38200796D01*
X-34271876Y38074631D01*
X-34256301Y38080205D01*
X-34255810Y38075224D01*
X-34248583Y38051399D01*
X-34236847Y38029443D01*
X-34221053Y38010197D01*
X-33949838Y37738982D01*
X-33905962Y37597242D01*
X-33882787Y37542110D01*
X-33860374Y37486636D01*
X-33856048Y37478499D01*
X-33782368Y37342230D01*
X-33748933Y37292662D01*
X-33716162Y37242581D01*
X-33710337Y37235440D01*
X-33611591Y37116077D01*
X-33569157Y37073938D01*
X-33527294Y37031189D01*
X-33520193Y37025315D01*
X-33400145Y36927406D01*
X-33350318Y36894301D01*
X-33300962Y36860506D01*
X-33292856Y36856123D01*
X-33156075Y36783396D01*
X-33100773Y36760602D01*
X-33045790Y36737036D01*
X-33036987Y36734311D01*
X-32928493Y36701554D01*
X-32926250Y36536000D01*
X-32767500Y36377250D01*
X-31718250Y36377250D01*
X-31718250Y36397250D01*
X-31464250Y36397250D01*
X-31464250Y36377250D01*
X-31444250Y36377250D01*
X-31444250Y36123250D01*
X-31464250Y36123250D01*
X-31464250Y36103250D01*
X-31718250Y36103250D01*
X-31718250Y36123250D01*
X-32767500Y36123250D01*
X-32926250Y35964500D01*
X-32929322Y35737750D01*
X-32917062Y35613268D01*
X-32880752Y35493570D01*
X-32821787Y35383256D01*
X-32742435Y35286565D01*
X-32712974Y35262387D01*
X-32774575Y35187327D01*
X-32811212Y35190936D01*
X-32848635Y35187250D01*
X-32848638Y35187250D01*
X-32960590Y35176224D01*
X-33104227Y35132652D01*
X-33119059Y35124724D01*
X-33236605Y35061895D01*
X-33275929Y35029622D01*
X-33352634Y34966672D01*
X-33376496Y34937596D01*
X-33438750Y34875342D01*
X-33438750Y35161750D01*
X-34446750Y35161750D01*
X-34446750Y35141750D01*
X-34700750Y35141750D01*
X-34700750Y35161750D01*
X-34720750Y35161750D01*
X-34720750Y35415750D01*
X-34700750Y35415750D01*
X-34700750Y36806704D01*
X-34446750Y36806704D01*
X-34446750Y35415750D01*
X-33438750Y35415750D01*
X-33438750Y35965750D01*
X-33485335Y36184737D01*
X-33573747Y36390428D01*
X-33700589Y36574919D01*
X-33860986Y36731119D01*
X-34048774Y36853026D01*
X-34271876Y36932869D01*
X-34446750Y36806704D01*
X-34700750Y36806704D01*
X-34875624Y36932869D01*
X-35098726Y36853026D01*
X-35286514Y36731119D01*
X-35430866Y36590544D01*
X-35549019Y36669491D01*
X-35723728Y36741858D01*
X-35909198Y36778750D01*
X-36098302Y36778750D01*
X-36283772Y36741858D01*
X-36458481Y36669491D01*
X-36615714Y36564431D01*
X-36749431Y36430714D01*
X-36854491Y36273481D01*
X-36926858Y36098772D01*
X-36963750Y35913302D01*
X-36963750Y35733867D01*
X-36993750Y35736822D01*
X-37293750Y35736822D01*
X-37393750Y35726973D01*
X-37493750Y35736822D01*
X-37793750Y35736822D01*
X-37893750Y35726973D01*
X-37984534Y35735914D01*
X-38007105Y35778142D01*
X-38102328Y35894172D01*
X-38131404Y35918034D01*
X-38151467Y35938097D01*
X-38175329Y35967173D01*
X-38291359Y36062396D01*
X-38423736Y36133153D01*
X-38567373Y36176725D01*
X-38679325Y36187751D01*
X-38679328Y36187751D01*
X-38716751Y36191437D01*
X-38754174Y36187751D01*
X-39517929Y36187751D01*
X-39555352Y36191437D01*
X-39592775Y36187751D01*
X-39592777Y36187751D01*
X-39704729Y36176725D01*
X-39848366Y36133153D01*
X-39980743Y36062396D01*
X-40096773Y35967173D01*
X-40120635Y35938097D01*
X-40156096Y35902636D01*
X-40185172Y35878774D01*
X-40236980Y35815645D01*
X-40280395Y35762744D01*
X-40293754Y35737750D01*
X-40294278Y35736770D01*
X-40393750Y35726973D01*
X-40493750Y35736822D01*
X-40793750Y35736822D01*
X-40823750Y35733867D01*
X-40823750Y35913302D01*
X-40860642Y36098772D01*
X-40933009Y36273481D01*
X-41038069Y36430714D01*
X-41171786Y36564431D01*
X-41329019Y36669491D01*
X-41503728Y36741858D01*
X-41689198Y36778750D01*
X-41878302Y36778750D01*
X-42063772Y36741858D01*
X-42238481Y36669491D01*
X-42356634Y36590544D01*
X-42500986Y36731119D01*
X-42688774Y36853026D01*
X-42911876Y36932869D01*
X-43086750Y36806704D01*
X-43086750Y35415750D01*
X-43066750Y35415750D01*
X-43066750Y35161750D01*
X-43086750Y35161750D01*
X-43086750Y35141750D01*
X-43340750Y35141750D01*
X-43340750Y35161750D01*
X-43360750Y35161750D01*
X-43360750Y35415750D01*
X-43340750Y35415750D01*
X-43340750Y36806704D01*
X-43515624Y36932869D01*
X-43738726Y36853026D01*
X-43926514Y36731119D01*
X-44086911Y36574919D01*
X-44171364Y36452082D01*
X-44351570Y36526726D01*
X-44545928Y36565386D01*
X-44545928Y36772002D01*
X-44551255Y36826088D01*
X-44485980Y36861382D01*
X-44436412Y36894817D01*
X-44386331Y36927588D01*
X-44379190Y36933413D01*
X-44259827Y37032159D01*
X-44217688Y37074593D01*
X-44174939Y37116456D01*
X-44169065Y37123557D01*
X-44071156Y37243605D01*
X-44038051Y37293432D01*
X-44004256Y37342788D01*
X-43999873Y37350894D01*
X-43927146Y37487675D01*
X-43904352Y37542977D01*
X-43880786Y37597960D01*
X-43878061Y37606763D01*
X-43838349Y37738295D01*
X-43566447Y38010197D01*
X-43550653Y38029443D01*
X-43538917Y38051399D01*
X-43531690Y38075224D01*
X-43531199Y38080205D01*
X-43515624Y38074631D01*
X-43340750Y38200796D01*
X-43340750Y39341750D01*
X-43086750Y39341750D01*
X-43086750Y38200796D01*
X-42911876Y38074631D01*
X-42688774Y38154474D01*
X-42500986Y38276381D01*
X-42340589Y38432581D01*
X-42213747Y38617072D01*
X-42125335Y38822763D01*
X-42078750Y39041750D01*
X-42078750Y39341750D01*
X-35708750Y39341750D01*
X-35708750Y39041750D01*
X-35662165Y38822763D01*
X-35573753Y38617072D01*
X-35446911Y38432581D01*
X-35286514Y38276381D01*
X-35098726Y38154474D01*
X-34875624Y38074631D01*
X-34700750Y38200796D01*
X-34700750Y39341750D01*
X-35708750Y39341750D01*
X-42078750Y39341750D01*
X-43086750Y39341750D01*
X-43340750Y39341750D01*
X-43360750Y39341750D01*
X-43360750Y39595750D01*
X-43340750Y39595750D01*
X-43340750Y39615750D01*
X-43086750Y39615750D01*
X-43086750Y39595750D01*
X-42078750Y39595750D01*
X-42078750Y39821250D01*
X-35708750Y39821250D01*
X-35708750Y39595750D01*
G37*
G04 #@! TD.AperFunction*
D30*
X-47374500Y36195000D02*
X-47394500Y36195000D01*
X-47394500Y36175000D01*
X-47573611Y36175000D01*
X-47374500Y36423889D01*
X-47374500Y36195000D01*
G04 #@! TA.AperFunction,Conductor*
D32*
G36*
X-47374500Y36195000D02*
G01*
X-47394500Y36195000D01*
X-47394500Y36175000D01*
X-47573611Y36175000D01*
X-47374500Y36423889D01*
X-47374500Y36195000D01*
G37*
G04 #@! TD.AperFunction*
G04 #@! TD*
M02*
