G04 #@! TF.GenerationSoftware,KiCad,Pcbnew,(5.1.9-0-10_14)*
G04 #@! TF.CreationDate,2021-03-17T22:28:09-07:00*
G04 #@! TF.ProjectId,Croaky4,43726f61-6b79-4342-9e6b-696361645f70,rev?*
G04 #@! TF.SameCoordinates,Original*
G04 #@! TF.FileFunction,Soldermask,Bot*
G04 #@! TF.FilePolarity,Negative*
%FSLAX46Y46*%
G04 Gerber Fmt 4.6, Leading zero omitted, Abs format (unit mm)*
G04 Created by KiCad (PCBNEW (5.1.9-0-10_14)) date 2021-03-17 22:28:09*
%MOMM*%
%LPD*%
G01*
G04 APERTURE LIST*
%ADD10R,1.500000X1.000000*%
%ADD11R,1.501140X0.899160*%
%ADD12C,3.500000*%
%ADD13C,2.250000*%
%ADD14C,3.987800*%
%ADD15C,1.750000*%
%ADD16R,1.600000X0.550000*%
%ADD17R,0.550000X1.600000*%
%ADD18R,0.700000X1.000000*%
%ADD19R,0.700000X0.600000*%
%ADD20C,0.750000*%
%ADD21O,1.100000X2.200000*%
%ADD22O,1.100000X1.700000*%
%ADD23R,2.000000X2.000000*%
%ADD24C,2.000000*%
%ADD25R,2.000000X3.200000*%
%ADD26C,0.100000*%
%ADD27R,1.800000X1.100000*%
G04 APERTURE END LIST*
D10*
G04 #@! TO.C,D2*
X-41343750Y4781750D03*
X-41343750Y7981750D03*
X-36443750Y4781750D03*
X-36443750Y7981750D03*
G04 #@! TD*
D11*
G04 #@! TO.C,D6*
X-26869390Y3956050D03*
X-26869390Y7156450D03*
X-31868110Y7156450D03*
X-31868110Y3956050D03*
D12*
X-29368750Y5556250D03*
G04 #@! TD*
G04 #@! TO.C,D7*
X-10318750Y5556250D03*
D11*
X-12818110Y3956050D03*
X-12818110Y7156450D03*
X-7819390Y7156450D03*
X-7819390Y3956050D03*
G04 #@! TD*
D12*
G04 #@! TO.C,D5*
X-29368750Y24606250D03*
D11*
X-31868110Y23006050D03*
X-31868110Y26206450D03*
X-26869390Y26206450D03*
X-26869390Y23006050D03*
G04 #@! TD*
D12*
G04 #@! TO.C,D4*
X-10318750Y24511000D03*
D11*
X-12818110Y22910800D03*
X-12818110Y26111200D03*
X-7819390Y26111200D03*
X-7819390Y22910800D03*
G04 #@! TD*
D13*
G04 #@! TO.C,MX2*
X-26828750Y15398750D03*
D14*
X-29368750Y10318750D03*
D13*
X-33178750Y12858750D03*
D15*
X-34448750Y10318750D03*
X-24288750Y10318750D03*
G04 #@! TD*
G04 #@! TO.C,C13*
G36*
G01*
X-6444000Y6403000D02*
X-5494000Y6403000D01*
G75*
G02*
X-5244000Y6153000I0J-250000D01*
G01*
X-5244000Y5653000D01*
G75*
G02*
X-5494000Y5403000I-250000J0D01*
G01*
X-6444000Y5403000D01*
G75*
G02*
X-6694000Y5653000I0J250000D01*
G01*
X-6694000Y6153000D01*
G75*
G02*
X-6444000Y6403000I250000J0D01*
G01*
G37*
G36*
G01*
X-6444000Y4503000D02*
X-5494000Y4503000D01*
G75*
G02*
X-5244000Y4253000I0J-250000D01*
G01*
X-5244000Y3753000D01*
G75*
G02*
X-5494000Y3503000I-250000J0D01*
G01*
X-6444000Y3503000D01*
G75*
G02*
X-6694000Y3753000I0J250000D01*
G01*
X-6694000Y4253000D01*
G75*
G02*
X-6444000Y4503000I250000J0D01*
G01*
G37*
G04 #@! TD*
G04 #@! TO.C,C12*
G36*
G01*
X-25367000Y6403000D02*
X-24417000Y6403000D01*
G75*
G02*
X-24167000Y6153000I0J-250000D01*
G01*
X-24167000Y5653000D01*
G75*
G02*
X-24417000Y5403000I-250000J0D01*
G01*
X-25367000Y5403000D01*
G75*
G02*
X-25617000Y5653000I0J250000D01*
G01*
X-25617000Y6153000D01*
G75*
G02*
X-25367000Y6403000I250000J0D01*
G01*
G37*
G36*
G01*
X-25367000Y4503000D02*
X-24417000Y4503000D01*
G75*
G02*
X-24167000Y4253000I0J-250000D01*
G01*
X-24167000Y3753000D01*
G75*
G02*
X-24417000Y3503000I-250000J0D01*
G01*
X-25367000Y3503000D01*
G75*
G02*
X-25617000Y3753000I0J250000D01*
G01*
X-25617000Y4253000D01*
G75*
G02*
X-25367000Y4503000I250000J0D01*
G01*
G37*
G04 #@! TD*
G04 #@! TO.C,C11*
G36*
G01*
X-24544000Y22421000D02*
X-25494000Y22421000D01*
G75*
G02*
X-25744000Y22671000I0J250000D01*
G01*
X-25744000Y23171000D01*
G75*
G02*
X-25494000Y23421000I250000J0D01*
G01*
X-24544000Y23421000D01*
G75*
G02*
X-24294000Y23171000I0J-250000D01*
G01*
X-24294000Y22671000D01*
G75*
G02*
X-24544000Y22421000I-250000J0D01*
G01*
G37*
G36*
G01*
X-24544000Y20521000D02*
X-25494000Y20521000D01*
G75*
G02*
X-25744000Y20771000I0J250000D01*
G01*
X-25744000Y21271000D01*
G75*
G02*
X-25494000Y21521000I250000J0D01*
G01*
X-24544000Y21521000D01*
G75*
G02*
X-24294000Y21271000I0J-250000D01*
G01*
X-24294000Y20771000D01*
G75*
G02*
X-24544000Y20521000I-250000J0D01*
G01*
G37*
G04 #@! TD*
G04 #@! TO.C,C10*
G36*
G01*
X-5657000Y23335000D02*
X-5657000Y22385000D01*
G75*
G02*
X-5907000Y22135000I-250000J0D01*
G01*
X-6407000Y22135000D01*
G75*
G02*
X-6657000Y22385000I0J250000D01*
G01*
X-6657000Y23335000D01*
G75*
G02*
X-6407000Y23585000I250000J0D01*
G01*
X-5907000Y23585000D01*
G75*
G02*
X-5657000Y23335000I0J-250000D01*
G01*
G37*
G36*
G01*
X-3757000Y23335000D02*
X-3757000Y22385000D01*
G75*
G02*
X-4007000Y22135000I-250000J0D01*
G01*
X-4507000Y22135000D01*
G75*
G02*
X-4757000Y22385000I0J250000D01*
G01*
X-4757000Y23335000D01*
G75*
G02*
X-4507000Y23585000I250000J0D01*
G01*
X-4007000Y23585000D01*
G75*
G02*
X-3757000Y23335000I0J-250000D01*
G01*
G37*
G04 #@! TD*
D16*
G04 #@! TO.C,U2*
X-40993750Y20726750D03*
X-40993750Y21526750D03*
X-40993750Y22326750D03*
X-40993750Y23126750D03*
X-40993750Y23926750D03*
X-40993750Y24726750D03*
X-40993750Y25526750D03*
X-40993750Y26326750D03*
D17*
X-42443750Y27776750D03*
X-43243750Y27776750D03*
X-44043750Y27776750D03*
X-44843750Y27776750D03*
X-45643750Y27776750D03*
X-46443750Y27776750D03*
X-47243750Y27776750D03*
X-48043750Y27776750D03*
D16*
X-49493750Y26326750D03*
X-49493750Y25526750D03*
X-49493750Y24726750D03*
X-49493750Y23926750D03*
X-49493750Y23126750D03*
X-49493750Y22326750D03*
X-49493750Y21526750D03*
X-49493750Y20726750D03*
D17*
X-48043750Y19276750D03*
X-47243750Y19276750D03*
X-46443750Y19276750D03*
X-45643750Y19276750D03*
X-44843750Y19276750D03*
X-44043750Y19276750D03*
X-43243750Y19276750D03*
X-42443750Y19276750D03*
G04 #@! TD*
D18*
G04 #@! TO.C,U1*
X-37608000Y31484000D03*
D19*
X-39608000Y31684000D03*
X-37608000Y29784000D03*
X-39608000Y29784000D03*
G04 #@! TD*
G04 #@! TO.C,C6*
G36*
G01*
X-41054000Y31057000D02*
X-42004000Y31057000D01*
G75*
G02*
X-42254000Y31307000I0J250000D01*
G01*
X-42254000Y31807000D01*
G75*
G02*
X-42004000Y32057000I250000J0D01*
G01*
X-41054000Y32057000D01*
G75*
G02*
X-40804000Y31807000I0J-250000D01*
G01*
X-40804000Y31307000D01*
G75*
G02*
X-41054000Y31057000I-250000J0D01*
G01*
G37*
G36*
G01*
X-41054000Y29157000D02*
X-42004000Y29157000D01*
G75*
G02*
X-42254000Y29407000I0J250000D01*
G01*
X-42254000Y29907000D01*
G75*
G02*
X-42004000Y30157000I250000J0D01*
G01*
X-41054000Y30157000D01*
G75*
G02*
X-40804000Y29907000I0J-250000D01*
G01*
X-40804000Y29407000D01*
G75*
G02*
X-41054000Y29157000I-250000J0D01*
G01*
G37*
G04 #@! TD*
G04 #@! TO.C,C5*
G36*
G01*
X-35053250Y20357250D02*
X-36003250Y20357250D01*
G75*
G02*
X-36253250Y20607250I0J250000D01*
G01*
X-36253250Y21107250D01*
G75*
G02*
X-36003250Y21357250I250000J0D01*
G01*
X-35053250Y21357250D01*
G75*
G02*
X-34803250Y21107250I0J-250000D01*
G01*
X-34803250Y20607250D01*
G75*
G02*
X-35053250Y20357250I-250000J0D01*
G01*
G37*
G36*
G01*
X-35053250Y18457250D02*
X-36003250Y18457250D01*
G75*
G02*
X-36253250Y18707250I0J250000D01*
G01*
X-36253250Y19207250D01*
G75*
G02*
X-36003250Y19457250I250000J0D01*
G01*
X-35053250Y19457250D01*
G75*
G02*
X-34803250Y19207250I0J-250000D01*
G01*
X-34803250Y18707250D01*
G75*
G02*
X-35053250Y18457250I-250000J0D01*
G01*
G37*
G04 #@! TD*
G04 #@! TO.C,C1*
G36*
G01*
X-37021750Y20357250D02*
X-37971750Y20357250D01*
G75*
G02*
X-38221750Y20607250I0J250000D01*
G01*
X-38221750Y21107250D01*
G75*
G02*
X-37971750Y21357250I250000J0D01*
G01*
X-37021750Y21357250D01*
G75*
G02*
X-36771750Y21107250I0J-250000D01*
G01*
X-36771750Y20607250D01*
G75*
G02*
X-37021750Y20357250I-250000J0D01*
G01*
G37*
G36*
G01*
X-37021750Y18457250D02*
X-37971750Y18457250D01*
G75*
G02*
X-38221750Y18707250I0J250000D01*
G01*
X-38221750Y19207250D01*
G75*
G02*
X-37971750Y19457250I250000J0D01*
G01*
X-37021750Y19457250D01*
G75*
G02*
X-36771750Y19207250I0J-250000D01*
G01*
X-36771750Y18707250D01*
G75*
G02*
X-37021750Y18457250I-250000J0D01*
G01*
G37*
G04 #@! TD*
D13*
G04 #@! TO.C,MX4*
X-7778750Y15398750D03*
D14*
X-10318750Y10318750D03*
D13*
X-14128750Y12858750D03*
D15*
X-15398750Y10318750D03*
X-5238750Y10318750D03*
G04 #@! TD*
D13*
G04 #@! TO.C,MX3*
X-7778750Y34448750D03*
D14*
X-10318750Y29368750D03*
D13*
X-14128750Y31908750D03*
D15*
X-15398750Y29368750D03*
X-5238750Y29368750D03*
G04 #@! TD*
D13*
G04 #@! TO.C,MX1*
X-26828750Y34448750D03*
D14*
X-29368750Y29368750D03*
D13*
X-33178750Y31908750D03*
D15*
X-34448750Y29368750D03*
X-24288750Y29368750D03*
G04 #@! TD*
G04 #@! TO.C,R4*
G36*
G01*
X-38538998Y27832000D02*
X-39439002Y27832000D01*
G75*
G02*
X-39689000Y28081998I0J249998D01*
G01*
X-39689000Y28607002D01*
G75*
G02*
X-39439002Y28857000I249998J0D01*
G01*
X-38538998Y28857000D01*
G75*
G02*
X-38289000Y28607002I0J-249998D01*
G01*
X-38289000Y28081998D01*
G75*
G02*
X-38538998Y27832000I-249998J0D01*
G01*
G37*
G36*
G01*
X-38538998Y26007000D02*
X-39439002Y26007000D01*
G75*
G02*
X-39689000Y26256998I0J249998D01*
G01*
X-39689000Y26782002D01*
G75*
G02*
X-39439002Y27032000I249998J0D01*
G01*
X-38538998Y27032000D01*
G75*
G02*
X-38289000Y26782002I0J-249998D01*
G01*
X-38289000Y26256998D01*
G75*
G02*
X-38538998Y26007000I-249998J0D01*
G01*
G37*
G04 #@! TD*
G04 #@! TO.C,USB1*
G36*
G01*
X-36018750Y33648750D02*
X-36018750Y35098750D01*
G75*
G02*
X-35968750Y35148750I50000J0D01*
G01*
X-35368750Y35148750D01*
G75*
G02*
X-35318750Y35098750I0J-50000D01*
G01*
X-35318750Y33648750D01*
G75*
G02*
X-35368750Y33598750I-50000J0D01*
G01*
X-35968750Y33598750D01*
G75*
G02*
X-36018750Y33648750I0J50000D01*
G01*
G37*
G36*
G01*
X-42468750Y33648750D02*
X-42468750Y35098750D01*
G75*
G02*
X-42418750Y35148750I50000J0D01*
G01*
X-41818750Y35148750D01*
G75*
G02*
X-41768750Y35098750I0J-50000D01*
G01*
X-41768750Y33648750D01*
G75*
G02*
X-41818750Y33598750I-50000J0D01*
G01*
X-42418750Y33598750D01*
G75*
G02*
X-42468750Y33648750I0J50000D01*
G01*
G37*
G36*
G01*
X-36793750Y33648750D02*
X-36793750Y35098750D01*
G75*
G02*
X-36743750Y35148750I50000J0D01*
G01*
X-36143750Y35148750D01*
G75*
G02*
X-36093750Y35098750I0J-50000D01*
G01*
X-36093750Y33648750D01*
G75*
G02*
X-36143750Y33598750I-50000J0D01*
G01*
X-36743750Y33598750D01*
G75*
G02*
X-36793750Y33648750I0J50000D01*
G01*
G37*
G36*
G01*
X-41693750Y33648750D02*
X-41693750Y35098750D01*
G75*
G02*
X-41643750Y35148750I50000J0D01*
G01*
X-41043750Y35148750D01*
G75*
G02*
X-40993750Y35098750I0J-50000D01*
G01*
X-40993750Y33648750D01*
G75*
G02*
X-41043750Y33598750I-50000J0D01*
G01*
X-41643750Y33598750D01*
G75*
G02*
X-41693750Y33648750I0J50000D01*
G01*
G37*
G36*
G01*
X-40843750Y33648750D02*
X-40843750Y35098750D01*
G75*
G02*
X-40793750Y35148750I50000J0D01*
G01*
X-40493750Y35148750D01*
G75*
G02*
X-40443750Y35098750I0J-50000D01*
G01*
X-40443750Y33648750D01*
G75*
G02*
X-40493750Y33598750I-50000J0D01*
G01*
X-40793750Y33598750D01*
G75*
G02*
X-40843750Y33648750I0J50000D01*
G01*
G37*
G36*
G01*
X-37343750Y33648750D02*
X-37343750Y35098750D01*
G75*
G02*
X-37293750Y35148750I50000J0D01*
G01*
X-36993750Y35148750D01*
G75*
G02*
X-36943750Y35098750I0J-50000D01*
G01*
X-36943750Y33648750D01*
G75*
G02*
X-36993750Y33598750I-50000J0D01*
G01*
X-37293750Y33598750D01*
G75*
G02*
X-37343750Y33648750I0J50000D01*
G01*
G37*
G36*
G01*
X-40343750Y33648750D02*
X-40343750Y35098750D01*
G75*
G02*
X-40293750Y35148750I50000J0D01*
G01*
X-39993750Y35148750D01*
G75*
G02*
X-39943750Y35098750I0J-50000D01*
G01*
X-39943750Y33648750D01*
G75*
G02*
X-39993750Y33598750I-50000J0D01*
G01*
X-40293750Y33598750D01*
G75*
G02*
X-40343750Y33648750I0J50000D01*
G01*
G37*
G36*
G01*
X-37843750Y33648750D02*
X-37843750Y35098750D01*
G75*
G02*
X-37793750Y35148750I50000J0D01*
G01*
X-37493750Y35148750D01*
G75*
G02*
X-37443750Y35098750I0J-50000D01*
G01*
X-37443750Y33648750D01*
G75*
G02*
X-37493750Y33598750I-50000J0D01*
G01*
X-37793750Y33598750D01*
G75*
G02*
X-37843750Y33648750I0J50000D01*
G01*
G37*
G36*
G01*
X-39843750Y33648750D02*
X-39843750Y35098750D01*
G75*
G02*
X-39793750Y35148750I50000J0D01*
G01*
X-39493750Y35148750D01*
G75*
G02*
X-39443750Y35098750I0J-50000D01*
G01*
X-39443750Y33648750D01*
G75*
G02*
X-39493750Y33598750I-50000J0D01*
G01*
X-39793750Y33598750D01*
G75*
G02*
X-39843750Y33648750I0J50000D01*
G01*
G37*
G36*
G01*
X-38343750Y33648750D02*
X-38343750Y35098750D01*
G75*
G02*
X-38293750Y35148750I50000J0D01*
G01*
X-37993750Y35148750D01*
G75*
G02*
X-37943750Y35098750I0J-50000D01*
G01*
X-37943750Y33648750D01*
G75*
G02*
X-37993750Y33598750I-50000J0D01*
G01*
X-38293750Y33598750D01*
G75*
G02*
X-38343750Y33648750I0J50000D01*
G01*
G37*
G36*
G01*
X-38843750Y33648750D02*
X-38843750Y35098750D01*
G75*
G02*
X-38793750Y35148750I50000J0D01*
G01*
X-38493750Y35148750D01*
G75*
G02*
X-38443750Y35098750I0J-50000D01*
G01*
X-38443750Y33648750D01*
G75*
G02*
X-38493750Y33598750I-50000J0D01*
G01*
X-38793750Y33598750D01*
G75*
G02*
X-38843750Y33648750I0J50000D01*
G01*
G37*
G36*
G01*
X-39343750Y33648750D02*
X-39343750Y35098750D01*
G75*
G02*
X-39293750Y35148750I50000J0D01*
G01*
X-38993750Y35148750D01*
G75*
G02*
X-38943750Y35098750I0J-50000D01*
G01*
X-38943750Y33648750D01*
G75*
G02*
X-38993750Y33598750I-50000J0D01*
G01*
X-39293750Y33598750D01*
G75*
G02*
X-39343750Y33648750I0J50000D01*
G01*
G37*
D20*
X-36003750Y35818750D03*
X-41783750Y35818750D03*
D21*
X-43213750Y35288750D03*
X-34573750Y35288750D03*
D22*
X-43213750Y39468750D03*
X-34573750Y39468750D03*
G04 #@! TD*
G04 #@! TO.C,R5*
G36*
G01*
X-37534002Y27032000D02*
X-36633998Y27032000D01*
G75*
G02*
X-36384000Y26782002I0J-249998D01*
G01*
X-36384000Y26256998D01*
G75*
G02*
X-36633998Y26007000I-249998J0D01*
G01*
X-37534002Y26007000D01*
G75*
G02*
X-37784000Y26256998I0J249998D01*
G01*
X-37784000Y26782002D01*
G75*
G02*
X-37534002Y27032000I249998J0D01*
G01*
G37*
G36*
G01*
X-37534002Y28857000D02*
X-36633998Y28857000D01*
G75*
G02*
X-36384000Y28607002I0J-249998D01*
G01*
X-36384000Y28081998D01*
G75*
G02*
X-36633998Y27832000I-249998J0D01*
G01*
X-37534002Y27832000D01*
G75*
G02*
X-37784000Y28081998I0J249998D01*
G01*
X-37784000Y28607002D01*
G75*
G02*
X-37534002Y28857000I249998J0D01*
G01*
G37*
G04 #@! TD*
D23*
G04 #@! TO.C,SW2*
X-55443750Y27343750D03*
D24*
X-57943750Y27343750D03*
X-60443750Y27343750D03*
D25*
X-52343750Y19843750D03*
X-63543750Y19843750D03*
D24*
X-55443750Y12843750D03*
X-60443750Y12843750D03*
G04 #@! TD*
G04 #@! TO.C,C9*
G36*
G01*
X-22446000Y18854000D02*
X-21496000Y18854000D01*
G75*
G02*
X-21246000Y18604000I0J-250000D01*
G01*
X-21246000Y18104000D01*
G75*
G02*
X-21496000Y17854000I-250000J0D01*
G01*
X-22446000Y17854000D01*
G75*
G02*
X-22696000Y18104000I0J250000D01*
G01*
X-22696000Y18604000D01*
G75*
G02*
X-22446000Y18854000I250000J0D01*
G01*
G37*
G36*
G01*
X-22446000Y20754000D02*
X-21496000Y20754000D01*
G75*
G02*
X-21246000Y20504000I0J-250000D01*
G01*
X-21246000Y20004000D01*
G75*
G02*
X-21496000Y19754000I-250000J0D01*
G01*
X-22446000Y19754000D01*
G75*
G02*
X-22696000Y20004000I0J250000D01*
G01*
X-22696000Y20504000D01*
G75*
G02*
X-22446000Y20754000I250000J0D01*
G01*
G37*
G04 #@! TD*
G04 #@! TO.C,C8*
G36*
G01*
X-44006750Y5752250D02*
X-44956750Y5752250D01*
G75*
G02*
X-45206750Y6002250I0J250000D01*
G01*
X-45206750Y6502250D01*
G75*
G02*
X-44956750Y6752250I250000J0D01*
G01*
X-44006750Y6752250D01*
G75*
G02*
X-43756750Y6502250I0J-250000D01*
G01*
X-43756750Y6002250D01*
G75*
G02*
X-44006750Y5752250I-250000J0D01*
G01*
G37*
G36*
G01*
X-44006750Y3852250D02*
X-44956750Y3852250D01*
G75*
G02*
X-45206750Y4102250I0J250000D01*
G01*
X-45206750Y4602250D01*
G75*
G02*
X-44956750Y4852250I250000J0D01*
G01*
X-44006750Y4852250D01*
G75*
G02*
X-43756750Y4602250I0J-250000D01*
G01*
X-43756750Y4102250D01*
G75*
G02*
X-44006750Y3852250I-250000J0D01*
G01*
G37*
G04 #@! TD*
G04 #@! TO.C,C7*
G36*
G01*
X-71919250Y27367250D02*
X-71919250Y26417250D01*
G75*
G02*
X-72169250Y26167250I-250000J0D01*
G01*
X-72669250Y26167250D01*
G75*
G02*
X-72919250Y26417250I0J250000D01*
G01*
X-72919250Y27367250D01*
G75*
G02*
X-72669250Y27617250I250000J0D01*
G01*
X-72169250Y27617250D01*
G75*
G02*
X-71919250Y27367250I0J-250000D01*
G01*
G37*
G36*
G01*
X-70019250Y27367250D02*
X-70019250Y26417250D01*
G75*
G02*
X-70269250Y26167250I-250000J0D01*
G01*
X-70769250Y26167250D01*
G75*
G02*
X-71019250Y26417250I0J250000D01*
G01*
X-71019250Y27367250D01*
G75*
G02*
X-70769250Y27617250I250000J0D01*
G01*
X-70269250Y27617250D01*
G75*
G02*
X-70019250Y27367250I0J-250000D01*
G01*
G37*
G04 #@! TD*
D26*
G04 #@! TO.C,Y1*
G36*
X-42728289Y16667239D02*
G01*
X-41879761Y15818711D01*
X-42869711Y14828761D01*
X-43718239Y15677289D01*
X-42728289Y16667239D01*
G37*
G36*
X-44283924Y15111604D02*
G01*
X-43435396Y14263076D01*
X-44425346Y13273126D01*
X-45273874Y14121654D01*
X-44283924Y15111604D01*
G37*
G36*
X-43081843Y13909523D02*
G01*
X-42233315Y13060995D01*
X-43223265Y12071045D01*
X-44071793Y12919573D01*
X-43081843Y13909523D01*
G37*
G36*
X-41526208Y15465158D02*
G01*
X-40677680Y14616630D01*
X-41667630Y13626680D01*
X-42516158Y14475208D01*
X-41526208Y15465158D01*
G37*
G04 #@! TD*
D27*
G04 #@! TO.C,SW1*
X-70378250Y34203250D03*
X-64178250Y30503250D03*
X-70378250Y30503250D03*
X-64178250Y34203250D03*
G04 #@! TD*
G04 #@! TO.C,R6*
G36*
G01*
X-68910250Y23648248D02*
X-68910250Y24548252D01*
G75*
G02*
X-68660252Y24798250I249998J0D01*
G01*
X-68135248Y24798250D01*
G75*
G02*
X-67885250Y24548252I0J-249998D01*
G01*
X-67885250Y23648248D01*
G75*
G02*
X-68135248Y23398250I-249998J0D01*
G01*
X-68660252Y23398250D01*
G75*
G02*
X-68910250Y23648248I0J249998D01*
G01*
G37*
G36*
G01*
X-70735250Y23648248D02*
X-70735250Y24548252D01*
G75*
G02*
X-70485252Y24798250I249998J0D01*
G01*
X-69960248Y24798250D01*
G75*
G02*
X-69710250Y24548252I0J-249998D01*
G01*
X-69710250Y23648248D01*
G75*
G02*
X-69960248Y23398250I-249998J0D01*
G01*
X-70485252Y23398250D01*
G75*
G02*
X-70735250Y23648248I0J249998D01*
G01*
G37*
G04 #@! TD*
G04 #@! TO.C,R3*
G36*
G01*
X-73475002Y29540250D02*
X-72574998Y29540250D01*
G75*
G02*
X-72325000Y29290252I0J-249998D01*
G01*
X-72325000Y28765248D01*
G75*
G02*
X-72574998Y28515250I-249998J0D01*
G01*
X-73475002Y28515250D01*
G75*
G02*
X-73725000Y28765248I0J249998D01*
G01*
X-73725000Y29290252D01*
G75*
G02*
X-73475002Y29540250I249998J0D01*
G01*
G37*
G36*
G01*
X-73475002Y31365250D02*
X-72574998Y31365250D01*
G75*
G02*
X-72325000Y31115252I0J-249998D01*
G01*
X-72325000Y30590248D01*
G75*
G02*
X-72574998Y30340250I-249998J0D01*
G01*
X-73475002Y30340250D01*
G75*
G02*
X-73725000Y30590248I0J249998D01*
G01*
X-73725000Y31115252D01*
G75*
G02*
X-73475002Y31365250I249998J0D01*
G01*
G37*
G04 #@! TD*
G04 #@! TO.C,R2*
G36*
G01*
X-47009000Y36772002D02*
X-47009000Y35871998D01*
G75*
G02*
X-47258998Y35622000I-249998J0D01*
G01*
X-47784002Y35622000D01*
G75*
G02*
X-48034000Y35871998I0J249998D01*
G01*
X-48034000Y36772002D01*
G75*
G02*
X-47784002Y37022000I249998J0D01*
G01*
X-47258998Y37022000D01*
G75*
G02*
X-47009000Y36772002I0J-249998D01*
G01*
G37*
G36*
G01*
X-45184000Y36772002D02*
X-45184000Y35871998D01*
G75*
G02*
X-45433998Y35622000I-249998J0D01*
G01*
X-45959002Y35622000D01*
G75*
G02*
X-46209000Y35871998I0J249998D01*
G01*
X-46209000Y36772002D01*
G75*
G02*
X-45959002Y37022000I249998J0D01*
G01*
X-45433998Y37022000D01*
G75*
G02*
X-45184000Y36772002I0J-249998D01*
G01*
G37*
G04 #@! TD*
G04 #@! TO.C,R1*
G36*
G01*
X-31141248Y35737750D02*
X-32041252Y35737750D01*
G75*
G02*
X-32291250Y35987748I0J249998D01*
G01*
X-32291250Y36512752D01*
G75*
G02*
X-32041252Y36762750I249998J0D01*
G01*
X-31141248Y36762750D01*
G75*
G02*
X-30891250Y36512752I0J-249998D01*
G01*
X-30891250Y35987748D01*
G75*
G02*
X-31141248Y35737750I-249998J0D01*
G01*
G37*
G36*
G01*
X-31141248Y33912750D02*
X-32041252Y33912750D01*
G75*
G02*
X-32291250Y34162748I0J249998D01*
G01*
X-32291250Y34687752D01*
G75*
G02*
X-32041252Y34937750I249998J0D01*
G01*
X-31141248Y34937750D01*
G75*
G02*
X-30891250Y34687752I0J-249998D01*
G01*
X-30891250Y34162748D01*
G75*
G02*
X-31141248Y33912750I-249998J0D01*
G01*
G37*
G04 #@! TD*
G04 #@! TO.C,F1*
G36*
G01*
X-45834000Y32903000D02*
X-45834000Y34153000D01*
G75*
G02*
X-45584000Y34403000I250000J0D01*
G01*
X-44834000Y34403000D01*
G75*
G02*
X-44584000Y34153000I0J-250000D01*
G01*
X-44584000Y32903000D01*
G75*
G02*
X-44834000Y32653000I-250000J0D01*
G01*
X-45584000Y32653000D01*
G75*
G02*
X-45834000Y32903000I0J250000D01*
G01*
G37*
G36*
G01*
X-48634000Y32903000D02*
X-48634000Y34153000D01*
G75*
G02*
X-48384000Y34403000I250000J0D01*
G01*
X-47634000Y34403000D01*
G75*
G02*
X-47384000Y34153000I0J-250000D01*
G01*
X-47384000Y32903000D01*
G75*
G02*
X-47634000Y32653000I-250000J0D01*
G01*
X-48384000Y32653000D01*
G75*
G02*
X-48634000Y32903000I0J250000D01*
G01*
G37*
G04 #@! TD*
D10*
G04 #@! TO.C,D3*
X-19912500Y18243750D03*
X-19912500Y21443750D03*
X-15012500Y18243750D03*
X-15012500Y21443750D03*
G04 #@! TD*
G04 #@! TO.C,D1*
X-73601750Y18243750D03*
X-73601750Y21443750D03*
X-68701750Y18243750D03*
X-68701750Y21443750D03*
G04 #@! TD*
G04 #@! TO.C,C4*
G36*
G01*
X-45610678Y11156927D02*
X-44938927Y11828678D01*
G75*
G02*
X-44585373Y11828678I176777J-176777D01*
G01*
X-44231820Y11475125D01*
G75*
G02*
X-44231820Y11121571I-176777J-176777D01*
G01*
X-44903571Y10449820D01*
G75*
G02*
X-45257125Y10449820I-176777J176777D01*
G01*
X-45610678Y10803373D01*
G75*
G02*
X-45610678Y11156927I176777J176777D01*
G01*
G37*
G36*
G01*
X-46954180Y12500429D02*
X-46282429Y13172180D01*
G75*
G02*
X-45928875Y13172180I176777J-176777D01*
G01*
X-45575322Y12818627D01*
G75*
G02*
X-45575322Y12465073I-176777J-176777D01*
G01*
X-46247073Y11793322D01*
G75*
G02*
X-46600627Y11793322I-176777J176777D01*
G01*
X-46954180Y12146875D01*
G75*
G02*
X-46954180Y12500429I176777J176777D01*
G01*
G37*
G04 #@! TD*
G04 #@! TO.C,C3*
G36*
G01*
X-41511322Y12373429D02*
X-40839571Y11701678D01*
G75*
G02*
X-40839571Y11348124I-176777J-176777D01*
G01*
X-41193124Y10994571D01*
G75*
G02*
X-41546678Y10994571I-176777J176777D01*
G01*
X-42218429Y11666322D01*
G75*
G02*
X-42218429Y12019876I176777J176777D01*
G01*
X-41864876Y12373429D01*
G75*
G02*
X-41511322Y12373429I176777J-176777D01*
G01*
G37*
G36*
G01*
X-40167820Y13716931D02*
X-39496069Y13045180D01*
G75*
G02*
X-39496069Y12691626I-176777J-176777D01*
G01*
X-39849622Y12338073D01*
G75*
G02*
X-40203176Y12338073I-176777J176777D01*
G01*
X-40874927Y13009824D01*
G75*
G02*
X-40874927Y13363378I176777J176777D01*
G01*
X-40521374Y13716931D01*
G75*
G02*
X-40167820Y13716931I176777J-176777D01*
G01*
G37*
G04 #@! TD*
G04 #@! TO.C,C2*
G36*
G01*
X-49528750Y14313750D02*
X-48578750Y14313750D01*
G75*
G02*
X-48328750Y14063750I0J-250000D01*
G01*
X-48328750Y13563750D01*
G75*
G02*
X-48578750Y13313750I-250000J0D01*
G01*
X-49528750Y13313750D01*
G75*
G02*
X-49778750Y13563750I0J250000D01*
G01*
X-49778750Y14063750D01*
G75*
G02*
X-49528750Y14313750I250000J0D01*
G01*
G37*
G36*
G01*
X-49528750Y16213750D02*
X-48578750Y16213750D01*
G75*
G02*
X-48328750Y15963750I0J-250000D01*
G01*
X-48328750Y15463750D01*
G75*
G02*
X-48578750Y15213750I-250000J0D01*
G01*
X-49528750Y15213750D01*
G75*
G02*
X-49778750Y15463750I0J250000D01*
G01*
X-49778750Y15963750D01*
G75*
G02*
X-49528750Y16213750I250000J0D01*
G01*
G37*
G04 #@! TD*
M02*
