G04 #@! TF.GenerationSoftware,KiCad,Pcbnew,(5.1.9-0-10_14)*
G04 #@! TF.CreationDate,2021-03-17T22:28:09-07:00*
G04 #@! TF.ProjectId,Croaky4,43726f61-6b79-4342-9e6b-696361645f70,rev?*
G04 #@! TF.SameCoordinates,Original*
G04 #@! TF.FileFunction,Legend,Bot*
G04 #@! TF.FilePolarity,Positive*
%FSLAX46Y46*%
G04 Gerber Fmt 4.6, Leading zero omitted, Abs format (unit mm)*
G04 Created by KiCad (PCBNEW (5.1.9-0-10_14)) date 2021-03-17 22:28:09*
%MOMM*%
%LPD*%
G01*
G04 APERTURE LIST*
%ADD10C,0.120000*%
%ADD11C,0.150000*%
%ADD12C,0.200000*%
%ADD13R,1.500000X1.000000*%
%ADD14R,1.501140X0.899160*%
%ADD15C,3.500000*%
%ADD16C,2.250000*%
%ADD17C,3.987800*%
%ADD18C,1.750000*%
%ADD19R,1.600000X0.550000*%
%ADD20R,0.550000X1.600000*%
%ADD21R,0.700000X1.000000*%
%ADD22R,0.700000X0.600000*%
%ADD23C,0.750000*%
%ADD24O,1.100000X2.200000*%
%ADD25O,1.100000X1.700000*%
%ADD26R,2.000000X2.000000*%
%ADD27C,2.000000*%
%ADD28R,2.000000X3.200000*%
%ADD29C,0.100000*%
%ADD30R,1.800000X1.100000*%
G04 APERTURE END LIST*
D10*
G04 #@! TO.C,D2*
X-35243750Y9131750D02*
X-35243750Y7981750D01*
X-42543750Y9131750D02*
X-35243750Y9131750D01*
X-42543750Y3631750D02*
X-35243750Y3631750D01*
D11*
G04 #@! TO.C,D6*
X-29568750Y8056250D02*
X-31868750Y5806250D01*
D12*
X-31568750Y8056250D02*
X-26868750Y8056250D01*
X-31868750Y7806250D02*
X-31868750Y3056250D01*
X-31568750Y8056250D02*
X-31868750Y7806250D01*
X-26868750Y3056250D02*
X-31868750Y3056250D01*
X-26869390Y8055610D02*
X-26869390Y3056890D01*
G04 #@! TO.C,D7*
X-7819390Y8055610D02*
X-7819390Y3056890D01*
X-7818750Y3056250D02*
X-12818750Y3056250D01*
X-12518750Y8056250D02*
X-12818750Y7806250D01*
X-12818750Y7806250D02*
X-12818750Y3056250D01*
X-12518750Y8056250D02*
X-7818750Y8056250D01*
D11*
X-10518750Y8056250D02*
X-12818750Y5806250D01*
D12*
G04 #@! TO.C,D5*
X-26869390Y27105610D02*
X-26869390Y22106890D01*
X-26868750Y22106250D02*
X-31868750Y22106250D01*
X-31568750Y27106250D02*
X-31868750Y26856250D01*
X-31868750Y26856250D02*
X-31868750Y22106250D01*
X-31568750Y27106250D02*
X-26868750Y27106250D01*
D11*
X-29568750Y27106250D02*
X-31868750Y24856250D01*
D12*
G04 #@! TO.C,D4*
X-7819390Y27010360D02*
X-7819390Y22011640D01*
X-7818750Y22011000D02*
X-12818750Y22011000D01*
X-12518750Y27011000D02*
X-12818750Y26761000D01*
X-12818750Y26761000D02*
X-12818750Y22011000D01*
X-12518750Y27011000D02*
X-7818750Y27011000D01*
D11*
X-10518750Y27011000D02*
X-12818750Y24761000D01*
D10*
G04 #@! TO.C,C13*
X-6704000Y5214252D02*
X-6704000Y4691748D01*
X-5234000Y5214252D02*
X-5234000Y4691748D01*
G04 #@! TO.C,C12*
X-25627000Y5214252D02*
X-25627000Y4691748D01*
X-24157000Y5214252D02*
X-24157000Y4691748D01*
G04 #@! TO.C,C11*
X-25754000Y21709748D02*
X-25754000Y22232252D01*
X-24284000Y21709748D02*
X-24284000Y22232252D01*
G04 #@! TO.C,C10*
X-4945748Y22125000D02*
X-5468252Y22125000D01*
X-4945748Y23595000D02*
X-5468252Y23595000D01*
D11*
G04 #@! TO.C,U2*
X-41843750Y19901750D02*
X-41843750Y18476750D01*
X-41618750Y27151750D02*
X-41618750Y26826750D01*
X-48868750Y27151750D02*
X-48868750Y26826750D01*
X-48868750Y19901750D02*
X-48868750Y20226750D01*
X-41618750Y19901750D02*
X-41618750Y20226750D01*
X-48868750Y19901750D02*
X-48543750Y19901750D01*
X-48868750Y27151750D02*
X-48543750Y27151750D01*
X-41618750Y27151750D02*
X-41943750Y27151750D01*
X-41618750Y19901750D02*
X-41843750Y19901750D01*
G04 #@! TO.C,U1*
X-39258000Y32184000D02*
X-39258000Y29284000D01*
X-39258000Y32184000D02*
X-37958000Y32184000D01*
X-37958000Y32184000D02*
X-37958000Y29284000D01*
X-37958000Y29284000D02*
X-39258000Y29284000D01*
D10*
G04 #@! TO.C,C6*
X-42264000Y30345748D02*
X-42264000Y30868252D01*
X-40794000Y30345748D02*
X-40794000Y30868252D01*
G04 #@! TO.C,C5*
X-36263250Y19645998D02*
X-36263250Y20168502D01*
X-34793250Y19645998D02*
X-34793250Y20168502D01*
G04 #@! TO.C,C1*
X-38231750Y19645998D02*
X-38231750Y20168502D01*
X-36761750Y19645998D02*
X-36761750Y20168502D01*
G04 #@! TO.C,R4*
X-39724000Y27204936D02*
X-39724000Y27659064D01*
X-38254000Y27204936D02*
X-38254000Y27659064D01*
G04 #@! TO.C,R5*
X-36349000Y27659064D02*
X-36349000Y27204936D01*
X-37819000Y27659064D02*
X-37819000Y27204936D01*
G04 #@! TO.C,C9*
X-21236000Y19565252D02*
X-21236000Y19042748D01*
X-22706000Y19565252D02*
X-22706000Y19042748D01*
G04 #@! TO.C,C8*
X-45216750Y5040998D02*
X-45216750Y5563502D01*
X-43746750Y5040998D02*
X-43746750Y5563502D01*
G04 #@! TO.C,C7*
X-71207998Y26157250D02*
X-71730502Y26157250D01*
X-71207998Y27627250D02*
X-71730502Y27627250D01*
G04 #@! TO.C,Y1*
X-40394837Y14616629D02*
X-43223264Y11788202D01*
X-42728290Y16950082D02*
X-40394837Y14616629D01*
D11*
G04 #@! TO.C,SW1*
X-69878250Y29753250D02*
X-64678250Y29753250D01*
X-64678250Y29753250D02*
X-64678250Y34953250D01*
X-64678250Y34953250D02*
X-69878250Y34953250D01*
X-69878250Y34953250D02*
X-69878250Y29753250D01*
X-66278250Y32353250D02*
G75*
G03*
X-66278250Y32353250I-1000000J0D01*
G01*
D10*
G04 #@! TO.C,R6*
X-69537314Y24833250D02*
X-69083186Y24833250D01*
X-69537314Y23363250D02*
X-69083186Y23363250D01*
G04 #@! TO.C,R3*
X-72290000Y30167314D02*
X-72290000Y29713186D01*
X-73760000Y30167314D02*
X-73760000Y29713186D01*
G04 #@! TO.C,R2*
X-46381936Y35587000D02*
X-46836064Y35587000D01*
X-46381936Y37057000D02*
X-46836064Y37057000D01*
G04 #@! TO.C,R1*
X-32326250Y35110686D02*
X-32326250Y35564814D01*
X-30856250Y35110686D02*
X-30856250Y35564814D01*
G04 #@! TO.C,F1*
X-47211064Y34438000D02*
X-46006936Y34438000D01*
X-47211064Y32618000D02*
X-46006936Y32618000D01*
G04 #@! TO.C,D3*
X-13812500Y22593750D02*
X-13812500Y21443750D01*
X-21112500Y22593750D02*
X-13812500Y22593750D01*
X-21112500Y17093750D02*
X-13812500Y17093750D01*
G04 #@! TO.C,D1*
X-67501750Y22593750D02*
X-67501750Y21443750D01*
X-74801750Y22593750D02*
X-67501750Y22593750D01*
X-74801750Y17093750D02*
X-67501750Y17093750D01*
G04 #@! TO.C,C4*
X-45258010Y12515457D02*
X-44888543Y12145990D01*
X-46297457Y11476010D02*
X-45927990Y11106543D01*
G04 #@! TO.C,C3*
X-40152792Y12020761D02*
X-40522259Y11651294D01*
X-41192239Y13060208D02*
X-41561706Y12690741D01*
G04 #@! TO.C,C2*
X-48318750Y15025002D02*
X-48318750Y14502498D01*
X-49788750Y15025002D02*
X-49788750Y14502498D01*
G04 #@! TO.C,D2*
D11*
X-34440904Y5770619D02*
X-34440904Y6770619D01*
X-34679000Y6770619D01*
X-34821857Y6723000D01*
X-34917095Y6627761D01*
X-34964714Y6532523D01*
X-35012333Y6342047D01*
X-35012333Y6199190D01*
X-34964714Y6008714D01*
X-34917095Y5913476D01*
X-34821857Y5818238D01*
X-34679000Y5770619D01*
X-34440904Y5770619D01*
X-35393285Y6675380D02*
X-35440904Y6723000D01*
X-35536142Y6770619D01*
X-35774238Y6770619D01*
X-35869476Y6723000D01*
X-35917095Y6675380D01*
X-35964714Y6580142D01*
X-35964714Y6484904D01*
X-35917095Y6342047D01*
X-35345666Y5770619D01*
X-35964714Y5770619D01*
X-43306964Y3897369D02*
X-42735535Y3897369D01*
X-43021250Y3897369D02*
X-43021250Y4897369D01*
X-42926011Y4754511D01*
X-42830773Y4659273D01*
X-42735535Y4611654D01*
G04 #@! TO.C,D6*
D12*
X-32186654Y4532369D02*
X-32186654Y5532369D01*
X-32424750Y5532369D01*
X-32567607Y5484750D01*
X-32662845Y5389511D01*
X-32710464Y5294273D01*
X-32758083Y5103797D01*
X-32758083Y4960940D01*
X-32710464Y4770464D01*
X-32662845Y4675226D01*
X-32567607Y4579988D01*
X-32424750Y4532369D01*
X-32186654Y4532369D01*
X-33615226Y5532369D02*
X-33424750Y5532369D01*
X-33329511Y5484750D01*
X-33281892Y5437130D01*
X-33186654Y5294273D01*
X-33139035Y5103797D01*
X-33139035Y4722845D01*
X-33186654Y4627607D01*
X-33234273Y4579988D01*
X-33329511Y4532369D01*
X-33519988Y4532369D01*
X-33615226Y4579988D01*
X-33662845Y4627607D01*
X-33710464Y4722845D01*
X-33710464Y4960940D01*
X-33662845Y5056178D01*
X-33615226Y5103797D01*
X-33519988Y5151416D01*
X-33329511Y5151416D01*
X-33234273Y5103797D01*
X-33186654Y5056178D01*
X-33139035Y4960940D01*
G04 #@! TO.C,D7*
X-13841504Y3510019D02*
X-13841504Y4510019D01*
X-14079600Y4510019D01*
X-14222457Y4462400D01*
X-14317695Y4367161D01*
X-14365314Y4271923D01*
X-14412933Y4081447D01*
X-14412933Y3938590D01*
X-14365314Y3748114D01*
X-14317695Y3652876D01*
X-14222457Y3557638D01*
X-14079600Y3510019D01*
X-13841504Y3510019D01*
X-14746266Y4510019D02*
X-15412933Y4510019D01*
X-14984361Y3510019D01*
G04 #@! TO.C,D5*
X-28690654Y20743869D02*
X-28690654Y21743869D01*
X-28928750Y21743869D01*
X-29071607Y21696250D01*
X-29166845Y21601011D01*
X-29214464Y21505773D01*
X-29262083Y21315297D01*
X-29262083Y21172440D01*
X-29214464Y20981964D01*
X-29166845Y20886726D01*
X-29071607Y20791488D01*
X-28928750Y20743869D01*
X-28690654Y20743869D01*
X-30166845Y21743869D02*
X-29690654Y21743869D01*
X-29643035Y21267678D01*
X-29690654Y21315297D01*
X-29785892Y21362916D01*
X-30023988Y21362916D01*
X-30119226Y21315297D01*
X-30166845Y21267678D01*
X-30214464Y21172440D01*
X-30214464Y20934345D01*
X-30166845Y20839107D01*
X-30119226Y20791488D01*
X-30023988Y20743869D01*
X-29785892Y20743869D01*
X-29690654Y20791488D01*
X-29643035Y20839107D01*
G04 #@! TO.C,D4*
X-9640654Y20648619D02*
X-9640654Y21648619D01*
X-9878750Y21648619D01*
X-10021607Y21601000D01*
X-10116845Y21505761D01*
X-10164464Y21410523D01*
X-10212083Y21220047D01*
X-10212083Y21077190D01*
X-10164464Y20886714D01*
X-10116845Y20791476D01*
X-10021607Y20696238D01*
X-9878750Y20648619D01*
X-9640654Y20648619D01*
X-11069226Y21315285D02*
X-11069226Y20648619D01*
X-10831130Y21696238D02*
X-10593035Y20981952D01*
X-11212083Y20981952D01*
G04 #@! TO.C,C13*
D11*
X-3859257Y5875257D02*
X-3811638Y5922876D01*
X-3764019Y6065733D01*
X-3764019Y6160971D01*
X-3811638Y6303828D01*
X-3906876Y6399066D01*
X-4002114Y6446685D01*
X-4192590Y6494304D01*
X-4335447Y6494304D01*
X-4525923Y6446685D01*
X-4621161Y6399066D01*
X-4716400Y6303828D01*
X-4764019Y6160971D01*
X-4764019Y6065733D01*
X-4716400Y5922876D01*
X-4668780Y5875257D01*
X-3764019Y4922876D02*
X-3764019Y5494304D01*
X-3764019Y5208590D02*
X-4764019Y5208590D01*
X-4621161Y5303828D01*
X-4525923Y5399066D01*
X-4478304Y5494304D01*
X-4764019Y4589542D02*
X-4764019Y3970495D01*
X-4383066Y4303828D01*
X-4383066Y4160971D01*
X-4335447Y4065733D01*
X-4287828Y4018114D01*
X-4192590Y3970495D01*
X-3954495Y3970495D01*
X-3859257Y4018114D01*
X-3811638Y4065733D01*
X-3764019Y4160971D01*
X-3764019Y4446685D01*
X-3811638Y4541923D01*
X-3859257Y4589542D01*
G04 #@! TO.C,C12*
X-22788607Y5627607D02*
X-22740988Y5675226D01*
X-22693369Y5818083D01*
X-22693369Y5913321D01*
X-22740988Y6056178D01*
X-22836226Y6151416D01*
X-22931464Y6199035D01*
X-23121940Y6246654D01*
X-23264797Y6246654D01*
X-23455273Y6199035D01*
X-23550511Y6151416D01*
X-23645750Y6056178D01*
X-23693369Y5913321D01*
X-23693369Y5818083D01*
X-23645750Y5675226D01*
X-23598130Y5627607D01*
X-22693369Y4675226D02*
X-22693369Y5246654D01*
X-22693369Y4960940D02*
X-23693369Y4960940D01*
X-23550511Y5056178D01*
X-23455273Y5151416D01*
X-23407654Y5246654D01*
X-23598130Y4294273D02*
X-23645750Y4246654D01*
X-23693369Y4151416D01*
X-23693369Y3913321D01*
X-23645750Y3818083D01*
X-23598130Y3770464D01*
X-23502892Y3722845D01*
X-23407654Y3722845D01*
X-23264797Y3770464D01*
X-22693369Y4341892D01*
X-22693369Y3722845D01*
G04 #@! TO.C,C11*
X-23296607Y22645607D02*
X-23248988Y22693226D01*
X-23201369Y22836083D01*
X-23201369Y22931321D01*
X-23248988Y23074178D01*
X-23344226Y23169416D01*
X-23439464Y23217035D01*
X-23629940Y23264654D01*
X-23772797Y23264654D01*
X-23963273Y23217035D01*
X-24058511Y23169416D01*
X-24153750Y23074178D01*
X-24201369Y22931321D01*
X-24201369Y22836083D01*
X-24153750Y22693226D01*
X-24106130Y22645607D01*
X-23201369Y21693226D02*
X-23201369Y22264654D01*
X-23201369Y21978940D02*
X-24201369Y21978940D01*
X-24058511Y22074178D01*
X-23963273Y22169416D01*
X-23915654Y22264654D01*
X-23201369Y20740845D02*
X-23201369Y21312273D01*
X-23201369Y21026559D02*
X-24201369Y21026559D01*
X-24058511Y21121797D01*
X-23963273Y21217035D01*
X-23915654Y21312273D01*
G04 #@! TO.C,C10*
X-4564142Y24182857D02*
X-4516523Y24135238D01*
X-4373666Y24087619D01*
X-4278428Y24087619D01*
X-4135571Y24135238D01*
X-4040333Y24230476D01*
X-3992714Y24325714D01*
X-3945095Y24516190D01*
X-3945095Y24659047D01*
X-3992714Y24849523D01*
X-4040333Y24944761D01*
X-4135571Y25040000D01*
X-4278428Y25087619D01*
X-4373666Y25087619D01*
X-4516523Y25040000D01*
X-4564142Y24992380D01*
X-5516523Y24087619D02*
X-4945095Y24087619D01*
X-5230809Y24087619D02*
X-5230809Y25087619D01*
X-5135571Y24944761D01*
X-5040333Y24849523D01*
X-4945095Y24801904D01*
X-6135571Y25087619D02*
X-6230809Y25087619D01*
X-6326047Y25040000D01*
X-6373666Y24992380D01*
X-6421285Y24897142D01*
X-6468904Y24706666D01*
X-6468904Y24468571D01*
X-6421285Y24278095D01*
X-6373666Y24182857D01*
X-6326047Y24135238D01*
X-6230809Y24087619D01*
X-6135571Y24087619D01*
X-6040333Y24135238D01*
X-5992714Y24182857D01*
X-5945095Y24278095D01*
X-5897476Y24468571D01*
X-5897476Y24706666D01*
X-5945095Y24897142D01*
X-5992714Y24992380D01*
X-6040333Y25040000D01*
X-6135571Y25087619D01*
G04 #@! TO.C,U2*
X-50236369Y28479654D02*
X-49426845Y28479654D01*
X-49331607Y28432035D01*
X-49283988Y28384416D01*
X-49236369Y28289178D01*
X-49236369Y28098702D01*
X-49283988Y28003464D01*
X-49331607Y27955845D01*
X-49426845Y27908226D01*
X-50236369Y27908226D01*
X-50141130Y27479654D02*
X-50188750Y27432035D01*
X-50236369Y27336797D01*
X-50236369Y27098702D01*
X-50188750Y27003464D01*
X-50141130Y26955845D01*
X-50045892Y26908226D01*
X-49950654Y26908226D01*
X-49807797Y26955845D01*
X-49236369Y27527273D01*
X-49236369Y26908226D01*
G04 #@! TO.C,U1*
X-38481095Y33377119D02*
X-38481095Y32567595D01*
X-38528714Y32472357D01*
X-38576333Y32424738D01*
X-38671571Y32377119D01*
X-38862047Y32377119D01*
X-38957285Y32424738D01*
X-39004904Y32472357D01*
X-39052523Y32567595D01*
X-39052523Y33377119D01*
X-40052523Y32377119D02*
X-39481095Y32377119D01*
X-39766809Y32377119D02*
X-39766809Y33377119D01*
X-39671571Y33234261D01*
X-39576333Y33139023D01*
X-39481095Y33091404D01*
G04 #@! TO.C,C6*
X-42727607Y30551416D02*
X-42679988Y30599035D01*
X-42632369Y30741892D01*
X-42632369Y30837130D01*
X-42679988Y30979988D01*
X-42775226Y31075226D01*
X-42870464Y31122845D01*
X-43060940Y31170464D01*
X-43203797Y31170464D01*
X-43394273Y31122845D01*
X-43489511Y31075226D01*
X-43584750Y30979988D01*
X-43632369Y30837130D01*
X-43632369Y30741892D01*
X-43584750Y30599035D01*
X-43537130Y30551416D01*
X-43632369Y29694273D02*
X-43632369Y29884750D01*
X-43584750Y29979988D01*
X-43537130Y30027607D01*
X-43394273Y30122845D01*
X-43203797Y30170464D01*
X-42822845Y30170464D01*
X-42727607Y30122845D01*
X-42679988Y30075226D01*
X-42632369Y29979988D01*
X-42632369Y29789511D01*
X-42679988Y29694273D01*
X-42727607Y29646654D01*
X-42822845Y29599035D01*
X-43060940Y29599035D01*
X-43156178Y29646654D01*
X-43203797Y29694273D01*
X-43251416Y29789511D01*
X-43251416Y29979988D01*
X-43203797Y30075226D01*
X-43156178Y30122845D01*
X-43060940Y30170464D01*
G04 #@! TO.C,C5*
X-33491107Y20073916D02*
X-33443488Y20121535D01*
X-33395869Y20264392D01*
X-33395869Y20359630D01*
X-33443488Y20502488D01*
X-33538726Y20597726D01*
X-33633964Y20645345D01*
X-33824440Y20692964D01*
X-33967297Y20692964D01*
X-34157773Y20645345D01*
X-34253011Y20597726D01*
X-34348250Y20502488D01*
X-34395869Y20359630D01*
X-34395869Y20264392D01*
X-34348250Y20121535D01*
X-34300630Y20073916D01*
X-34395869Y19169154D02*
X-34395869Y19645345D01*
X-33919678Y19692964D01*
X-33967297Y19645345D01*
X-34014916Y19550107D01*
X-34014916Y19312011D01*
X-33967297Y19216773D01*
X-33919678Y19169154D01*
X-33824440Y19121535D01*
X-33586345Y19121535D01*
X-33491107Y19169154D01*
X-33443488Y19216773D01*
X-33395869Y19312011D01*
X-33395869Y19550107D01*
X-33443488Y19645345D01*
X-33491107Y19692964D01*
G04 #@! TO.C,C1*
X-38536607Y20137416D02*
X-38488988Y20185035D01*
X-38441369Y20327892D01*
X-38441369Y20423130D01*
X-38488988Y20565988D01*
X-38584226Y20661226D01*
X-38679464Y20708845D01*
X-38869940Y20756464D01*
X-39012797Y20756464D01*
X-39203273Y20708845D01*
X-39298511Y20661226D01*
X-39393750Y20565988D01*
X-39441369Y20423130D01*
X-39441369Y20327892D01*
X-39393750Y20185035D01*
X-39346130Y20137416D01*
X-38441369Y19185035D02*
X-38441369Y19756464D01*
X-38441369Y19470750D02*
X-39441369Y19470750D01*
X-39298511Y19565988D01*
X-39203273Y19661226D01*
X-39155654Y19756464D01*
G04 #@! TO.C,J1*
X-50852321Y29972369D02*
X-50852321Y30972369D01*
X-51185654Y30258083D01*
X-51518988Y30972369D01*
X-51518988Y29972369D01*
X-51995178Y29972369D02*
X-51995178Y30972369D01*
X-52423750Y30019988D02*
X-52566607Y29972369D01*
X-52804702Y29972369D01*
X-52899940Y30019988D01*
X-52947559Y30067607D01*
X-52995178Y30162845D01*
X-52995178Y30258083D01*
X-52947559Y30353321D01*
X-52899940Y30400940D01*
X-52804702Y30448559D01*
X-52614226Y30496178D01*
X-52518988Y30543797D01*
X-52471369Y30591416D01*
X-52423750Y30686654D01*
X-52423750Y30781892D01*
X-52471369Y30877130D01*
X-52518988Y30924750D01*
X-52614226Y30972369D01*
X-52852321Y30972369D01*
X-52995178Y30924750D01*
X-53614226Y30972369D02*
X-53804702Y30972369D01*
X-53899940Y30924750D01*
X-53995178Y30829511D01*
X-54042797Y30639035D01*
X-54042797Y30305702D01*
X-53995178Y30115226D01*
X-53899940Y30019988D01*
X-53804702Y29972369D01*
X-53614226Y29972369D01*
X-53518988Y30019988D01*
X-53423750Y30115226D01*
X-53376130Y30305702D01*
X-53376130Y30639035D01*
X-53423750Y30829511D01*
X-53518988Y30924750D01*
X-53614226Y30972369D01*
X-59340416Y30972369D02*
X-59673750Y29972369D01*
X-60007083Y30972369D01*
X-60911845Y30067607D02*
X-60864226Y30019988D01*
X-60721369Y29972369D01*
X-60626130Y29972369D01*
X-60483273Y30019988D01*
X-60388035Y30115226D01*
X-60340416Y30210464D01*
X-60292797Y30400940D01*
X-60292797Y30543797D01*
X-60340416Y30734273D01*
X-60388035Y30829511D01*
X-60483273Y30924750D01*
X-60626130Y30972369D01*
X-60721369Y30972369D01*
X-60864226Y30924750D01*
X-60911845Y30877130D01*
X-61911845Y30067607D02*
X-61864226Y30019988D01*
X-61721369Y29972369D01*
X-61626130Y29972369D01*
X-61483273Y30019988D01*
X-61388035Y30115226D01*
X-61340416Y30210464D01*
X-61292797Y30400940D01*
X-61292797Y30543797D01*
X-61340416Y30734273D01*
X-61388035Y30829511D01*
X-61483273Y30924750D01*
X-61626130Y30972369D01*
X-61721369Y30972369D01*
X-61864226Y30924750D01*
X-61911845Y30877130D01*
X-51388035Y32519988D02*
X-51530892Y32472369D01*
X-51768988Y32472369D01*
X-51864226Y32519988D01*
X-51911845Y32567607D01*
X-51959464Y32662845D01*
X-51959464Y32758083D01*
X-51911845Y32853321D01*
X-51864226Y32900940D01*
X-51768988Y32948559D01*
X-51578511Y32996178D01*
X-51483273Y33043797D01*
X-51435654Y33091416D01*
X-51388035Y33186654D01*
X-51388035Y33281892D01*
X-51435654Y33377130D01*
X-51483273Y33424750D01*
X-51578511Y33472369D01*
X-51816607Y33472369D01*
X-51959464Y33424750D01*
X-52959464Y32567607D02*
X-52911845Y32519988D01*
X-52768988Y32472369D01*
X-52673750Y32472369D01*
X-52530892Y32519988D01*
X-52435654Y32615226D01*
X-52388035Y32710464D01*
X-52340416Y32900940D01*
X-52340416Y33043797D01*
X-52388035Y33234273D01*
X-52435654Y33329511D01*
X-52530892Y33424750D01*
X-52673750Y33472369D01*
X-52768988Y33472369D01*
X-52911845Y33424750D01*
X-52959464Y33377130D01*
X-53388035Y32472369D02*
X-53388035Y33472369D01*
X-53959464Y32472369D02*
X-53530892Y33043797D01*
X-53959464Y33472369D02*
X-53388035Y32900940D01*
X-59352321Y32472369D02*
X-59352321Y33472369D01*
X-59685654Y32758083D01*
X-60018988Y33472369D01*
X-60018988Y32472369D01*
X-60685654Y33472369D02*
X-60876130Y33472369D01*
X-60971369Y33424750D01*
X-61066607Y33329511D01*
X-61114226Y33139035D01*
X-61114226Y32805702D01*
X-61066607Y32615226D01*
X-60971369Y32519988D01*
X-60876130Y32472369D01*
X-60685654Y32472369D01*
X-60590416Y32519988D01*
X-60495178Y32615226D01*
X-60447559Y32805702D01*
X-60447559Y33139035D01*
X-60495178Y33329511D01*
X-60590416Y33424750D01*
X-60685654Y33472369D01*
X-61495178Y32519988D02*
X-61638035Y32472369D01*
X-61876130Y32472369D01*
X-61971369Y32519988D01*
X-62018988Y32567607D01*
X-62066607Y32662845D01*
X-62066607Y32758083D01*
X-62018988Y32853321D01*
X-61971369Y32900940D01*
X-61876130Y32948559D01*
X-61685654Y32996178D01*
X-61590416Y33043797D01*
X-61542797Y33091416D01*
X-61495178Y33186654D01*
X-61495178Y33281892D01*
X-61542797Y33377130D01*
X-61590416Y33424750D01*
X-61685654Y33472369D01*
X-61923750Y33472369D01*
X-62066607Y33424750D01*
X-62495178Y32472369D02*
X-62495178Y33472369D01*
X-51876130Y34972369D02*
X-51542797Y35448559D01*
X-51304702Y34972369D02*
X-51304702Y35972369D01*
X-51685654Y35972369D01*
X-51780892Y35924750D01*
X-51828511Y35877130D01*
X-51876130Y35781892D01*
X-51876130Y35639035D01*
X-51828511Y35543797D01*
X-51780892Y35496178D01*
X-51685654Y35448559D01*
X-51304702Y35448559D01*
X-52257083Y35019988D02*
X-52399940Y34972369D01*
X-52638035Y34972369D01*
X-52733273Y35019988D01*
X-52780892Y35067607D01*
X-52828511Y35162845D01*
X-52828511Y35258083D01*
X-52780892Y35353321D01*
X-52733273Y35400940D01*
X-52638035Y35448559D01*
X-52447559Y35496178D01*
X-52352321Y35543797D01*
X-52304702Y35591416D01*
X-52257083Y35686654D01*
X-52257083Y35781892D01*
X-52304702Y35877130D01*
X-52352321Y35924750D01*
X-52447559Y35972369D01*
X-52685654Y35972369D01*
X-52828511Y35924750D01*
X-53114226Y35972369D02*
X-53685654Y35972369D01*
X-53399940Y34972369D02*
X-53399940Y35972369D01*
X-60161845Y35924750D02*
X-60066607Y35972369D01*
X-59923750Y35972369D01*
X-59780892Y35924750D01*
X-59685654Y35829511D01*
X-59638035Y35734273D01*
X-59590416Y35543797D01*
X-59590416Y35400940D01*
X-59638035Y35210464D01*
X-59685654Y35115226D01*
X-59780892Y35019988D01*
X-59923750Y34972369D01*
X-60018988Y34972369D01*
X-60161845Y35019988D01*
X-60209464Y35067607D01*
X-60209464Y35400940D01*
X-60018988Y35400940D01*
X-60638035Y34972369D02*
X-60638035Y35972369D01*
X-61209464Y34972369D01*
X-61209464Y35972369D01*
X-61685654Y34972369D02*
X-61685654Y35972369D01*
X-61923750Y35972369D01*
X-62066607Y35924750D01*
X-62161845Y35829511D01*
X-62209464Y35734273D01*
X-62257083Y35543797D01*
X-62257083Y35400940D01*
X-62209464Y35210464D01*
X-62161845Y35115226D01*
X-62066607Y35019988D01*
X-61923750Y34972369D01*
X-61685654Y34972369D01*
G04 #@! TO.C,C9*
X-23042607Y18994416D02*
X-22994988Y19042035D01*
X-22947369Y19184892D01*
X-22947369Y19280130D01*
X-22994988Y19422988D01*
X-23090226Y19518226D01*
X-23185464Y19565845D01*
X-23375940Y19613464D01*
X-23518797Y19613464D01*
X-23709273Y19565845D01*
X-23804511Y19518226D01*
X-23899750Y19422988D01*
X-23947369Y19280130D01*
X-23947369Y19184892D01*
X-23899750Y19042035D01*
X-23852130Y18994416D01*
X-22947369Y18518226D02*
X-22947369Y18327750D01*
X-22994988Y18232511D01*
X-23042607Y18184892D01*
X-23185464Y18089654D01*
X-23375940Y18042035D01*
X-23756892Y18042035D01*
X-23852130Y18089654D01*
X-23899750Y18137273D01*
X-23947369Y18232511D01*
X-23947369Y18422988D01*
X-23899750Y18518226D01*
X-23852130Y18565845D01*
X-23756892Y18613464D01*
X-23518797Y18613464D01*
X-23423559Y18565845D01*
X-23375940Y18518226D01*
X-23328321Y18422988D01*
X-23328321Y18232511D01*
X-23375940Y18137273D01*
X-23423559Y18089654D01*
X-23518797Y18042035D01*
G04 #@! TO.C,C8*
X-45521607Y6167416D02*
X-45473988Y6215035D01*
X-45426369Y6357892D01*
X-45426369Y6453130D01*
X-45473988Y6595988D01*
X-45569226Y6691226D01*
X-45664464Y6738845D01*
X-45854940Y6786464D01*
X-45997797Y6786464D01*
X-46188273Y6738845D01*
X-46283511Y6691226D01*
X-46378750Y6595988D01*
X-46426369Y6453130D01*
X-46426369Y6357892D01*
X-46378750Y6215035D01*
X-46331130Y6167416D01*
X-45997797Y5595988D02*
X-46045416Y5691226D01*
X-46093035Y5738845D01*
X-46188273Y5786464D01*
X-46235892Y5786464D01*
X-46331130Y5738845D01*
X-46378750Y5691226D01*
X-46426369Y5595988D01*
X-46426369Y5405511D01*
X-46378750Y5310273D01*
X-46331130Y5262654D01*
X-46235892Y5215035D01*
X-46188273Y5215035D01*
X-46093035Y5262654D01*
X-46045416Y5310273D01*
X-45997797Y5405511D01*
X-45997797Y5595988D01*
X-45950178Y5691226D01*
X-45902559Y5738845D01*
X-45807321Y5786464D01*
X-45616845Y5786464D01*
X-45521607Y5738845D01*
X-45473988Y5691226D01*
X-45426369Y5595988D01*
X-45426369Y5405511D01*
X-45473988Y5310273D01*
X-45521607Y5262654D01*
X-45616845Y5215035D01*
X-45807321Y5215035D01*
X-45902559Y5262654D01*
X-45950178Y5310273D01*
X-45997797Y5405511D01*
G04 #@! TO.C,C7*
X-68826083Y26471607D02*
X-68778464Y26423988D01*
X-68635607Y26376369D01*
X-68540369Y26376369D01*
X-68397511Y26423988D01*
X-68302273Y26519226D01*
X-68254654Y26614464D01*
X-68207035Y26804940D01*
X-68207035Y26947797D01*
X-68254654Y27138273D01*
X-68302273Y27233511D01*
X-68397511Y27328750D01*
X-68540369Y27376369D01*
X-68635607Y27376369D01*
X-68778464Y27328750D01*
X-68826083Y27281130D01*
X-69159416Y27376369D02*
X-69826083Y27376369D01*
X-69397511Y26376369D01*
G04 #@! TO.C,Y1*
X-44388307Y16455107D02*
X-44051589Y16118389D01*
X-44522994Y17061198D02*
X-44388307Y16455107D01*
X-44994398Y16589794D01*
X-44893383Y15276596D02*
X-44489322Y15680657D01*
X-44691353Y15478626D02*
X-45398459Y16185733D01*
X-45230101Y16152061D01*
X-45095414Y16152061D01*
X-44994398Y16185733D01*
G04 #@! TO.C,SW1*
X-65944916Y36012488D02*
X-66087773Y35964869D01*
X-66325869Y35964869D01*
X-66421107Y36012488D01*
X-66468726Y36060107D01*
X-66516345Y36155345D01*
X-66516345Y36250583D01*
X-66468726Y36345821D01*
X-66421107Y36393440D01*
X-66325869Y36441059D01*
X-66135392Y36488678D01*
X-66040154Y36536297D01*
X-65992535Y36583916D01*
X-65944916Y36679154D01*
X-65944916Y36774392D01*
X-65992535Y36869630D01*
X-66040154Y36917250D01*
X-66135392Y36964869D01*
X-66373488Y36964869D01*
X-66516345Y36917250D01*
X-66849678Y36964869D02*
X-67087773Y35964869D01*
X-67278250Y36679154D01*
X-67468726Y35964869D01*
X-67706821Y36964869D01*
X-68611583Y35964869D02*
X-68040154Y35964869D01*
X-68325869Y35964869D02*
X-68325869Y36964869D01*
X-68230630Y36822011D01*
X-68135392Y36726773D01*
X-68040154Y36679154D01*
G04 #@! TO.C,R6*
X-71493083Y23455369D02*
X-71159750Y23931559D01*
X-70921654Y23455369D02*
X-70921654Y24455369D01*
X-71302607Y24455369D01*
X-71397845Y24407750D01*
X-71445464Y24360130D01*
X-71493083Y24264892D01*
X-71493083Y24122035D01*
X-71445464Y24026797D01*
X-71397845Y23979178D01*
X-71302607Y23931559D01*
X-70921654Y23931559D01*
X-72350226Y24455369D02*
X-72159750Y24455369D01*
X-72064511Y24407750D01*
X-72016892Y24360130D01*
X-71921654Y24217273D01*
X-71874035Y24026797D01*
X-71874035Y23645845D01*
X-71921654Y23550607D01*
X-71969273Y23502988D01*
X-72064511Y23455369D01*
X-72254988Y23455369D01*
X-72350226Y23502988D01*
X-72397845Y23550607D01*
X-72445464Y23645845D01*
X-72445464Y23883940D01*
X-72397845Y23979178D01*
X-72350226Y24026797D01*
X-72254988Y24074416D01*
X-72064511Y24074416D01*
X-71969273Y24026797D01*
X-71921654Y23979178D01*
X-71874035Y23883940D01*
G04 #@! TO.C,R3*
X-74222619Y30106916D02*
X-74698809Y30440250D01*
X-74222619Y30678345D02*
X-75222619Y30678345D01*
X-75222619Y30297392D01*
X-75175000Y30202154D01*
X-75127380Y30154535D01*
X-75032142Y30106916D01*
X-74889285Y30106916D01*
X-74794047Y30154535D01*
X-74746428Y30202154D01*
X-74698809Y30297392D01*
X-74698809Y30678345D01*
X-75222619Y29773583D02*
X-75222619Y29154535D01*
X-74841666Y29487869D01*
X-74841666Y29345011D01*
X-74794047Y29249773D01*
X-74746428Y29202154D01*
X-74651190Y29154535D01*
X-74413095Y29154535D01*
X-74317857Y29202154D01*
X-74270238Y29249773D01*
X-74222619Y29345011D01*
X-74222619Y29630726D01*
X-74270238Y29725964D01*
X-74317857Y29773583D01*
G04 #@! TO.C,R2*
X-48887083Y35901369D02*
X-48553750Y36377559D01*
X-48315654Y35901369D02*
X-48315654Y36901369D01*
X-48696607Y36901369D01*
X-48791845Y36853750D01*
X-48839464Y36806130D01*
X-48887083Y36710892D01*
X-48887083Y36568035D01*
X-48839464Y36472797D01*
X-48791845Y36425178D01*
X-48696607Y36377559D01*
X-48315654Y36377559D01*
X-49268035Y36806130D02*
X-49315654Y36853750D01*
X-49410892Y36901369D01*
X-49648988Y36901369D01*
X-49744226Y36853750D01*
X-49791845Y36806130D01*
X-49839464Y36710892D01*
X-49839464Y36615654D01*
X-49791845Y36472797D01*
X-49220416Y35901369D01*
X-49839464Y35901369D01*
G04 #@! TO.C,R1*
X-29488869Y35504416D02*
X-29965059Y35837750D01*
X-29488869Y36075845D02*
X-30488869Y36075845D01*
X-30488869Y35694892D01*
X-30441250Y35599654D01*
X-30393630Y35552035D01*
X-30298392Y35504416D01*
X-30155535Y35504416D01*
X-30060297Y35552035D01*
X-30012678Y35599654D01*
X-29965059Y35694892D01*
X-29965059Y36075845D01*
X-29488869Y34552035D02*
X-29488869Y35123464D01*
X-29488869Y34837750D02*
X-30488869Y34837750D01*
X-30346011Y34932988D01*
X-30250773Y35028226D01*
X-30203154Y35123464D01*
G04 #@! TO.C,F1*
X-46275666Y31779428D02*
X-45942333Y31779428D01*
X-45942333Y31255619D02*
X-45942333Y32255619D01*
X-46418523Y32255619D01*
X-47323285Y31255619D02*
X-46751857Y31255619D01*
X-47037571Y31255619D02*
X-47037571Y32255619D01*
X-46942333Y32112761D01*
X-46847095Y32017523D01*
X-46751857Y31969904D01*
G04 #@! TO.C,D3*
X-15327404Y15803619D02*
X-15327404Y16803619D01*
X-15565500Y16803619D01*
X-15708357Y16756000D01*
X-15803595Y16660761D01*
X-15851214Y16565523D01*
X-15898833Y16375047D01*
X-15898833Y16232190D01*
X-15851214Y16041714D01*
X-15803595Y15946476D01*
X-15708357Y15851238D01*
X-15565500Y15803619D01*
X-15327404Y15803619D01*
X-16232166Y16803619D02*
X-16851214Y16803619D01*
X-16517880Y16422666D01*
X-16660738Y16422666D01*
X-16755976Y16375047D01*
X-16803595Y16327428D01*
X-16851214Y16232190D01*
X-16851214Y15994095D01*
X-16803595Y15898857D01*
X-16755976Y15851238D01*
X-16660738Y15803619D01*
X-16375023Y15803619D01*
X-16279785Y15851238D01*
X-16232166Y15898857D01*
X-21898214Y17791369D02*
X-21326785Y17791369D01*
X-21612500Y17791369D02*
X-21612500Y18791369D01*
X-21517261Y18648511D01*
X-21422023Y18553273D01*
X-21326785Y18505654D01*
G04 #@! TO.C,D1*
X-70413654Y15891369D02*
X-70413654Y16891369D01*
X-70651750Y16891369D01*
X-70794607Y16843750D01*
X-70889845Y16748511D01*
X-70937464Y16653273D01*
X-70985083Y16462797D01*
X-70985083Y16319940D01*
X-70937464Y16129464D01*
X-70889845Y16034226D01*
X-70794607Y15938988D01*
X-70651750Y15891369D01*
X-70413654Y15891369D01*
X-71937464Y15891369D02*
X-71366035Y15891369D01*
X-71651750Y15891369D02*
X-71651750Y16891369D01*
X-71556511Y16748511D01*
X-71461273Y16653273D01*
X-71366035Y16605654D01*
X-75088714Y15803619D02*
X-74517285Y15803619D01*
X-74803000Y15803619D02*
X-74803000Y16803619D01*
X-74707761Y16660761D01*
X-74612523Y16565523D01*
X-74517285Y16517904D01*
G04 #@! TO.C,C4*
X-46915626Y10252671D02*
X-46915626Y10185328D01*
X-46848282Y10050641D01*
X-46780939Y9983297D01*
X-46646251Y9915954D01*
X-46511564Y9915954D01*
X-46410549Y9949625D01*
X-46242190Y10050641D01*
X-46141175Y10151656D01*
X-46040160Y10320015D01*
X-46006488Y10421030D01*
X-46006488Y10555717D01*
X-46073832Y10690404D01*
X-46141175Y10757748D01*
X-46275862Y10825091D01*
X-46343206Y10825091D01*
X-47117656Y11262824D02*
X-47589061Y10791419D01*
X-46679923Y11363839D02*
X-47016641Y10690404D01*
X-47454374Y11128137D01*
G04 #@! TO.C,C3*
X-42193108Y10425012D02*
X-42125765Y10425012D01*
X-41991078Y10492356D01*
X-41923734Y10559699D01*
X-41856391Y10694387D01*
X-41856391Y10829074D01*
X-41890062Y10930089D01*
X-41991078Y11098448D01*
X-42092093Y11199463D01*
X-42260452Y11300478D01*
X-42361467Y11334150D01*
X-42496154Y11334150D01*
X-42630841Y11266806D01*
X-42698185Y11199463D01*
X-42765528Y11064776D01*
X-42765528Y10997432D01*
X-43068574Y10829074D02*
X-43506307Y10391341D01*
X-43001230Y10357669D01*
X-43102246Y10256654D01*
X-43135917Y10155638D01*
X-43135917Y10088295D01*
X-43102246Y9987280D01*
X-42933887Y9818921D01*
X-42832872Y9785249D01*
X-42765528Y9785249D01*
X-42664513Y9818921D01*
X-42462482Y10020951D01*
X-42428810Y10121967D01*
X-42428810Y10189310D01*
G04 #@! TO.C,C2*
X-47045607Y15565416D02*
X-46997988Y15613035D01*
X-46950369Y15755892D01*
X-46950369Y15851130D01*
X-46997988Y15993988D01*
X-47093226Y16089226D01*
X-47188464Y16136845D01*
X-47378940Y16184464D01*
X-47521797Y16184464D01*
X-47712273Y16136845D01*
X-47807511Y16089226D01*
X-47902750Y15993988D01*
X-47950369Y15851130D01*
X-47950369Y15755892D01*
X-47902750Y15613035D01*
X-47855130Y15565416D01*
X-47855130Y15184464D02*
X-47902750Y15136845D01*
X-47950369Y15041607D01*
X-47950369Y14803511D01*
X-47902750Y14708273D01*
X-47855130Y14660654D01*
X-47759892Y14613035D01*
X-47664654Y14613035D01*
X-47521797Y14660654D01*
X-46950369Y15232083D01*
X-46950369Y14613035D01*
G04 #@! TD*
%LPC*%
D13*
G04 #@! TO.C,D2*
X-41343750Y4781750D03*
X-41343750Y7981750D03*
X-36443750Y4781750D03*
X-36443750Y7981750D03*
G04 #@! TD*
D14*
G04 #@! TO.C,D6*
X-26869390Y3956050D03*
X-26869390Y7156450D03*
X-31868110Y7156450D03*
X-31868110Y3956050D03*
D15*
X-29368750Y5556250D03*
G04 #@! TD*
G04 #@! TO.C,D7*
X-10318750Y5556250D03*
D14*
X-12818110Y3956050D03*
X-12818110Y7156450D03*
X-7819390Y7156450D03*
X-7819390Y3956050D03*
G04 #@! TD*
D15*
G04 #@! TO.C,D5*
X-29368750Y24606250D03*
D14*
X-31868110Y23006050D03*
X-31868110Y26206450D03*
X-26869390Y26206450D03*
X-26869390Y23006050D03*
G04 #@! TD*
D15*
G04 #@! TO.C,D4*
X-10318750Y24511000D03*
D14*
X-12818110Y22910800D03*
X-12818110Y26111200D03*
X-7819390Y26111200D03*
X-7819390Y22910800D03*
G04 #@! TD*
D16*
G04 #@! TO.C,MX2*
X-26828750Y15398750D03*
D17*
X-29368750Y10318750D03*
D16*
X-33178750Y12858750D03*
D18*
X-34448750Y10318750D03*
X-24288750Y10318750D03*
G04 #@! TD*
G04 #@! TO.C,C13*
G36*
G01*
X-6444000Y6403000D02*
X-5494000Y6403000D01*
G75*
G02*
X-5244000Y6153000I0J-250000D01*
G01*
X-5244000Y5653000D01*
G75*
G02*
X-5494000Y5403000I-250000J0D01*
G01*
X-6444000Y5403000D01*
G75*
G02*
X-6694000Y5653000I0J250000D01*
G01*
X-6694000Y6153000D01*
G75*
G02*
X-6444000Y6403000I250000J0D01*
G01*
G37*
G36*
G01*
X-6444000Y4503000D02*
X-5494000Y4503000D01*
G75*
G02*
X-5244000Y4253000I0J-250000D01*
G01*
X-5244000Y3753000D01*
G75*
G02*
X-5494000Y3503000I-250000J0D01*
G01*
X-6444000Y3503000D01*
G75*
G02*
X-6694000Y3753000I0J250000D01*
G01*
X-6694000Y4253000D01*
G75*
G02*
X-6444000Y4503000I250000J0D01*
G01*
G37*
G04 #@! TD*
G04 #@! TO.C,C12*
G36*
G01*
X-25367000Y6403000D02*
X-24417000Y6403000D01*
G75*
G02*
X-24167000Y6153000I0J-250000D01*
G01*
X-24167000Y5653000D01*
G75*
G02*
X-24417000Y5403000I-250000J0D01*
G01*
X-25367000Y5403000D01*
G75*
G02*
X-25617000Y5653000I0J250000D01*
G01*
X-25617000Y6153000D01*
G75*
G02*
X-25367000Y6403000I250000J0D01*
G01*
G37*
G36*
G01*
X-25367000Y4503000D02*
X-24417000Y4503000D01*
G75*
G02*
X-24167000Y4253000I0J-250000D01*
G01*
X-24167000Y3753000D01*
G75*
G02*
X-24417000Y3503000I-250000J0D01*
G01*
X-25367000Y3503000D01*
G75*
G02*
X-25617000Y3753000I0J250000D01*
G01*
X-25617000Y4253000D01*
G75*
G02*
X-25367000Y4503000I250000J0D01*
G01*
G37*
G04 #@! TD*
G04 #@! TO.C,C11*
G36*
G01*
X-24544000Y22421000D02*
X-25494000Y22421000D01*
G75*
G02*
X-25744000Y22671000I0J250000D01*
G01*
X-25744000Y23171000D01*
G75*
G02*
X-25494000Y23421000I250000J0D01*
G01*
X-24544000Y23421000D01*
G75*
G02*
X-24294000Y23171000I0J-250000D01*
G01*
X-24294000Y22671000D01*
G75*
G02*
X-24544000Y22421000I-250000J0D01*
G01*
G37*
G36*
G01*
X-24544000Y20521000D02*
X-25494000Y20521000D01*
G75*
G02*
X-25744000Y20771000I0J250000D01*
G01*
X-25744000Y21271000D01*
G75*
G02*
X-25494000Y21521000I250000J0D01*
G01*
X-24544000Y21521000D01*
G75*
G02*
X-24294000Y21271000I0J-250000D01*
G01*
X-24294000Y20771000D01*
G75*
G02*
X-24544000Y20521000I-250000J0D01*
G01*
G37*
G04 #@! TD*
G04 #@! TO.C,C10*
G36*
G01*
X-5657000Y23335000D02*
X-5657000Y22385000D01*
G75*
G02*
X-5907000Y22135000I-250000J0D01*
G01*
X-6407000Y22135000D01*
G75*
G02*
X-6657000Y22385000I0J250000D01*
G01*
X-6657000Y23335000D01*
G75*
G02*
X-6407000Y23585000I250000J0D01*
G01*
X-5907000Y23585000D01*
G75*
G02*
X-5657000Y23335000I0J-250000D01*
G01*
G37*
G36*
G01*
X-3757000Y23335000D02*
X-3757000Y22385000D01*
G75*
G02*
X-4007000Y22135000I-250000J0D01*
G01*
X-4507000Y22135000D01*
G75*
G02*
X-4757000Y22385000I0J250000D01*
G01*
X-4757000Y23335000D01*
G75*
G02*
X-4507000Y23585000I250000J0D01*
G01*
X-4007000Y23585000D01*
G75*
G02*
X-3757000Y23335000I0J-250000D01*
G01*
G37*
G04 #@! TD*
D19*
G04 #@! TO.C,U2*
X-40993750Y20726750D03*
X-40993750Y21526750D03*
X-40993750Y22326750D03*
X-40993750Y23126750D03*
X-40993750Y23926750D03*
X-40993750Y24726750D03*
X-40993750Y25526750D03*
X-40993750Y26326750D03*
D20*
X-42443750Y27776750D03*
X-43243750Y27776750D03*
X-44043750Y27776750D03*
X-44843750Y27776750D03*
X-45643750Y27776750D03*
X-46443750Y27776750D03*
X-47243750Y27776750D03*
X-48043750Y27776750D03*
D19*
X-49493750Y26326750D03*
X-49493750Y25526750D03*
X-49493750Y24726750D03*
X-49493750Y23926750D03*
X-49493750Y23126750D03*
X-49493750Y22326750D03*
X-49493750Y21526750D03*
X-49493750Y20726750D03*
D20*
X-48043750Y19276750D03*
X-47243750Y19276750D03*
X-46443750Y19276750D03*
X-45643750Y19276750D03*
X-44843750Y19276750D03*
X-44043750Y19276750D03*
X-43243750Y19276750D03*
X-42443750Y19276750D03*
G04 #@! TD*
D21*
G04 #@! TO.C,U1*
X-37608000Y31484000D03*
D22*
X-39608000Y31684000D03*
X-37608000Y29784000D03*
X-39608000Y29784000D03*
G04 #@! TD*
G04 #@! TO.C,C6*
G36*
G01*
X-41054000Y31057000D02*
X-42004000Y31057000D01*
G75*
G02*
X-42254000Y31307000I0J250000D01*
G01*
X-42254000Y31807000D01*
G75*
G02*
X-42004000Y32057000I250000J0D01*
G01*
X-41054000Y32057000D01*
G75*
G02*
X-40804000Y31807000I0J-250000D01*
G01*
X-40804000Y31307000D01*
G75*
G02*
X-41054000Y31057000I-250000J0D01*
G01*
G37*
G36*
G01*
X-41054000Y29157000D02*
X-42004000Y29157000D01*
G75*
G02*
X-42254000Y29407000I0J250000D01*
G01*
X-42254000Y29907000D01*
G75*
G02*
X-42004000Y30157000I250000J0D01*
G01*
X-41054000Y30157000D01*
G75*
G02*
X-40804000Y29907000I0J-250000D01*
G01*
X-40804000Y29407000D01*
G75*
G02*
X-41054000Y29157000I-250000J0D01*
G01*
G37*
G04 #@! TD*
G04 #@! TO.C,C5*
G36*
G01*
X-35053250Y20357250D02*
X-36003250Y20357250D01*
G75*
G02*
X-36253250Y20607250I0J250000D01*
G01*
X-36253250Y21107250D01*
G75*
G02*
X-36003250Y21357250I250000J0D01*
G01*
X-35053250Y21357250D01*
G75*
G02*
X-34803250Y21107250I0J-250000D01*
G01*
X-34803250Y20607250D01*
G75*
G02*
X-35053250Y20357250I-250000J0D01*
G01*
G37*
G36*
G01*
X-35053250Y18457250D02*
X-36003250Y18457250D01*
G75*
G02*
X-36253250Y18707250I0J250000D01*
G01*
X-36253250Y19207250D01*
G75*
G02*
X-36003250Y19457250I250000J0D01*
G01*
X-35053250Y19457250D01*
G75*
G02*
X-34803250Y19207250I0J-250000D01*
G01*
X-34803250Y18707250D01*
G75*
G02*
X-35053250Y18457250I-250000J0D01*
G01*
G37*
G04 #@! TD*
G04 #@! TO.C,C1*
G36*
G01*
X-37021750Y20357250D02*
X-37971750Y20357250D01*
G75*
G02*
X-38221750Y20607250I0J250000D01*
G01*
X-38221750Y21107250D01*
G75*
G02*
X-37971750Y21357250I250000J0D01*
G01*
X-37021750Y21357250D01*
G75*
G02*
X-36771750Y21107250I0J-250000D01*
G01*
X-36771750Y20607250D01*
G75*
G02*
X-37021750Y20357250I-250000J0D01*
G01*
G37*
G36*
G01*
X-37021750Y18457250D02*
X-37971750Y18457250D01*
G75*
G02*
X-38221750Y18707250I0J250000D01*
G01*
X-38221750Y19207250D01*
G75*
G02*
X-37971750Y19457250I250000J0D01*
G01*
X-37021750Y19457250D01*
G75*
G02*
X-36771750Y19207250I0J-250000D01*
G01*
X-36771750Y18707250D01*
G75*
G02*
X-37021750Y18457250I-250000J0D01*
G01*
G37*
G04 #@! TD*
D16*
G04 #@! TO.C,MX4*
X-7778750Y15398750D03*
D17*
X-10318750Y10318750D03*
D16*
X-14128750Y12858750D03*
D18*
X-15398750Y10318750D03*
X-5238750Y10318750D03*
G04 #@! TD*
D16*
G04 #@! TO.C,MX3*
X-7778750Y34448750D03*
D17*
X-10318750Y29368750D03*
D16*
X-14128750Y31908750D03*
D18*
X-15398750Y29368750D03*
X-5238750Y29368750D03*
G04 #@! TD*
D16*
G04 #@! TO.C,MX1*
X-26828750Y34448750D03*
D17*
X-29368750Y29368750D03*
D16*
X-33178750Y31908750D03*
D18*
X-34448750Y29368750D03*
X-24288750Y29368750D03*
G04 #@! TD*
G04 #@! TO.C,R4*
G36*
G01*
X-38538998Y27832000D02*
X-39439002Y27832000D01*
G75*
G02*
X-39689000Y28081998I0J249998D01*
G01*
X-39689000Y28607002D01*
G75*
G02*
X-39439002Y28857000I249998J0D01*
G01*
X-38538998Y28857000D01*
G75*
G02*
X-38289000Y28607002I0J-249998D01*
G01*
X-38289000Y28081998D01*
G75*
G02*
X-38538998Y27832000I-249998J0D01*
G01*
G37*
G36*
G01*
X-38538998Y26007000D02*
X-39439002Y26007000D01*
G75*
G02*
X-39689000Y26256998I0J249998D01*
G01*
X-39689000Y26782002D01*
G75*
G02*
X-39439002Y27032000I249998J0D01*
G01*
X-38538998Y27032000D01*
G75*
G02*
X-38289000Y26782002I0J-249998D01*
G01*
X-38289000Y26256998D01*
G75*
G02*
X-38538998Y26007000I-249998J0D01*
G01*
G37*
G04 #@! TD*
G04 #@! TO.C,USB1*
G36*
G01*
X-36018750Y33648750D02*
X-36018750Y35098750D01*
G75*
G02*
X-35968750Y35148750I50000J0D01*
G01*
X-35368750Y35148750D01*
G75*
G02*
X-35318750Y35098750I0J-50000D01*
G01*
X-35318750Y33648750D01*
G75*
G02*
X-35368750Y33598750I-50000J0D01*
G01*
X-35968750Y33598750D01*
G75*
G02*
X-36018750Y33648750I0J50000D01*
G01*
G37*
G36*
G01*
X-42468750Y33648750D02*
X-42468750Y35098750D01*
G75*
G02*
X-42418750Y35148750I50000J0D01*
G01*
X-41818750Y35148750D01*
G75*
G02*
X-41768750Y35098750I0J-50000D01*
G01*
X-41768750Y33648750D01*
G75*
G02*
X-41818750Y33598750I-50000J0D01*
G01*
X-42418750Y33598750D01*
G75*
G02*
X-42468750Y33648750I0J50000D01*
G01*
G37*
G36*
G01*
X-36793750Y33648750D02*
X-36793750Y35098750D01*
G75*
G02*
X-36743750Y35148750I50000J0D01*
G01*
X-36143750Y35148750D01*
G75*
G02*
X-36093750Y35098750I0J-50000D01*
G01*
X-36093750Y33648750D01*
G75*
G02*
X-36143750Y33598750I-50000J0D01*
G01*
X-36743750Y33598750D01*
G75*
G02*
X-36793750Y33648750I0J50000D01*
G01*
G37*
G36*
G01*
X-41693750Y33648750D02*
X-41693750Y35098750D01*
G75*
G02*
X-41643750Y35148750I50000J0D01*
G01*
X-41043750Y35148750D01*
G75*
G02*
X-40993750Y35098750I0J-50000D01*
G01*
X-40993750Y33648750D01*
G75*
G02*
X-41043750Y33598750I-50000J0D01*
G01*
X-41643750Y33598750D01*
G75*
G02*
X-41693750Y33648750I0J50000D01*
G01*
G37*
G36*
G01*
X-40843750Y33648750D02*
X-40843750Y35098750D01*
G75*
G02*
X-40793750Y35148750I50000J0D01*
G01*
X-40493750Y35148750D01*
G75*
G02*
X-40443750Y35098750I0J-50000D01*
G01*
X-40443750Y33648750D01*
G75*
G02*
X-40493750Y33598750I-50000J0D01*
G01*
X-40793750Y33598750D01*
G75*
G02*
X-40843750Y33648750I0J50000D01*
G01*
G37*
G36*
G01*
X-37343750Y33648750D02*
X-37343750Y35098750D01*
G75*
G02*
X-37293750Y35148750I50000J0D01*
G01*
X-36993750Y35148750D01*
G75*
G02*
X-36943750Y35098750I0J-50000D01*
G01*
X-36943750Y33648750D01*
G75*
G02*
X-36993750Y33598750I-50000J0D01*
G01*
X-37293750Y33598750D01*
G75*
G02*
X-37343750Y33648750I0J50000D01*
G01*
G37*
G36*
G01*
X-40343750Y33648750D02*
X-40343750Y35098750D01*
G75*
G02*
X-40293750Y35148750I50000J0D01*
G01*
X-39993750Y35148750D01*
G75*
G02*
X-39943750Y35098750I0J-50000D01*
G01*
X-39943750Y33648750D01*
G75*
G02*
X-39993750Y33598750I-50000J0D01*
G01*
X-40293750Y33598750D01*
G75*
G02*
X-40343750Y33648750I0J50000D01*
G01*
G37*
G36*
G01*
X-37843750Y33648750D02*
X-37843750Y35098750D01*
G75*
G02*
X-37793750Y35148750I50000J0D01*
G01*
X-37493750Y35148750D01*
G75*
G02*
X-37443750Y35098750I0J-50000D01*
G01*
X-37443750Y33648750D01*
G75*
G02*
X-37493750Y33598750I-50000J0D01*
G01*
X-37793750Y33598750D01*
G75*
G02*
X-37843750Y33648750I0J50000D01*
G01*
G37*
G36*
G01*
X-39843750Y33648750D02*
X-39843750Y35098750D01*
G75*
G02*
X-39793750Y35148750I50000J0D01*
G01*
X-39493750Y35148750D01*
G75*
G02*
X-39443750Y35098750I0J-50000D01*
G01*
X-39443750Y33648750D01*
G75*
G02*
X-39493750Y33598750I-50000J0D01*
G01*
X-39793750Y33598750D01*
G75*
G02*
X-39843750Y33648750I0J50000D01*
G01*
G37*
G36*
G01*
X-38343750Y33648750D02*
X-38343750Y35098750D01*
G75*
G02*
X-38293750Y35148750I50000J0D01*
G01*
X-37993750Y35148750D01*
G75*
G02*
X-37943750Y35098750I0J-50000D01*
G01*
X-37943750Y33648750D01*
G75*
G02*
X-37993750Y33598750I-50000J0D01*
G01*
X-38293750Y33598750D01*
G75*
G02*
X-38343750Y33648750I0J50000D01*
G01*
G37*
G36*
G01*
X-38843750Y33648750D02*
X-38843750Y35098750D01*
G75*
G02*
X-38793750Y35148750I50000J0D01*
G01*
X-38493750Y35148750D01*
G75*
G02*
X-38443750Y35098750I0J-50000D01*
G01*
X-38443750Y33648750D01*
G75*
G02*
X-38493750Y33598750I-50000J0D01*
G01*
X-38793750Y33598750D01*
G75*
G02*
X-38843750Y33648750I0J50000D01*
G01*
G37*
G36*
G01*
X-39343750Y33648750D02*
X-39343750Y35098750D01*
G75*
G02*
X-39293750Y35148750I50000J0D01*
G01*
X-38993750Y35148750D01*
G75*
G02*
X-38943750Y35098750I0J-50000D01*
G01*
X-38943750Y33648750D01*
G75*
G02*
X-38993750Y33598750I-50000J0D01*
G01*
X-39293750Y33598750D01*
G75*
G02*
X-39343750Y33648750I0J50000D01*
G01*
G37*
D23*
X-36003750Y35818750D03*
X-41783750Y35818750D03*
D24*
X-43213750Y35288750D03*
X-34573750Y35288750D03*
D25*
X-43213750Y39468750D03*
X-34573750Y39468750D03*
G04 #@! TD*
G04 #@! TO.C,R5*
G36*
G01*
X-37534002Y27032000D02*
X-36633998Y27032000D01*
G75*
G02*
X-36384000Y26782002I0J-249998D01*
G01*
X-36384000Y26256998D01*
G75*
G02*
X-36633998Y26007000I-249998J0D01*
G01*
X-37534002Y26007000D01*
G75*
G02*
X-37784000Y26256998I0J249998D01*
G01*
X-37784000Y26782002D01*
G75*
G02*
X-37534002Y27032000I249998J0D01*
G01*
G37*
G36*
G01*
X-37534002Y28857000D02*
X-36633998Y28857000D01*
G75*
G02*
X-36384000Y28607002I0J-249998D01*
G01*
X-36384000Y28081998D01*
G75*
G02*
X-36633998Y27832000I-249998J0D01*
G01*
X-37534002Y27832000D01*
G75*
G02*
X-37784000Y28081998I0J249998D01*
G01*
X-37784000Y28607002D01*
G75*
G02*
X-37534002Y28857000I249998J0D01*
G01*
G37*
G04 #@! TD*
D26*
G04 #@! TO.C,SW2*
X-55443750Y27343750D03*
D27*
X-57943750Y27343750D03*
X-60443750Y27343750D03*
D28*
X-52343750Y19843750D03*
X-63543750Y19843750D03*
D27*
X-55443750Y12843750D03*
X-60443750Y12843750D03*
G04 #@! TD*
G04 #@! TO.C,C9*
G36*
G01*
X-22446000Y18854000D02*
X-21496000Y18854000D01*
G75*
G02*
X-21246000Y18604000I0J-250000D01*
G01*
X-21246000Y18104000D01*
G75*
G02*
X-21496000Y17854000I-250000J0D01*
G01*
X-22446000Y17854000D01*
G75*
G02*
X-22696000Y18104000I0J250000D01*
G01*
X-22696000Y18604000D01*
G75*
G02*
X-22446000Y18854000I250000J0D01*
G01*
G37*
G36*
G01*
X-22446000Y20754000D02*
X-21496000Y20754000D01*
G75*
G02*
X-21246000Y20504000I0J-250000D01*
G01*
X-21246000Y20004000D01*
G75*
G02*
X-21496000Y19754000I-250000J0D01*
G01*
X-22446000Y19754000D01*
G75*
G02*
X-22696000Y20004000I0J250000D01*
G01*
X-22696000Y20504000D01*
G75*
G02*
X-22446000Y20754000I250000J0D01*
G01*
G37*
G04 #@! TD*
G04 #@! TO.C,C8*
G36*
G01*
X-44006750Y5752250D02*
X-44956750Y5752250D01*
G75*
G02*
X-45206750Y6002250I0J250000D01*
G01*
X-45206750Y6502250D01*
G75*
G02*
X-44956750Y6752250I250000J0D01*
G01*
X-44006750Y6752250D01*
G75*
G02*
X-43756750Y6502250I0J-250000D01*
G01*
X-43756750Y6002250D01*
G75*
G02*
X-44006750Y5752250I-250000J0D01*
G01*
G37*
G36*
G01*
X-44006750Y3852250D02*
X-44956750Y3852250D01*
G75*
G02*
X-45206750Y4102250I0J250000D01*
G01*
X-45206750Y4602250D01*
G75*
G02*
X-44956750Y4852250I250000J0D01*
G01*
X-44006750Y4852250D01*
G75*
G02*
X-43756750Y4602250I0J-250000D01*
G01*
X-43756750Y4102250D01*
G75*
G02*
X-44006750Y3852250I-250000J0D01*
G01*
G37*
G04 #@! TD*
G04 #@! TO.C,C7*
G36*
G01*
X-71919250Y27367250D02*
X-71919250Y26417250D01*
G75*
G02*
X-72169250Y26167250I-250000J0D01*
G01*
X-72669250Y26167250D01*
G75*
G02*
X-72919250Y26417250I0J250000D01*
G01*
X-72919250Y27367250D01*
G75*
G02*
X-72669250Y27617250I250000J0D01*
G01*
X-72169250Y27617250D01*
G75*
G02*
X-71919250Y27367250I0J-250000D01*
G01*
G37*
G36*
G01*
X-70019250Y27367250D02*
X-70019250Y26417250D01*
G75*
G02*
X-70269250Y26167250I-250000J0D01*
G01*
X-70769250Y26167250D01*
G75*
G02*
X-71019250Y26417250I0J250000D01*
G01*
X-71019250Y27367250D01*
G75*
G02*
X-70769250Y27617250I250000J0D01*
G01*
X-70269250Y27617250D01*
G75*
G02*
X-70019250Y27367250I0J-250000D01*
G01*
G37*
G04 #@! TD*
D29*
G04 #@! TO.C,Y1*
G36*
X-42728289Y16667239D02*
G01*
X-41879761Y15818711D01*
X-42869711Y14828761D01*
X-43718239Y15677289D01*
X-42728289Y16667239D01*
G37*
G36*
X-44283924Y15111604D02*
G01*
X-43435396Y14263076D01*
X-44425346Y13273126D01*
X-45273874Y14121654D01*
X-44283924Y15111604D01*
G37*
G36*
X-43081843Y13909523D02*
G01*
X-42233315Y13060995D01*
X-43223265Y12071045D01*
X-44071793Y12919573D01*
X-43081843Y13909523D01*
G37*
G36*
X-41526208Y15465158D02*
G01*
X-40677680Y14616630D01*
X-41667630Y13626680D01*
X-42516158Y14475208D01*
X-41526208Y15465158D01*
G37*
G04 #@! TD*
D30*
G04 #@! TO.C,SW1*
X-70378250Y34203250D03*
X-64178250Y30503250D03*
X-70378250Y30503250D03*
X-64178250Y34203250D03*
G04 #@! TD*
G04 #@! TO.C,R6*
G36*
G01*
X-68910250Y23648248D02*
X-68910250Y24548252D01*
G75*
G02*
X-68660252Y24798250I249998J0D01*
G01*
X-68135248Y24798250D01*
G75*
G02*
X-67885250Y24548252I0J-249998D01*
G01*
X-67885250Y23648248D01*
G75*
G02*
X-68135248Y23398250I-249998J0D01*
G01*
X-68660252Y23398250D01*
G75*
G02*
X-68910250Y23648248I0J249998D01*
G01*
G37*
G36*
G01*
X-70735250Y23648248D02*
X-70735250Y24548252D01*
G75*
G02*
X-70485252Y24798250I249998J0D01*
G01*
X-69960248Y24798250D01*
G75*
G02*
X-69710250Y24548252I0J-249998D01*
G01*
X-69710250Y23648248D01*
G75*
G02*
X-69960248Y23398250I-249998J0D01*
G01*
X-70485252Y23398250D01*
G75*
G02*
X-70735250Y23648248I0J249998D01*
G01*
G37*
G04 #@! TD*
G04 #@! TO.C,R3*
G36*
G01*
X-73475002Y29540250D02*
X-72574998Y29540250D01*
G75*
G02*
X-72325000Y29290252I0J-249998D01*
G01*
X-72325000Y28765248D01*
G75*
G02*
X-72574998Y28515250I-249998J0D01*
G01*
X-73475002Y28515250D01*
G75*
G02*
X-73725000Y28765248I0J249998D01*
G01*
X-73725000Y29290252D01*
G75*
G02*
X-73475002Y29540250I249998J0D01*
G01*
G37*
G36*
G01*
X-73475002Y31365250D02*
X-72574998Y31365250D01*
G75*
G02*
X-72325000Y31115252I0J-249998D01*
G01*
X-72325000Y30590248D01*
G75*
G02*
X-72574998Y30340250I-249998J0D01*
G01*
X-73475002Y30340250D01*
G75*
G02*
X-73725000Y30590248I0J249998D01*
G01*
X-73725000Y31115252D01*
G75*
G02*
X-73475002Y31365250I249998J0D01*
G01*
G37*
G04 #@! TD*
G04 #@! TO.C,R2*
G36*
G01*
X-47009000Y36772002D02*
X-47009000Y35871998D01*
G75*
G02*
X-47258998Y35622000I-249998J0D01*
G01*
X-47784002Y35622000D01*
G75*
G02*
X-48034000Y35871998I0J249998D01*
G01*
X-48034000Y36772002D01*
G75*
G02*
X-47784002Y37022000I249998J0D01*
G01*
X-47258998Y37022000D01*
G75*
G02*
X-47009000Y36772002I0J-249998D01*
G01*
G37*
G36*
G01*
X-45184000Y36772002D02*
X-45184000Y35871998D01*
G75*
G02*
X-45433998Y35622000I-249998J0D01*
G01*
X-45959002Y35622000D01*
G75*
G02*
X-46209000Y35871998I0J249998D01*
G01*
X-46209000Y36772002D01*
G75*
G02*
X-45959002Y37022000I249998J0D01*
G01*
X-45433998Y37022000D01*
G75*
G02*
X-45184000Y36772002I0J-249998D01*
G01*
G37*
G04 #@! TD*
G04 #@! TO.C,R1*
G36*
G01*
X-31141248Y35737750D02*
X-32041252Y35737750D01*
G75*
G02*
X-32291250Y35987748I0J249998D01*
G01*
X-32291250Y36512752D01*
G75*
G02*
X-32041252Y36762750I249998J0D01*
G01*
X-31141248Y36762750D01*
G75*
G02*
X-30891250Y36512752I0J-249998D01*
G01*
X-30891250Y35987748D01*
G75*
G02*
X-31141248Y35737750I-249998J0D01*
G01*
G37*
G36*
G01*
X-31141248Y33912750D02*
X-32041252Y33912750D01*
G75*
G02*
X-32291250Y34162748I0J249998D01*
G01*
X-32291250Y34687752D01*
G75*
G02*
X-32041252Y34937750I249998J0D01*
G01*
X-31141248Y34937750D01*
G75*
G02*
X-30891250Y34687752I0J-249998D01*
G01*
X-30891250Y34162748D01*
G75*
G02*
X-31141248Y33912750I-249998J0D01*
G01*
G37*
G04 #@! TD*
G04 #@! TO.C,F1*
G36*
G01*
X-45834000Y32903000D02*
X-45834000Y34153000D01*
G75*
G02*
X-45584000Y34403000I250000J0D01*
G01*
X-44834000Y34403000D01*
G75*
G02*
X-44584000Y34153000I0J-250000D01*
G01*
X-44584000Y32903000D01*
G75*
G02*
X-44834000Y32653000I-250000J0D01*
G01*
X-45584000Y32653000D01*
G75*
G02*
X-45834000Y32903000I0J250000D01*
G01*
G37*
G36*
G01*
X-48634000Y32903000D02*
X-48634000Y34153000D01*
G75*
G02*
X-48384000Y34403000I250000J0D01*
G01*
X-47634000Y34403000D01*
G75*
G02*
X-47384000Y34153000I0J-250000D01*
G01*
X-47384000Y32903000D01*
G75*
G02*
X-47634000Y32653000I-250000J0D01*
G01*
X-48384000Y32653000D01*
G75*
G02*
X-48634000Y32903000I0J250000D01*
G01*
G37*
G04 #@! TD*
D13*
G04 #@! TO.C,D3*
X-19912500Y18243750D03*
X-19912500Y21443750D03*
X-15012500Y18243750D03*
X-15012500Y21443750D03*
G04 #@! TD*
G04 #@! TO.C,D1*
X-73601750Y18243750D03*
X-73601750Y21443750D03*
X-68701750Y18243750D03*
X-68701750Y21443750D03*
G04 #@! TD*
G04 #@! TO.C,C4*
G36*
G01*
X-45610678Y11156927D02*
X-44938927Y11828678D01*
G75*
G02*
X-44585373Y11828678I176777J-176777D01*
G01*
X-44231820Y11475125D01*
G75*
G02*
X-44231820Y11121571I-176777J-176777D01*
G01*
X-44903571Y10449820D01*
G75*
G02*
X-45257125Y10449820I-176777J176777D01*
G01*
X-45610678Y10803373D01*
G75*
G02*
X-45610678Y11156927I176777J176777D01*
G01*
G37*
G36*
G01*
X-46954180Y12500429D02*
X-46282429Y13172180D01*
G75*
G02*
X-45928875Y13172180I176777J-176777D01*
G01*
X-45575322Y12818627D01*
G75*
G02*
X-45575322Y12465073I-176777J-176777D01*
G01*
X-46247073Y11793322D01*
G75*
G02*
X-46600627Y11793322I-176777J176777D01*
G01*
X-46954180Y12146875D01*
G75*
G02*
X-46954180Y12500429I176777J176777D01*
G01*
G37*
G04 #@! TD*
G04 #@! TO.C,C3*
G36*
G01*
X-41511322Y12373429D02*
X-40839571Y11701678D01*
G75*
G02*
X-40839571Y11348124I-176777J-176777D01*
G01*
X-41193124Y10994571D01*
G75*
G02*
X-41546678Y10994571I-176777J176777D01*
G01*
X-42218429Y11666322D01*
G75*
G02*
X-42218429Y12019876I176777J176777D01*
G01*
X-41864876Y12373429D01*
G75*
G02*
X-41511322Y12373429I176777J-176777D01*
G01*
G37*
G36*
G01*
X-40167820Y13716931D02*
X-39496069Y13045180D01*
G75*
G02*
X-39496069Y12691626I-176777J-176777D01*
G01*
X-39849622Y12338073D01*
G75*
G02*
X-40203176Y12338073I-176777J176777D01*
G01*
X-40874927Y13009824D01*
G75*
G02*
X-40874927Y13363378I176777J176777D01*
G01*
X-40521374Y13716931D01*
G75*
G02*
X-40167820Y13716931I176777J-176777D01*
G01*
G37*
G04 #@! TD*
G04 #@! TO.C,C2*
G36*
G01*
X-49528750Y14313750D02*
X-48578750Y14313750D01*
G75*
G02*
X-48328750Y14063750I0J-250000D01*
G01*
X-48328750Y13563750D01*
G75*
G02*
X-48578750Y13313750I-250000J0D01*
G01*
X-49528750Y13313750D01*
G75*
G02*
X-49778750Y13563750I0J250000D01*
G01*
X-49778750Y14063750D01*
G75*
G02*
X-49528750Y14313750I250000J0D01*
G01*
G37*
G36*
G01*
X-49528750Y16213750D02*
X-48578750Y16213750D01*
G75*
G02*
X-48328750Y15963750I0J-250000D01*
G01*
X-48328750Y15463750D01*
G75*
G02*
X-48578750Y15213750I-250000J0D01*
G01*
X-49528750Y15213750D01*
G75*
G02*
X-49778750Y15463750I0J250000D01*
G01*
X-49778750Y15963750D01*
G75*
G02*
X-49528750Y16213750I250000J0D01*
G01*
G37*
G04 #@! TD*
M02*
