M48
; DRILL file {KiCad (5.1.9-0-10_14)} date Wednesday, March 17, 2021 at 10:28:11 PM
; FORMAT={-:-/ absolute / inch / decimal}
; #@! TF.CreationDate,2021-03-17T22:28:11-07:00
; #@! TF.GenerationSoftware,Kicad,Pcbnew,(5.1.9-0-10_14)
; #@! TF.FileFunction,Plated,1,2,PTH
FMAT,2
INCH
T1C0.0157
T2C0.0236
T3C0.0394
T4C0.0579
%
G90
G05
T1
X-2.8213Y0.8712
X-2.7062Y1.3413
X-2.6913Y1.1312
X-2.6362Y0.9537
X-2.6288Y0.9113
X-2.5263Y1.4441
X-2.1462Y0.8712
X-2.145Y0.715
X-2.1162Y1.2962
X-2.115Y0.565
X-2.1062Y1.3938
X-2.0762Y0.5062
X-2.075Y1.4441
X-2.0541Y0.9399
X-2.0439Y1.295
X-2.0263Y1.0037
X-2.0263Y0.9113
X-2.026Y1.2035
X-1.9999Y1.11
X-1.9788Y1.0762
X-1.91Y1.43
X-1.905Y1.385
X-1.89Y1.265
X-1.8812Y0.2969
X-1.8812Y0.2575
X-1.8812Y0.2181
X-1.8812Y0.1788
X-1.8798Y0.3362
X-1.87Y0.425
X-1.8062Y0.1862
X-1.795Y0.7038
X-1.758Y1.3989
X-1.725Y0.925
X-1.7195Y1.2505
X-1.7Y1.32
X-1.6887Y0.1368
X-1.635Y1.12
X-1.6262Y1.3125
X-1.5849Y1.2699
X-1.5611Y0.984
X-1.56Y0.795
X-1.555Y0.945
X-1.55Y0.1362
X-1.5143Y0.9552
X-1.5Y0.2
X-1.4851Y0.926
X-1.475Y0.86
X-1.41Y0.9807
X-1.41Y0.9393
X-1.4087Y1.2937
X-1.395Y0.1184
X-1.39Y0.355
X-1.385Y0.1564
X-1.3718Y1.2384
X-1.3712Y1.3362
X-1.3518Y0.3456
X-1.3413Y0.7462
X-1.3Y0.23
X-1.2837Y0.8237
X-1.26Y0.975
X-1.25Y1.0938
X-1.22Y0.675
X-1.1925Y0.5017
X-1.03Y0.7
X-1.025Y0.2
X-0.985Y0.78
X-0.945Y0.5
X-0.925Y0.17
X-0.91Y1.35
X-0.91Y0.61
X-0.895Y0.2676
X-0.865Y0.855
X-0.865Y0.675
X-0.84Y0.1714
X-0.78Y0.8861
X-0.7212Y0.2863
X-0.59Y0.79
X-0.5563Y0.3162
X-0.535Y0.72
X-0.525Y0.2
X-0.505Y0.855
X-0.48Y0.5
X-0.3125Y1.0625
X-0.2461Y0.79
X-0.225Y0.515
X-0.215Y0.675
X-0.12Y0.72
X-0.1184Y0.7913
T3
X-2.3797Y1.0765
X-2.3797Y0.5057
X-2.2812Y1.3962
X-2.2812Y1.2962
X-2.2812Y1.1963
X-2.2812Y1.0765
X-2.1828Y1.0765
X-2.1828Y0.5057
X-2.1812Y1.3962
X-2.1812Y1.2962
X-2.1812Y1.1963
T4
X-1.3062Y1.2562
X-1.3062Y0.5062
X-1.0562Y1.3562
X-1.0562Y0.6062
X-0.5563Y1.2562
X-0.5563Y0.5062
X-0.3062Y1.3562
X-0.3062Y0.6062
T2
G00X-1.7013Y1.5657
M15
G01X-1.7013Y1.5421
M16
G05
G00X-1.7013Y1.411
M15
G01X-1.7013Y1.3677
M16
G05
G00X-1.3612Y1.5657
M15
G01X-1.3612Y1.5421
M16
G05
G00X-1.3612Y1.411
M15
G01X-1.3612Y1.3677
M16
G05
T0
M30
